<?xml version="1.0" encoding="utf-8" standalone="no"?>
<!DOCTYPE svg PUBLIC "-//W3C//DTD SVG 1.1//EN"
  "http://www.w3.org/Graphics/SVG/1.1/DTD/svg11.dtd">
<svg xmlns:xlink="http://www.w3.org/1999/xlink" width="460.8pt" height="345.6pt" viewBox="0 0 460.8 345.6" xmlns="http://www.w3.org/2000/svg" version="1.1">
 <metadata>
  <rdf:RDF xmlns:dc="http://purl.org/dc/elements/1.1/" xmlns:cc="http://creativecommons.org/ns#" xmlns:rdf="http://www.w3.org/1999/02/22-rdf-syntax-ns#">
   <cc:Work>
    <dc:type rdf:resource="http://purl.org/dc/dcmitype/StillImage"/>
    <dc:date>2023-05-12T14:12:57.942425</dc:date>
    <dc:format>image/svg+xml</dc:format>
    <dc:creator>
     <cc:Agent>
      <dc:title>Matplotlib v3.7.1, https://matplotlib.org/</dc:title>
     </cc:Agent>
    </dc:creator>
   </cc:Work>
  </rdf:RDF>
 </metadata>
 <defs>
  <style type="text/css">*{stroke-linejoin: round; stroke-linecap: butt}</style>
 </defs>
 <g id="figure_1">
  <g id="patch_1">
   <path d="M 0 345.6 
L 460.8 345.6 
L 460.8 0 
L 0 0 
z
" style="fill: #ffffff"/>
  </g>
  <g id="axes_1">
   <g id="patch_2">
    <path d="M 57.6 307.584 
L 219.927273 307.584 
L 219.927273 41.472 
L 57.6 41.472 
z
" style="fill: #ffffff"/>
   </g>
   <g id="patch_3">
    <path d="M 138.763636 251.826701 
C 159.263492 251.826701 178.926486 243.682022 193.422072 229.186436 
C 207.917659 214.690849 216.062338 195.027855 216.062338 174.528 
C 216.062338 154.028145 207.917659 134.365151 193.422072 119.869564 
C 178.926486 105.373978 159.263492 97.229299 138.763636 97.229299 
C 118.263781 97.229299 98.600787 105.373978 84.1052 119.869564 
C 69.609614 134.365151 61.464935 154.028145 61.464935 174.528 
C 61.464935 195.027855 69.609614 214.690849 84.1052 229.186436 
C 98.600787 243.682022 118.263781 251.826701 138.763636 251.826701 
z
" clip-path="url(#p4dc713eed7)" style="fill: #ffcdd2; stroke: #ffcdd2; stroke-linejoin: miter"/>
   </g>
   <g id="patch_4">
    <path d="M 151.880992 182.726347 
C 154.055219 182.726347 156.140688 181.862518 157.678099 180.325107 
C 159.215509 178.787696 160.079339 176.702227 160.079339 174.528 
C 160.079339 172.353773 159.215509 170.268304 157.678099 168.730893 
C 156.140688 167.193482 154.055219 166.329653 151.880992 166.329653 
C 149.706765 166.329653 147.621296 167.193482 146.083885 168.730893 
C 144.546474 170.268304 143.682645 172.353773 143.682645 174.528 
C 143.682645 176.702227 144.546474 178.787696 146.083885 180.325107 
C 147.621296 181.862518 149.706765 182.726347 151.880992 182.726347 
z
" clip-path="url(#p4dc713eed7)" style="stroke: #000000; stroke-linejoin: miter"/>
   </g>
   <g id="matplotlib.axis_1">
    <g id="xtick_1">
     <g id="line2d_1">
      <defs>
       <path id="ma426e81412" d="M 0 0 
L 0 3.5 
" style="stroke: #000000; stroke-width: 0.8"/>
      </defs>
      <g>
       <use xlink:href="#ma426e81412" x="91.915939" y="307.584" style="stroke: #000000; stroke-width: 0.8"/>
      </g>
     </g>
     <g id="text_1">
      <!-- −20 -->
      <g transform="translate(81.363595 322.182437) scale(0.1 -0.1)">
       <defs>
        <path id="DejaVuSans-2212" d="M 678 2272 
L 4684 2272 
L 4684 1741 
L 678 1741 
L 678 2272 
z
" transform="scale(0.015625)"/>
        <path id="DejaVuSans-32" d="M 1228 531 
L 3431 531 
L 3431 0 
L 469 0 
L 469 531 
Q 828 903 1448 1529 
Q 2069 2156 2228 2338 
Q 2531 2678 2651 2914 
Q 2772 3150 2772 3378 
Q 2772 3750 2511 3984 
Q 2250 4219 1831 4219 
Q 1534 4219 1204 4116 
Q 875 4013 500 3803 
L 500 4441 
Q 881 4594 1212 4672 
Q 1544 4750 1819 4750 
Q 2544 4750 2975 4387 
Q 3406 4025 3406 3419 
Q 3406 3131 3298 2873 
Q 3191 2616 2906 2266 
Q 2828 2175 2409 1742 
Q 1991 1309 1228 531 
z
" transform="scale(0.015625)"/>
        <path id="DejaVuSans-30" d="M 2034 4250 
Q 1547 4250 1301 3770 
Q 1056 3291 1056 2328 
Q 1056 1369 1301 889 
Q 1547 409 2034 409 
Q 2525 409 2770 889 
Q 3016 1369 3016 2328 
Q 3016 3291 2770 3770 
Q 2525 4250 2034 4250 
z
M 2034 4750 
Q 2819 4750 3233 4129 
Q 3647 3509 3647 2328 
Q 3647 1150 3233 529 
Q 2819 -91 2034 -91 
Q 1250 -91 836 529 
Q 422 1150 422 2328 
Q 422 3509 836 4129 
Q 1250 4750 2034 4750 
z
" transform="scale(0.015625)"/>
       </defs>
       <use xlink:href="#DejaVuSans-2212"/>
       <use xlink:href="#DejaVuSans-32" x="83.789062"/>
       <use xlink:href="#DejaVuSans-30" x="147.412109"/>
      </g>
     </g>
    </g>
    <g id="xtick_2">
     <g id="line2d_2">
      <g>
       <use xlink:href="#ma426e81412" x="138.763636" y="307.584" style="stroke: #000000; stroke-width: 0.8"/>
      </g>
     </g>
     <g id="text_2">
      <!-- 0 -->
      <g transform="translate(135.582386 322.182437) scale(0.1 -0.1)">
       <use xlink:href="#DejaVuSans-30"/>
      </g>
     </g>
    </g>
    <g id="xtick_3">
     <g id="line2d_3">
      <g>
       <use xlink:href="#ma426e81412" x="185.611334" y="307.584" style="stroke: #000000; stroke-width: 0.8"/>
      </g>
     </g>
     <g id="text_3">
      <!-- 20 -->
      <g transform="translate(179.248834 322.182437) scale(0.1 -0.1)">
       <use xlink:href="#DejaVuSans-32"/>
       <use xlink:href="#DejaVuSans-30" x="63.623047"/>
      </g>
     </g>
    </g>
   </g>
   <g id="matplotlib.axis_2">
    <g id="ytick_1">
     <g id="line2d_4">
      <defs>
       <path id="mca32ea45a5" d="M 0 0 
L -3.5 0 
" style="stroke: #000000; stroke-width: 0.8"/>
      </defs>
      <g>
       <use xlink:href="#mca32ea45a5" x="57.6" y="268.223396" style="stroke: #000000; stroke-width: 0.8"/>
      </g>
     </g>
     <g id="text_4">
      <!-- −40 -->
      <g transform="translate(29.495313 272.022614) scale(0.1 -0.1)">
       <defs>
        <path id="DejaVuSans-34" d="M 2419 4116 
L 825 1625 
L 2419 1625 
L 2419 4116 
z
M 2253 4666 
L 3047 4666 
L 3047 1625 
L 3713 1625 
L 3713 1100 
L 3047 1100 
L 3047 0 
L 2419 0 
L 2419 1100 
L 313 1100 
L 313 1709 
L 2253 4666 
z
" transform="scale(0.015625)"/>
       </defs>
       <use xlink:href="#DejaVuSans-2212"/>
       <use xlink:href="#DejaVuSans-34" x="83.789062"/>
       <use xlink:href="#DejaVuSans-30" x="147.412109"/>
      </g>
     </g>
    </g>
    <g id="ytick_2">
     <g id="line2d_5">
      <g>
       <use xlink:href="#mca32ea45a5" x="57.6" y="221.375698" style="stroke: #000000; stroke-width: 0.8"/>
      </g>
     </g>
     <g id="text_5">
      <!-- −20 -->
      <g transform="translate(29.495313 225.174917) scale(0.1 -0.1)">
       <use xlink:href="#DejaVuSans-2212"/>
       <use xlink:href="#DejaVuSans-32" x="83.789062"/>
       <use xlink:href="#DejaVuSans-30" x="147.412109"/>
      </g>
     </g>
    </g>
    <g id="ytick_3">
     <g id="line2d_6">
      <g>
       <use xlink:href="#mca32ea45a5" x="57.6" y="174.528" style="stroke: #000000; stroke-width: 0.8"/>
      </g>
     </g>
     <g id="text_6">
      <!-- 0 -->
      <g transform="translate(44.2375 178.327219) scale(0.1 -0.1)">
       <use xlink:href="#DejaVuSans-30"/>
      </g>
     </g>
    </g>
    <g id="ytick_4">
     <g id="line2d_7">
      <g>
       <use xlink:href="#mca32ea45a5" x="57.6" y="127.680302" style="stroke: #000000; stroke-width: 0.8"/>
      </g>
     </g>
     <g id="text_7">
      <!-- 20 -->
      <g transform="translate(37.875 131.479521) scale(0.1 -0.1)">
       <use xlink:href="#DejaVuSans-32"/>
       <use xlink:href="#DejaVuSans-30" x="63.623047"/>
      </g>
     </g>
    </g>
    <g id="ytick_5">
     <g id="line2d_8">
      <g>
       <use xlink:href="#mca32ea45a5" x="57.6" y="80.832604" style="stroke: #000000; stroke-width: 0.8"/>
      </g>
     </g>
     <g id="text_8">
      <!-- 40 -->
      <g transform="translate(37.875 84.631823) scale(0.1 -0.1)">
       <use xlink:href="#DejaVuSans-34"/>
       <use xlink:href="#DejaVuSans-30" x="63.623047"/>
      </g>
     </g>
    </g>
   </g>
   <g id="LineCollection_1">
    <path d="M 61.464935 174.528 
L 62.96125 172.725833 
" clip-path="url(#p4dc713eed7)" style="fill: none; stroke: #4caf50; stroke-width: 3"/>
    <path d="M 62.96125 172.725833 
L 84.861999 164.417168 
" clip-path="url(#p4dc713eed7)" style="fill: none; stroke: #4caf50; stroke-width: 3"/>
    <path d="M 84.861999 164.417168 
L 89.553112 176.782438 
" clip-path="url(#p4dc713eed7)" style="fill: none; stroke: #4caf50; stroke-width: 3"/>
    <path d="M 89.553112 176.782438 
L 91.743186 175.951571 
" clip-path="url(#p4dc713eed7)" style="fill: none; stroke: #4caf50; stroke-width: 3"/>
    <path d="M 91.743186 175.951571 
L 98.425039 153.500969 
" clip-path="url(#p4dc713eed7)" style="fill: none; stroke: #4caf50; stroke-width: 3"/>
    <path d="M 98.425039 153.500969 
L 104.069047 139.516817 
" clip-path="url(#p4dc713eed7)" style="fill: none; stroke: #4caf50; stroke-width: 3"/>
    <path d="M 104.069047 139.516817 
L 109.888315 129.424102 
" clip-path="url(#p4dc713eed7)" style="fill: none; stroke: #4caf50; stroke-width: 3"/>
    <path d="M 109.888315 129.424102 
L 116.468559 133.218145 
" clip-path="url(#p4dc713eed7)" style="fill: none; stroke: #4caf50; stroke-width: 3"/>
    <path d="M 116.468559 133.218145 
L 132.608134 150.194329 
" clip-path="url(#p4dc713eed7)" style="fill: none; stroke: #4caf50; stroke-width: 3"/>
    <path d="M 132.608134 150.194329 
L 150.296884 154.092526 
" clip-path="url(#p4dc713eed7)" style="fill: none; stroke: #4caf50; stroke-width: 3"/>
    <path d="M 150.296884 154.092526 
L 152.195689 155.464133 
" clip-path="url(#p4dc713eed7)" style="fill: none; stroke: #4caf50; stroke-width: 3"/>
    <path d="M 152.195689 155.464133 
L 175.364795 152.018957 
" clip-path="url(#p4dc713eed7)" style="fill: none; stroke: #4caf50; stroke-width: 3"/>
    <path d="M 175.364795 152.018957 
L 178.201005 171.092715 
" clip-path="url(#p4dc713eed7)" style="fill: none; stroke: #4caf50; stroke-width: 3"/>
    <path d="M 178.201005 171.092715 
L 167.916889 172.621931 
" clip-path="url(#p4dc713eed7)" style="fill: none; stroke: #4caf50; stroke-width: 3"/>
    <path d="M 167.916889 172.621931 
L 166.39075 174.398914 
" clip-path="url(#p4dc713eed7)" style="fill: none; stroke: #4caf50; stroke-width: 3"/>
    <path d="M 166.39075 174.398914 
L 184.160575 189.660304 
" clip-path="url(#p4dc713eed7)" style="fill: none; stroke: #4caf50; stroke-width: 3"/>
    <path d="M 184.160575 189.660304 
L 188.975123 201.311269 
" clip-path="url(#p4dc713eed7)" style="fill: none; stroke: #4caf50; stroke-width: 3"/>
    <path d="M 188.975123 201.311269 
L 190.765771 208.318838 
" clip-path="url(#p4dc713eed7)" style="fill: none; stroke: #4caf50; stroke-width: 3"/>
    <path d="M 190.765771 208.318838 
L 197.413374 210.881015 
" clip-path="url(#p4dc713eed7)" style="fill: none; stroke: #4caf50; stroke-width: 3"/>
    <path d="M 197.413374 210.881015 
L 198.896564 209.06803 
" clip-path="url(#p4dc713eed7)" style="fill: none; stroke: #4caf50; stroke-width: 3"/>
   </g>
   <g id="patch_5">
    <path d="M 57.6 307.584 
L 57.6 41.472 
" style="fill: none; stroke: #000000; stroke-width: 0.8; stroke-linejoin: miter; stroke-linecap: square"/>
   </g>
   <g id="patch_6">
    <path d="M 219.927273 307.584 
L 219.927273 41.472 
" style="fill: none; stroke: #000000; stroke-width: 0.8; stroke-linejoin: miter; stroke-linecap: square"/>
   </g>
   <g id="patch_7">
    <path d="M 57.6 307.584 
L 219.927273 307.584 
" style="fill: none; stroke: #000000; stroke-width: 0.8; stroke-linejoin: miter; stroke-linecap: square"/>
   </g>
   <g id="patch_8">
    <path d="M 57.6 41.472 
L 219.927273 41.472 
" style="fill: none; stroke: #000000; stroke-width: 0.8; stroke-linejoin: miter; stroke-linecap: square"/>
   </g>
  </g>
  <g id="axes_2">
   <g id="patch_9">
    <path d="M 414.72 174.528 
C 414.72 163.869689 412.620545 153.315017 408.541786 143.468021 
C 404.463027 133.621026 398.484285 124.673206 390.947721 117.136642 
C 383.411157 109.600078 374.463338 103.621337 364.616343 99.542578 
C 354.769347 95.463819 344.214675 93.364364 333.556364 93.364364 
C 322.898053 93.364364 312.34338 95.463819 302.496385 99.542578 
C 292.649389 103.621337 283.70157 109.600078 276.165006 117.136642 
C 268.628442 124.673206 262.6497 133.621026 258.570941 143.468021 
C 254.492182 153.315017 252.392727 163.869689 252.392727 174.528 
C 252.392727 185.186311 254.492182 195.740983 258.570941 205.587979 
C 262.6497 215.434974 268.628442 224.382794 276.165006 231.919358 
C 283.70157 239.455922 292.649389 245.434663 302.496385 249.513422 
C 312.34338 253.592181 322.898053 255.691636 333.556364 255.691636 
C 344.214675 255.691636 354.769347 253.592181 364.616343 249.513422 
C 374.463338 245.434663 383.411157 239.455922 390.947721 231.919358 
C 398.484285 224.382794 404.463027 215.434974 408.541786 205.587979 
C 412.620545 195.740983 414.72 185.186311 414.72 174.528 
M 333.556364 174.528 
C 333.556364 174.528 333.556364 174.528 333.556364 174.528 
C 333.556364 174.528 333.556364 174.528 333.556364 174.528 
C 333.556364 174.528 333.556364 174.528 333.556364 174.528 
C 333.556364 174.528 333.556364 174.528 333.556364 174.528 
C 333.556364 174.528 333.556364 174.528 333.556364 174.528 
C 333.556364 174.528 333.556364 174.528 333.556364 174.528 
C 333.556364 174.528 333.556364 174.528 333.556364 174.528 
C 333.556364 174.528 333.556364 174.528 333.556364 174.528 
C 333.556364 174.528 333.556364 174.528 333.556364 174.528 
C 333.556364 174.528 333.556364 174.528 333.556364 174.528 
C 333.556364 174.528 333.556364 174.528 333.556364 174.528 
C 333.556364 174.528 333.556364 174.528 333.556364 174.528 
C 333.556364 174.528 333.556364 174.528 333.556364 174.528 
C 333.556364 174.528 333.556364 174.528 333.556364 174.528 
C 333.556364 174.528 333.556364 174.528 333.556364 174.528 
C 333.556364 174.528 333.556364 174.528 333.556364 174.528 
z
" style="fill: #ffffff"/>
   </g>
   <g id="matplotlib.axis_3">
    <g id="xtick_4">
     <g id="line2d_9">
      <path d="M 333.556364 174.528 
L 414.72 174.528 
" clip-path="url(#p14a47e77ef)" style="fill: none; stroke: #b0b0b0; stroke-width: 0.8; stroke-linecap: square"/>
     </g>
     <g id="text_9">
      <!-- 0° -->
      <g transform="translate(423.03875 177.287375) scale(0.1 -0.1)">
       <defs>
        <path id="DejaVuSans-b0" d="M 1600 4347 
Q 1350 4347 1178 4173 
Q 1006 4000 1006 3750 
Q 1006 3503 1178 3333 
Q 1350 3163 1600 3163 
Q 1850 3163 2022 3333 
Q 2194 3503 2194 3750 
Q 2194 3997 2020 4172 
Q 1847 4347 1600 4347 
z
M 1600 4750 
Q 1800 4750 1984 4673 
Q 2169 4597 2303 4453 
Q 2447 4313 2519 4134 
Q 2591 3956 2591 3750 
Q 2591 3338 2302 3052 
Q 2013 2766 1594 2766 
Q 1172 2766 890 3047 
Q 609 3328 609 3750 
Q 609 4169 896 4459 
Q 1184 4750 1600 4750 
z
" transform="scale(0.015625)"/>
       </defs>
       <use xlink:href="#DejaVuSans-30"/>
       <use xlink:href="#DejaVuSans-b0" x="63.623047"/>
      </g>
     </g>
    </g>
    <g id="xtick_5">
     <g id="line2d_10">
      <path d="M 333.556364 174.528 
L 390.947721 117.136642 
" clip-path="url(#p14a47e77ef)" style="fill: none; stroke: #b0b0b0; stroke-width: 0.8; stroke-linecap: square"/>
     </g>
     <g id="text_10">
      <!-- 45° -->
      <g transform="translate(391.984716 109.996522) scale(0.1 -0.1)">
       <defs>
        <path id="DejaVuSans-35" d="M 691 4666 
L 3169 4666 
L 3169 4134 
L 1269 4134 
L 1269 2991 
Q 1406 3038 1543 3061 
Q 1681 3084 1819 3084 
Q 2600 3084 3056 2656 
Q 3513 2228 3513 1497 
Q 3513 744 3044 326 
Q 2575 -91 1722 -91 
Q 1428 -91 1123 -41 
Q 819 9 494 109 
L 494 744 
Q 775 591 1075 516 
Q 1375 441 1709 441 
Q 2250 441 2565 725 
Q 2881 1009 2881 1497 
Q 2881 1984 2565 2268 
Q 2250 2553 1709 2553 
Q 1456 2553 1204 2497 
Q 953 2441 691 2322 
L 691 4666 
z
" transform="scale(0.015625)"/>
       </defs>
       <use xlink:href="#DejaVuSans-34"/>
       <use xlink:href="#DejaVuSans-35" x="63.623047"/>
       <use xlink:href="#DejaVuSans-b0" x="127.246094"/>
      </g>
     </g>
    </g>
    <g id="xtick_6">
     <g id="line2d_11">
      <path d="M 333.556364 174.528 
L 333.556364 93.364364 
" clip-path="url(#p14a47e77ef)" style="fill: none; stroke: #b0b0b0; stroke-width: 0.8; stroke-linecap: square"/>
     </g>
     <g id="text_11">
      <!-- 90° -->
      <g transform="translate(324.693864 82.123739) scale(0.1 -0.1)">
       <defs>
        <path id="DejaVuSans-39" d="M 703 97 
L 703 672 
Q 941 559 1184 500 
Q 1428 441 1663 441 
Q 2288 441 2617 861 
Q 2947 1281 2994 2138 
Q 2813 1869 2534 1725 
Q 2256 1581 1919 1581 
Q 1219 1581 811 2004 
Q 403 2428 403 3163 
Q 403 3881 828 4315 
Q 1253 4750 1959 4750 
Q 2769 4750 3195 4129 
Q 3622 3509 3622 2328 
Q 3622 1225 3098 567 
Q 2575 -91 1691 -91 
Q 1453 -91 1209 -44 
Q 966 3 703 97 
z
M 1959 2075 
Q 2384 2075 2632 2365 
Q 2881 2656 2881 3163 
Q 2881 3666 2632 3958 
Q 2384 4250 1959 4250 
Q 1534 4250 1286 3958 
Q 1038 3666 1038 3163 
Q 1038 2656 1286 2365 
Q 1534 2075 1959 2075 
z
" transform="scale(0.015625)"/>
       </defs>
       <use xlink:href="#DejaVuSans-39"/>
       <use xlink:href="#DejaVuSans-30" x="63.623047"/>
       <use xlink:href="#DejaVuSans-b0" x="127.246094"/>
      </g>
     </g>
    </g>
    <g id="xtick_7">
     <g id="line2d_12">
      <path d="M 333.556364 174.528 
L 276.165006 117.136642 
" clip-path="url(#p14a47e77ef)" style="fill: none; stroke: #b0b0b0; stroke-width: 0.8; stroke-linecap: square"/>
     </g>
     <g id="text_12">
      <!-- 135° -->
      <g transform="translate(254.221761 109.996522) scale(0.1 -0.1)">
       <defs>
        <path id="DejaVuSans-31" d="M 794 531 
L 1825 531 
L 1825 4091 
L 703 3866 
L 703 4441 
L 1819 4666 
L 2450 4666 
L 2450 531 
L 3481 531 
L 3481 0 
L 794 0 
L 794 531 
z
" transform="scale(0.015625)"/>
        <path id="DejaVuSans-33" d="M 2597 2516 
Q 3050 2419 3304 2112 
Q 3559 1806 3559 1356 
Q 3559 666 3084 287 
Q 2609 -91 1734 -91 
Q 1441 -91 1130 -33 
Q 819 25 488 141 
L 488 750 
Q 750 597 1062 519 
Q 1375 441 1716 441 
Q 2309 441 2620 675 
Q 2931 909 2931 1356 
Q 2931 1769 2642 2001 
Q 2353 2234 1838 2234 
L 1294 2234 
L 1294 2753 
L 1863 2753 
Q 2328 2753 2575 2939 
Q 2822 3125 2822 3475 
Q 2822 3834 2567 4026 
Q 2313 4219 1838 4219 
Q 1578 4219 1281 4162 
Q 984 4106 628 3988 
L 628 4550 
Q 988 4650 1302 4700 
Q 1616 4750 1894 4750 
Q 2613 4750 3031 4423 
Q 3450 4097 3450 3541 
Q 3450 3153 3228 2886 
Q 3006 2619 2597 2516 
z
" transform="scale(0.015625)"/>
       </defs>
       <use xlink:href="#DejaVuSans-31"/>
       <use xlink:href="#DejaVuSans-33" x="63.623047"/>
       <use xlink:href="#DejaVuSans-35" x="127.246094"/>
       <use xlink:href="#DejaVuSans-b0" x="190.869141"/>
      </g>
     </g>
    </g>
    <g id="xtick_8">
     <g id="line2d_13">
      <path d="M 333.556364 174.528 
L 252.392727 174.528 
" clip-path="url(#p14a47e77ef)" style="fill: none; stroke: #b0b0b0; stroke-width: 0.8; stroke-linecap: square"/>
     </g>
     <g id="text_13">
      <!-- 180° -->
      <g transform="translate(226.348977 177.287375) scale(0.1 -0.1)">
       <defs>
        <path id="DejaVuSans-38" d="M 2034 2216 
Q 1584 2216 1326 1975 
Q 1069 1734 1069 1313 
Q 1069 891 1326 650 
Q 1584 409 2034 409 
Q 2484 409 2743 651 
Q 3003 894 3003 1313 
Q 3003 1734 2745 1975 
Q 2488 2216 2034 2216 
z
M 1403 2484 
Q 997 2584 770 2862 
Q 544 3141 544 3541 
Q 544 4100 942 4425 
Q 1341 4750 2034 4750 
Q 2731 4750 3128 4425 
Q 3525 4100 3525 3541 
Q 3525 3141 3298 2862 
Q 3072 2584 2669 2484 
Q 3125 2378 3379 2068 
Q 3634 1759 3634 1313 
Q 3634 634 3220 271 
Q 2806 -91 2034 -91 
Q 1263 -91 848 271 
Q 434 634 434 1313 
Q 434 1759 690 2068 
Q 947 2378 1403 2484 
z
M 1172 3481 
Q 1172 3119 1398 2916 
Q 1625 2713 2034 2713 
Q 2441 2713 2670 2916 
Q 2900 3119 2900 3481 
Q 2900 3844 2670 4047 
Q 2441 4250 2034 4250 
Q 1625 4250 1398 4047 
Q 1172 3844 1172 3481 
z
" transform="scale(0.015625)"/>
       </defs>
       <use xlink:href="#DejaVuSans-31"/>
       <use xlink:href="#DejaVuSans-38" x="63.623047"/>
       <use xlink:href="#DejaVuSans-30" x="127.246094"/>
       <use xlink:href="#DejaVuSans-b0" x="190.869141"/>
      </g>
     </g>
    </g>
    <g id="xtick_9">
     <g id="line2d_14">
      <path d="M 333.556364 174.528 
L 276.165006 231.919358 
" clip-path="url(#p14a47e77ef)" style="fill: none; stroke: #b0b0b0; stroke-width: 0.8; stroke-linecap: square"/>
     </g>
     <g id="text_14">
      <!-- 225° -->
      <g transform="translate(254.221761 244.578228) scale(0.1 -0.1)">
       <use xlink:href="#DejaVuSans-32"/>
       <use xlink:href="#DejaVuSans-32" x="63.623047"/>
       <use xlink:href="#DejaVuSans-35" x="127.246094"/>
       <use xlink:href="#DejaVuSans-b0" x="190.869141"/>
      </g>
     </g>
    </g>
    <g id="xtick_10">
     <g id="line2d_15">
      <path d="M 333.556364 174.528 
L 333.556364 255.691636 
" clip-path="url(#p14a47e77ef)" style="fill: none; stroke: #b0b0b0; stroke-width: 0.8; stroke-linecap: square"/>
     </g>
     <g id="text_15">
      <!-- 270° -->
      <g transform="translate(321.512614 272.451011) scale(0.1 -0.1)">
       <defs>
        <path id="DejaVuSans-37" d="M 525 4666 
L 3525 4666 
L 3525 4397 
L 1831 0 
L 1172 0 
L 2766 4134 
L 525 4134 
L 525 4666 
z
" transform="scale(0.015625)"/>
       </defs>
       <use xlink:href="#DejaVuSans-32"/>
       <use xlink:href="#DejaVuSans-37" x="63.623047"/>
       <use xlink:href="#DejaVuSans-30" x="127.246094"/>
       <use xlink:href="#DejaVuSans-b0" x="190.869141"/>
      </g>
     </g>
    </g>
    <g id="xtick_11">
     <g id="line2d_16">
      <path d="M 333.556364 174.528 
L 390.947721 231.919358 
" clip-path="url(#p14a47e77ef)" style="fill: none; stroke: #b0b0b0; stroke-width: 0.8; stroke-linecap: square"/>
     </g>
     <g id="text_16">
      <!-- 315° -->
      <g transform="translate(388.803466 244.578228) scale(0.1 -0.1)">
       <use xlink:href="#DejaVuSans-33"/>
       <use xlink:href="#DejaVuSans-31" x="63.623047"/>
       <use xlink:href="#DejaVuSans-35" x="127.246094"/>
       <use xlink:href="#DejaVuSans-b0" x="190.869141"/>
      </g>
     </g>
    </g>
   </g>
   <g id="matplotlib.axis_4">
    <g id="ytick_6">
     <g id="line2d_17">
      <path d="M 337.24489 174.528 
C 337.24489 174.043627 337.149479 173.563964 336.964118 173.116462 
C 336.778756 172.66896 336.507049 172.262321 336.164546 171.919818 
C 335.822042 171.577315 335.415404 171.305607 334.967902 171.120246 
C 334.520399 170.934885 334.040736 170.839474 333.556364 170.839474 
C 333.071991 170.839474 332.592328 170.934885 332.144826 171.120246 
C 331.697324 171.305607 331.290685 171.577315 330.948182 171.919818 
C 330.605678 172.262321 330.333971 172.66896 330.14861 173.116462 
C 329.963248 173.563964 329.867837 174.043627 329.867837 174.528 
C 329.867837 175.012373 329.963248 175.492036 330.14861 175.939538 
C 330.333971 176.38704 330.605678 176.793679 330.948182 177.136182 
C 331.290685 177.478685 331.697324 177.750393 332.144826 177.935754 
C 332.592328 178.121115 333.071991 178.216526 333.556364 178.216526 
C 334.040736 178.216526 334.520399 178.121115 334.967902 177.935754 
C 335.415404 177.750393 335.822042 177.478685 336.164546 177.136182 
C 336.507049 176.793679 336.778756 176.38704 336.964118 175.939538 
C 337.149479 175.492036 337.24489 175.012373 337.24489 174.528 
" clip-path="url(#p14a47e77ef)" style="fill: none; stroke: #b0b0b0; stroke-width: 0.8; stroke-linecap: square"/>
     </g>
     <g id="text_17">
      <!-- −1000 -->
      <g transform="translate(336.964118 171.036775) scale(0.1 -0.1)">
       <use xlink:href="#DejaVuSans-2212"/>
       <use xlink:href="#DejaVuSans-31" x="83.789062"/>
       <use xlink:href="#DejaVuSans-30" x="147.412109"/>
       <use xlink:href="#DejaVuSans-30" x="211.035156"/>
       <use xlink:href="#DejaVuSans-30" x="274.658203"/>
      </g>
     </g>
    </g>
    <g id="ytick_7">
     <g id="line2d_18">
      <path d="M 351.842679 174.528 
C 351.842679 172.126663 351.369668 169.748676 350.450716 167.53013 
C 349.531764 165.311584 348.184743 163.295624 346.486741 161.597623 
C 344.788739 159.899621 342.772779 158.5526 340.554233 157.633648 
C 338.335687 156.714696 335.957701 156.241685 333.556364 156.241685 
C 331.155027 156.241685 328.77704 156.714696 326.558494 157.633648 
C 324.339948 158.5526 322.323988 159.899621 320.625986 161.597623 
C 318.927985 163.295624 317.580963 165.311584 316.662011 167.53013 
C 315.743059 169.748676 315.270048 172.126663 315.270048 174.528 
C 315.270048 176.929337 315.743059 179.307324 316.662011 181.52587 
C 317.580963 183.744416 318.927985 185.760376 320.625986 187.458377 
C 322.323988 189.156379 324.339948 190.5034 326.558494 191.422352 
C 328.77704 192.341304 331.155027 192.814315 333.556364 192.814315 
C 335.957701 192.814315 338.335687 192.341304 340.554233 191.422352 
C 342.772779 190.5034 344.788739 189.156379 346.486741 187.458377 
C 348.184743 185.760376 349.531764 183.744416 350.450716 181.52587 
C 351.369668 179.307324 351.842679 176.929337 351.842679 174.528 
" clip-path="url(#p14a47e77ef)" style="fill: none; stroke: #b0b0b0; stroke-width: 0.8; stroke-linecap: square"/>
     </g>
     <g id="text_18">
      <!-- −800 -->
      <g transform="translate(350.450716 165.450443) scale(0.1 -0.1)">
       <use xlink:href="#DejaVuSans-2212"/>
       <use xlink:href="#DejaVuSans-38" x="83.789062"/>
       <use xlink:href="#DejaVuSans-30" x="147.412109"/>
       <use xlink:href="#DejaVuSans-30" x="211.035156"/>
      </g>
     </g>
    </g>
    <g id="ytick_8">
     <g id="line2d_19">
      <path d="M 366.440468 174.528 
C 366.440468 170.209699 365.589856 165.933388 363.937314 161.943798 
C 362.284772 157.954208 359.862436 154.328927 356.808937 151.275427 
C 353.755437 148.221927 350.130155 145.799592 346.140565 144.147049 
C 342.150976 142.494507 337.874665 141.643896 333.556364 141.643896 
C 329.238063 141.643896 324.961752 142.494507 320.972162 144.147049 
C 316.982572 145.799592 313.357291 148.221927 310.303791 151.275427 
C 307.250291 154.328927 304.827955 157.954208 303.175413 161.943798 
C 301.522871 165.933388 300.67226 170.209699 300.67226 174.528 
C 300.67226 178.846301 301.522871 183.122612 303.175413 187.112202 
C 304.827955 191.101792 307.250291 194.727073 310.303791 197.780573 
C 313.357291 200.834073 316.982572 203.256408 320.972162 204.908951 
C 324.961752 206.561493 329.238063 207.412104 333.556364 207.412104 
C 337.874665 207.412104 342.150976 206.561493 346.140565 204.908951 
C 350.130155 203.256408 353.755437 200.834073 356.808937 197.780573 
C 359.862436 194.727073 362.284772 191.101792 363.937314 187.112202 
C 365.589856 183.122612 366.440468 178.846301 366.440468 174.528 
" clip-path="url(#p14a47e77ef)" style="fill: none; stroke: #b0b0b0; stroke-width: 0.8; stroke-linecap: square"/>
     </g>
     <g id="text_19">
      <!-- −600 -->
      <g transform="translate(363.937314 159.864111) scale(0.1 -0.1)">
       <defs>
        <path id="DejaVuSans-36" d="M 2113 2584 
Q 1688 2584 1439 2293 
Q 1191 2003 1191 1497 
Q 1191 994 1439 701 
Q 1688 409 2113 409 
Q 2538 409 2786 701 
Q 3034 994 3034 1497 
Q 3034 2003 2786 2293 
Q 2538 2584 2113 2584 
z
M 3366 4563 
L 3366 3988 
Q 3128 4100 2886 4159 
Q 2644 4219 2406 4219 
Q 1781 4219 1451 3797 
Q 1122 3375 1075 2522 
Q 1259 2794 1537 2939 
Q 1816 3084 2150 3084 
Q 2853 3084 3261 2657 
Q 3669 2231 3669 1497 
Q 3669 778 3244 343 
Q 2819 -91 2113 -91 
Q 1303 -91 875 529 
Q 447 1150 447 2328 
Q 447 3434 972 4092 
Q 1497 4750 2381 4750 
Q 2619 4750 2861 4703 
Q 3103 4656 3366 4563 
z
" transform="scale(0.015625)"/>
       </defs>
       <use xlink:href="#DejaVuSans-2212"/>
       <use xlink:href="#DejaVuSans-36" x="83.789062"/>
       <use xlink:href="#DejaVuSans-30" x="147.412109"/>
       <use xlink:href="#DejaVuSans-30" x="211.035156"/>
      </g>
     </g>
    </g>
    <g id="ytick_9">
     <g id="line2d_20">
      <path d="M 381.038256 174.528 
C 381.038256 168.292735 379.810045 162.1181 377.423913 156.357466 
C 375.03778 150.596833 371.54013 145.36223 367.131132 140.953232 
C 362.722134 136.544233 357.487531 133.046584 351.726897 130.660451 
C 345.966264 128.274318 339.791629 127.046107 333.556364 127.046107 
C 327.321099 127.046107 321.146464 128.274318 315.38583 130.660451 
C 309.625196 133.046584 304.390593 136.544233 299.981595 140.953232 
C 295.572597 145.36223 292.074947 150.596833 289.688815 156.357466 
C 287.302682 162.1181 286.074471 168.292735 286.074471 174.528 
C 286.074471 180.763265 287.302682 186.9379 289.688815 192.698534 
C 292.074947 198.459167 295.572597 203.69377 299.981595 208.102768 
C 304.390593 212.511767 309.625196 216.009416 315.38583 218.395549 
C 321.146464 220.781682 327.321099 222.009893 333.556364 222.009893 
C 339.791629 222.009893 345.966264 220.781682 351.726897 218.395549 
C 357.487531 216.009416 362.722134 212.511767 367.131132 208.102768 
C 371.54013 203.69377 375.03778 198.459167 377.423913 192.698534 
C 379.810045 186.9379 381.038256 180.763265 381.038256 174.528 
" clip-path="url(#p14a47e77ef)" style="fill: none; stroke: #b0b0b0; stroke-width: 0.8; stroke-linecap: square"/>
     </g>
     <g id="text_20">
      <!-- −400 -->
      <g transform="translate(377.423913 154.277779) scale(0.1 -0.1)">
       <use xlink:href="#DejaVuSans-2212"/>
       <use xlink:href="#DejaVuSans-34" x="83.789062"/>
       <use xlink:href="#DejaVuSans-30" x="147.412109"/>
       <use xlink:href="#DejaVuSans-30" x="211.035156"/>
      </g>
     </g>
    </g>
    <g id="ytick_10">
     <g id="line2d_21">
      <path d="M 395.636045 174.528 
C 395.636045 166.375771 394.030234 158.302812 390.910511 150.771134 
C 387.790788 143.239457 383.217824 136.395533 377.453328 130.631036 
C 371.688831 124.86654 364.844907 120.293576 357.313229 117.173853 
C 349.781552 114.05413 341.708593 112.448318 333.556364 112.448318 
C 325.404135 112.448318 317.331176 114.05413 309.799498 117.173853 
C 302.26782 120.293576 295.423896 124.86654 289.6594 130.631036 
C 283.894903 136.395533 279.321939 143.239457 276.202216 150.771134 
C 273.082493 158.302812 271.476682 166.375771 271.476682 174.528 
C 271.476682 182.680229 273.082493 190.753188 276.202216 198.284866 
C 279.321939 205.816543 283.894903 212.660467 289.6594 218.424964 
C 295.423896 224.18946 302.26782 228.762424 309.799498 231.882147 
C 317.331176 235.00187 325.404135 236.607682 333.556364 236.607682 
C 341.708593 236.607682 349.781552 235.00187 357.313229 231.882147 
C 364.844907 228.762424 371.688831 224.18946 377.453328 218.424964 
C 383.217824 212.660467 387.790788 205.816543 390.910511 198.284866 
C 394.030234 190.753188 395.636045 182.680229 395.636045 174.528 
" clip-path="url(#p14a47e77ef)" style="fill: none; stroke: #b0b0b0; stroke-width: 0.8; stroke-linecap: square"/>
     </g>
     <g id="text_21">
      <!-- −200 -->
      <g transform="translate(390.910511 148.691447) scale(0.1 -0.1)">
       <use xlink:href="#DejaVuSans-2212"/>
       <use xlink:href="#DejaVuSans-32" x="83.789062"/>
       <use xlink:href="#DejaVuSans-30" x="147.412109"/>
       <use xlink:href="#DejaVuSans-30" x="211.035156"/>
      </g>
     </g>
    </g>
    <g id="ytick_11">
     <g id="line2d_22">
      <path d="M 410.233834 174.528 
C 410.233834 164.458807 408.250423 154.487524 404.397109 145.184802 
C 400.543796 135.882081 394.895518 127.428835 387.775523 120.308841 
C 380.655528 113.188846 372.202283 107.540568 362.899561 103.687254 
C 353.59684 99.833941 343.625557 97.850529 333.556364 97.850529 
C 323.48717 97.850529 313.515888 99.833941 304.213166 103.687254 
C 294.910445 107.540568 286.457199 113.188846 279.337204 120.308841 
C 272.217209 127.428835 266.568931 135.882081 262.715618 145.184802 
C 258.862305 154.487524 256.878893 164.458807 256.878893 174.528 
C 256.878893 184.597193 258.862305 194.568476 262.715618 203.871198 
C 266.568931 213.173919 272.217209 221.627165 279.337204 228.747159 
C 286.457199 235.867154 294.910445 241.515432 304.213166 245.368746 
C 313.515888 249.222059 323.48717 251.205471 333.556364 251.205471 
C 343.625557 251.205471 353.59684 249.222059 362.899561 245.368746 
C 372.202283 241.515432 380.655528 235.867154 387.775523 228.747159 
C 394.895518 221.627165 400.543796 213.173919 404.397109 203.871198 
C 408.250423 194.568476 410.233834 184.597193 410.233834 174.528 
" clip-path="url(#p14a47e77ef)" style="fill: none; stroke: #b0b0b0; stroke-width: 0.8; stroke-linecap: square"/>
     </g>
     <g id="text_22">
      <!-- 0 -->
      <g transform="translate(404.397109 143.105115) scale(0.1 -0.1)">
       <use xlink:href="#DejaVuSans-30"/>
      </g>
     </g>
    </g>
   </g>
   <g id="line2d_23">
    <path d="M 411.030744 174.528 
L 408.347811 154.488311 
L 400.491818 135.884175 
L 388.028564 120.058323 
L 371.861969 108.185477 
L 353.191661 101.259388 
L 333.556535 170.838744 
L 313.714777 100.462178 
L 295.22173 108.120995 
L 279.340972 120.305073 
L 267.091479 136.147638 
L 259.4933 154.67612 
" clip-path="url(#p14a47e77ef)" style="fill: none; stroke: #1f77b4; stroke-width: 1.5; stroke-linecap: square"/>
   </g>
   <g id="patch_10">
    <path d="M 414.72 174.528 
C 414.72 163.869689 412.620545 153.315017 408.541786 143.468021 
C 404.463027 133.621026 398.484285 124.673206 390.947721 117.136642 
C 383.411157 109.600078 374.463338 103.621337 364.616343 99.542578 
C 354.769347 95.463819 344.214675 93.364364 333.556364 93.364364 
C 322.898053 93.364364 312.34338 95.463819 302.496385 99.542578 
C 292.649389 103.621337 283.70157 109.600078 276.165006 117.136642 
C 268.628442 124.673206 262.6497 133.621026 258.570941 143.468021 
C 254.492182 153.315017 252.392727 163.869689 252.392727 174.528 
C 252.392727 185.186311 254.492182 195.740983 258.570941 205.587979 
C 262.6497 215.434974 268.628442 224.382794 276.165006 231.919358 
C 283.70157 239.455922 292.649389 245.434663 302.496385 249.513422 
C 312.34338 253.592181 322.898053 255.691636 333.556364 255.691636 
C 344.214675 255.691636 354.769347 253.592181 364.616343 249.513422 
C 374.463338 245.434663 383.411157 239.455922 390.947721 231.919358 
C 398.484285 224.382794 404.463027 215.434974 408.541786 205.587979 
C 412.620545 195.740983 414.72 185.186311 414.72 174.528 
" style="fill: none; stroke: #000000; stroke-width: 0.8; stroke-linejoin: miter; stroke-linecap: square"/>
   </g>
  </g>
 </g>
 <defs>
  <clipPath id="p4dc713eed7">
   <rect x="57.6" y="41.472" width="162.327273" height="266.112"/>
  </clipPath>
  <clipPath id="p14a47e77ef">
   <path d="M 414.72 174.528 
C 414.72 163.869689 412.620545 153.315017 408.541786 143.468021 
C 404.463027 133.621026 398.484285 124.673206 390.947721 117.136642 
C 383.411157 109.600078 374.463338 103.621337 364.616343 99.542578 
C 354.769347 95.463819 344.214675 93.364364 333.556364 93.364364 
C 322.898053 93.364364 312.34338 95.463819 302.496385 99.542578 
C 292.649389 103.621337 283.70157 109.600078 276.165006 117.136642 
C 268.628442 124.673206 262.6497 133.621026 258.570941 143.468021 
C 254.492182 153.315017 252.392727 163.869689 252.392727 174.528 
C 252.392727 185.186311 254.492182 195.740983 258.570941 205.587979 
C 262.6497 215.434974 268.628442 224.382794 276.165006 231.919358 
C 283.70157 239.455922 292.649389 245.434663 302.496385 249.513422 
C 312.34338 253.592181 322.898053 255.691636 333.556364 255.691636 
C 344.214675 255.691636 354.769347 253.592181 364.616343 249.513422 
C 374.463338 245.434663 383.411157 239.455922 390.947721 231.919358 
C 398.484285 224.382794 404.463027 215.434974 408.541786 205.587979 
C 412.620545 195.740983 414.72 185.186311 414.72 174.528 
M 333.556364 174.528 
C 333.556364 174.528 333.556364 174.528 333.556364 174.528 
C 333.556364 174.528 333.556364 174.528 333.556364 174.528 
C 333.556364 174.528 333.556364 174.528 333.556364 174.528 
C 333.556364 174.528 333.556364 174.528 333.556364 174.528 
C 333.556364 174.528 333.556364 174.528 333.556364 174.528 
C 333.556364 174.528 333.556364 174.528 333.556364 174.528 
C 333.556364 174.528 333.556364 174.528 333.556364 174.528 
C 333.556364 174.528 333.556364 174.528 333.556364 174.528 
C 333.556364 174.528 333.556364 174.528 333.556364 174.528 
C 333.556364 174.528 333.556364 174.528 333.556364 174.528 
C 333.556364 174.528 333.556364 174.528 333.556364 174.528 
C 333.556364 174.528 333.556364 174.528 333.556364 174.528 
C 333.556364 174.528 333.556364 174.528 333.556364 174.528 
C 333.556364 174.528 333.556364 174.528 333.556364 174.528 
C 333.556364 174.528 333.556364 174.528 333.556364 174.528 
C 333.556364 174.528 333.556364 174.528 333.556364 174.528 
z
"/>
  </clipPath>
 </defs>
</svg>
