<?xml version="1.0" encoding="utf-8" standalone="no"?>
<!DOCTYPE svg PUBLIC "-//W3C//DTD SVG 1.1//EN"
  "http://www.w3.org/Graphics/SVG/1.1/DTD/svg11.dtd">
<svg xmlns:xlink="http://www.w3.org/1999/xlink" width="460.8pt" height="345.6pt" viewBox="0 0 460.8 345.6" xmlns="http://www.w3.org/2000/svg" version="1.1">
 <metadata>
  <rdf:RDF xmlns:dc="http://purl.org/dc/elements/1.1/" xmlns:cc="http://creativecommons.org/ns#" xmlns:rdf="http://www.w3.org/1999/02/22-rdf-syntax-ns#">
   <cc:Work>
    <dc:type rdf:resource="http://purl.org/dc/dcmitype/StillImage"/>
    <dc:date>2023-05-11T16:14:31.925247</dc:date>
    <dc:format>image/svg+xml</dc:format>
    <dc:creator>
     <cc:Agent>
      <dc:title>Matplotlib v3.7.1, https://matplotlib.org/</dc:title>
     </cc:Agent>
    </dc:creator>
   </cc:Work>
  </rdf:RDF>
 </metadata>
 <defs>
  <style type="text/css">*{stroke-linejoin: round; stroke-linecap: butt}</style>
 </defs>
 <g id="figure_1">
  <g id="patch_1">
   <path d="M 0 345.6 
L 460.8 345.6 
L 460.8 0 
L 0 0 
z
" style="fill: #ffffff"/>
  </g>
  <g id="axes_1">
   <g id="patch_2">
    <path d="M 57.6 307.584 
L 219.927273 307.584 
L 219.927273 41.472 
L 57.6 41.472 
z
" style="fill: #ffffff"/>
   </g>
   <g id="patch_3">
    <path d="M 138.763636 251.826701 
C 159.263492 251.826701 178.926486 243.682022 193.422072 229.186436 
C 207.917659 214.690849 216.062338 195.027855 216.062338 174.528 
C 216.062338 154.028145 207.917659 134.365151 193.422072 119.869564 
C 178.926486 105.373978 159.263492 97.229299 138.763636 97.229299 
C 118.263781 97.229299 98.600787 105.373978 84.1052 119.869564 
C 69.609614 134.365151 61.464935 154.028145 61.464935 174.528 
C 61.464935 195.027855 69.609614 214.690849 84.1052 229.186436 
C 98.600787 243.682022 118.263781 251.826701 138.763636 251.826701 
z
" clip-path="url(#p8c79207824)" style="fill: #ffcdd2; stroke: #ffcdd2; stroke-linejoin: miter"/>
   </g>
   <g id="patch_4">
    <path d="M 151.880992 182.726347 
C 154.055219 182.726347 156.140688 181.862518 157.678099 180.325107 
C 159.215509 178.787696 160.079339 176.702227 160.079339 174.528 
C 160.079339 172.353773 159.215509 170.268304 157.678099 168.730893 
C 156.140688 167.193482 154.055219 166.329653 151.880992 166.329653 
C 149.706765 166.329653 147.621296 167.193482 146.083885 168.730893 
C 144.546474 170.268304 143.682645 172.353773 143.682645 174.528 
C 143.682645 176.702227 144.546474 178.787696 146.083885 180.325107 
C 147.621296 181.862518 149.706765 182.726347 151.880992 182.726347 
z
" clip-path="url(#p8c79207824)" style="fill: #bbdefb; stroke: #bbdefb; stroke-linejoin: miter"/>
   </g>
   <g id="matplotlib.axis_1">
    <g id="xtick_1">
     <g id="line2d_1">
      <defs>
       <path id="m714127567f" d="M 0 0 
L 0 3.5 
" style="stroke: #000000; stroke-width: 0.8"/>
      </defs>
      <g>
       <use xlink:href="#m714127567f" x="91.915939" y="307.584" style="stroke: #000000; stroke-width: 0.8"/>
      </g>
     </g>
     <g id="text_1">
      <!-- −20 -->
      <g transform="translate(81.363595 322.182437) scale(0.1 -0.1)">
       <defs>
        <path id="DejaVuSans-2212" d="M 678 2272 
L 4684 2272 
L 4684 1741 
L 678 1741 
L 678 2272 
z
" transform="scale(0.015625)"/>
        <path id="DejaVuSans-32" d="M 1228 531 
L 3431 531 
L 3431 0 
L 469 0 
L 469 531 
Q 828 903 1448 1529 
Q 2069 2156 2228 2338 
Q 2531 2678 2651 2914 
Q 2772 3150 2772 3378 
Q 2772 3750 2511 3984 
Q 2250 4219 1831 4219 
Q 1534 4219 1204 4116 
Q 875 4013 500 3803 
L 500 4441 
Q 881 4594 1212 4672 
Q 1544 4750 1819 4750 
Q 2544 4750 2975 4387 
Q 3406 4025 3406 3419 
Q 3406 3131 3298 2873 
Q 3191 2616 2906 2266 
Q 2828 2175 2409 1742 
Q 1991 1309 1228 531 
z
" transform="scale(0.015625)"/>
        <path id="DejaVuSans-30" d="M 2034 4250 
Q 1547 4250 1301 3770 
Q 1056 3291 1056 2328 
Q 1056 1369 1301 889 
Q 1547 409 2034 409 
Q 2525 409 2770 889 
Q 3016 1369 3016 2328 
Q 3016 3291 2770 3770 
Q 2525 4250 2034 4250 
z
M 2034 4750 
Q 2819 4750 3233 4129 
Q 3647 3509 3647 2328 
Q 3647 1150 3233 529 
Q 2819 -91 2034 -91 
Q 1250 -91 836 529 
Q 422 1150 422 2328 
Q 422 3509 836 4129 
Q 1250 4750 2034 4750 
z
" transform="scale(0.015625)"/>
       </defs>
       <use xlink:href="#DejaVuSans-2212"/>
       <use xlink:href="#DejaVuSans-32" x="83.789062"/>
       <use xlink:href="#DejaVuSans-30" x="147.412109"/>
      </g>
     </g>
    </g>
    <g id="xtick_2">
     <g id="line2d_2">
      <g>
       <use xlink:href="#m714127567f" x="138.763636" y="307.584" style="stroke: #000000; stroke-width: 0.8"/>
      </g>
     </g>
     <g id="text_2">
      <!-- 0 -->
      <g transform="translate(135.582386 322.182437) scale(0.1 -0.1)">
       <use xlink:href="#DejaVuSans-30"/>
      </g>
     </g>
    </g>
    <g id="xtick_3">
     <g id="line2d_3">
      <g>
       <use xlink:href="#m714127567f" x="185.611334" y="307.584" style="stroke: #000000; stroke-width: 0.8"/>
      </g>
     </g>
     <g id="text_3">
      <!-- 20 -->
      <g transform="translate(179.248834 322.182437) scale(0.1 -0.1)">
       <use xlink:href="#DejaVuSans-32"/>
       <use xlink:href="#DejaVuSans-30" x="63.623047"/>
      </g>
     </g>
    </g>
   </g>
   <g id="matplotlib.axis_2">
    <g id="ytick_1">
     <g id="line2d_4">
      <defs>
       <path id="mfbbd4a2503" d="M 0 0 
L -3.5 0 
" style="stroke: #000000; stroke-width: 0.8"/>
      </defs>
      <g>
       <use xlink:href="#mfbbd4a2503" x="57.6" y="268.223396" style="stroke: #000000; stroke-width: 0.8"/>
      </g>
     </g>
     <g id="text_4">
      <!-- −40 -->
      <g transform="translate(29.495313 272.022614) scale(0.1 -0.1)">
       <defs>
        <path id="DejaVuSans-34" d="M 2419 4116 
L 825 1625 
L 2419 1625 
L 2419 4116 
z
M 2253 4666 
L 3047 4666 
L 3047 1625 
L 3713 1625 
L 3713 1100 
L 3047 1100 
L 3047 0 
L 2419 0 
L 2419 1100 
L 313 1100 
L 313 1709 
L 2253 4666 
z
" transform="scale(0.015625)"/>
       </defs>
       <use xlink:href="#DejaVuSans-2212"/>
       <use xlink:href="#DejaVuSans-34" x="83.789062"/>
       <use xlink:href="#DejaVuSans-30" x="147.412109"/>
      </g>
     </g>
    </g>
    <g id="ytick_2">
     <g id="line2d_5">
      <g>
       <use xlink:href="#mfbbd4a2503" x="57.6" y="221.375698" style="stroke: #000000; stroke-width: 0.8"/>
      </g>
     </g>
     <g id="text_5">
      <!-- −20 -->
      <g transform="translate(29.495313 225.174917) scale(0.1 -0.1)">
       <use xlink:href="#DejaVuSans-2212"/>
       <use xlink:href="#DejaVuSans-32" x="83.789062"/>
       <use xlink:href="#DejaVuSans-30" x="147.412109"/>
      </g>
     </g>
    </g>
    <g id="ytick_3">
     <g id="line2d_6">
      <g>
       <use xlink:href="#mfbbd4a2503" x="57.6" y="174.528" style="stroke: #000000; stroke-width: 0.8"/>
      </g>
     </g>
     <g id="text_6">
      <!-- 0 -->
      <g transform="translate(44.2375 178.327219) scale(0.1 -0.1)">
       <use xlink:href="#DejaVuSans-30"/>
      </g>
     </g>
    </g>
    <g id="ytick_4">
     <g id="line2d_7">
      <g>
       <use xlink:href="#mfbbd4a2503" x="57.6" y="127.680302" style="stroke: #000000; stroke-width: 0.8"/>
      </g>
     </g>
     <g id="text_7">
      <!-- 20 -->
      <g transform="translate(37.875 131.479521) scale(0.1 -0.1)">
       <use xlink:href="#DejaVuSans-32"/>
       <use xlink:href="#DejaVuSans-30" x="63.623047"/>
      </g>
     </g>
    </g>
    <g id="ytick_5">
     <g id="line2d_8">
      <g>
       <use xlink:href="#mfbbd4a2503" x="57.6" y="80.832604" style="stroke: #000000; stroke-width: 0.8"/>
      </g>
     </g>
     <g id="text_8">
      <!-- 40 -->
      <g transform="translate(37.875 84.631823) scale(0.1 -0.1)">
       <use xlink:href="#DejaVuSans-34"/>
       <use xlink:href="#DejaVuSans-30" x="63.623047"/>
      </g>
     </g>
    </g>
   </g>
   <g id="LineCollection_1">
    <path d="M 61.464935 174.528 
L 74.814564 176.173496 
" clip-path="url(#p8c79207824)" style="fill: none; stroke: #4caf50; stroke-width: 3"/>
    <path d="M 74.814564 176.173496 
L 72.816731 192.381577 
" clip-path="url(#p8c79207824)" style="fill: none; stroke: #4caf50; stroke-width: 3"/>
    <path d="M 72.816731 192.381577 
L 78.742249 193.111966 
" clip-path="url(#p8c79207824)" style="fill: none; stroke: #4caf50; stroke-width: 3"/>
    <path d="M 78.742249 193.111966 
L 95.795525 185.724143 
" clip-path="url(#p8c79207824)" style="fill: none; stroke: #4caf50; stroke-width: 3"/>
    <path d="M 95.795525 185.724143 
L 101.214858 198.233562 
" clip-path="url(#p8c79207824)" style="fill: none; stroke: #4caf50; stroke-width: 3"/>
    <path d="M 101.214858 198.233562 
L 99.065501 199.164707 
" clip-path="url(#p8c79207824)" style="fill: none; stroke: #4caf50; stroke-width: 3"/>
    <path d="M 99.065501 199.164707 
L 102.875063 210.637562 
" clip-path="url(#p8c79207824)" style="fill: none; stroke: #4caf50; stroke-width: 3"/>
    <path d="M 102.875063 210.637562 
L 101.996427 212.808913 
" clip-path="url(#p8c79207824)" style="fill: none; stroke: #4caf50; stroke-width: 3"/>
    <path d="M 101.996427 212.808913 
L 107.497484 216.904728 
" clip-path="url(#p8c79207824)" style="fill: none; stroke: #4caf50; stroke-width: 3"/>
    <path d="M 107.497484 216.904728 
L 123.139847 222.503299 
" clip-path="url(#p8c79207824)" style="fill: none; stroke: #4caf50; stroke-width: 3"/>
    <path d="M 123.139847 222.503299 
L 134.407322 229.98591 
" clip-path="url(#p8c79207824)" style="fill: none; stroke: #4caf50; stroke-width: 3"/>
    <path d="M 134.407322 229.98591 
L 140.638288 229.04142 
" clip-path="url(#p8c79207824)" style="fill: none; stroke: #4caf50; stroke-width: 3"/>
    <path d="M 140.638288 229.04142 
L 156.922695 245.878723 
" clip-path="url(#p8c79207824)" style="fill: none; stroke: #4caf50; stroke-width: 3"/>
    <path d="M 156.922695 245.878723 
L 168.940844 235.108097 
" clip-path="url(#p8c79207824)" style="fill: none; stroke: #4caf50; stroke-width: 3"/>
    <path d="M 168.940844 235.108097 
L 175.751989 217.406998 
" clip-path="url(#p8c79207824)" style="fill: none; stroke: #4caf50; stroke-width: 3"/>
    <path d="M 175.751989 217.406998 
L 177.564547 205.651278 
" clip-path="url(#p8c79207824)" style="fill: none; stroke: #4caf50; stroke-width: 3"/>
    <path d="M 177.564547 205.651278 
L 175.079805 205.268168 
" clip-path="url(#p8c79207824)" style="fill: none; stroke: #4caf50; stroke-width: 3"/>
    <path d="M 175.079805 205.268168 
L 174.281599 210.4451 
" clip-path="url(#p8c79207824)" style="fill: none; stroke: #4caf50; stroke-width: 3"/>
    <path d="M 174.281599 210.4451 
L 162.393516 209.41519 
" clip-path="url(#p8c79207824)" style="fill: none; stroke: #4caf50; stroke-width: 3"/>
    <path d="M 162.393516 209.41519 
L 162.044713 213.441364 
" clip-path="url(#p8c79207824)" style="fill: none; stroke: #4caf50; stroke-width: 3"/>
    <path d="M 162.044713 213.441364 
L 159.415924 214.634316 
" clip-path="url(#p8c79207824)" style="fill: none; stroke: #4caf50; stroke-width: 3"/>
    <path d="M 159.415924 214.634316 
L 138.881158 203.364885 
" clip-path="url(#p8c79207824)" style="fill: none; stroke: #4caf50; stroke-width: 3"/>
    <path d="M 138.881158 203.364885 
L 128.193615 183.449291 
" clip-path="url(#p8c79207824)" style="fill: none; stroke: #4caf50; stroke-width: 3"/>
    <path d="M 128.193615 183.449291 
L 125.300511 183.393603 
" clip-path="url(#p8c79207824)" style="fill: none; stroke: #4caf50; stroke-width: 3"/>
    <path d="M 125.300511 183.393603 
L 106.721255 173.396658 
" clip-path="url(#p8c79207824)" style="fill: none; stroke: #4caf50; stroke-width: 3"/>
   </g>
   <g id="patch_5">
    <path d="M 57.6 307.584 
L 57.6 41.472 
" style="fill: none; stroke: #000000; stroke-width: 0.8; stroke-linejoin: miter; stroke-linecap: square"/>
   </g>
   <g id="patch_6">
    <path d="M 219.927273 307.584 
L 219.927273 41.472 
" style="fill: none; stroke: #000000; stroke-width: 0.8; stroke-linejoin: miter; stroke-linecap: square"/>
   </g>
   <g id="patch_7">
    <path d="M 57.6 307.584 
L 219.927273 307.584 
" style="fill: none; stroke: #000000; stroke-width: 0.8; stroke-linejoin: miter; stroke-linecap: square"/>
   </g>
   <g id="patch_8">
    <path d="M 57.6 41.472 
L 219.927273 41.472 
" style="fill: none; stroke: #000000; stroke-width: 0.8; stroke-linejoin: miter; stroke-linecap: square"/>
   </g>
  </g>
  <g id="axes_2">
   <g id="patch_9">
    <path d="M 414.72 174.528 
C 414.72 163.869689 412.620545 153.315017 408.541786 143.468021 
C 404.463027 133.621026 398.484285 124.673206 390.947721 117.136642 
C 383.411157 109.600078 374.463338 103.621337 364.616343 99.542578 
C 354.769347 95.463819 344.214675 93.364364 333.556364 93.364364 
C 322.898053 93.364364 312.34338 95.463819 302.496385 99.542578 
C 292.649389 103.621337 283.70157 109.600078 276.165006 117.136642 
C 268.628442 124.673206 262.6497 133.621026 258.570941 143.468021 
C 254.492182 153.315017 252.392727 163.869689 252.392727 174.528 
C 252.392727 185.186311 254.492182 195.740983 258.570941 205.587979 
C 262.6497 215.434974 268.628442 224.382794 276.165006 231.919358 
C 283.70157 239.455922 292.649389 245.434663 302.496385 249.513422 
C 312.34338 253.592181 322.898053 255.691636 333.556364 255.691636 
C 344.214675 255.691636 354.769347 253.592181 364.616343 249.513422 
C 374.463338 245.434663 383.411157 239.455922 390.947721 231.919358 
C 398.484285 224.382794 404.463027 215.434974 408.541786 205.587979 
C 412.620545 195.740983 414.72 185.186311 414.72 174.528 
M 333.556364 174.528 
C 333.556364 174.528 333.556364 174.528 333.556364 174.528 
C 333.556364 174.528 333.556364 174.528 333.556364 174.528 
C 333.556364 174.528 333.556364 174.528 333.556364 174.528 
C 333.556364 174.528 333.556364 174.528 333.556364 174.528 
C 333.556364 174.528 333.556364 174.528 333.556364 174.528 
C 333.556364 174.528 333.556364 174.528 333.556364 174.528 
C 333.556364 174.528 333.556364 174.528 333.556364 174.528 
C 333.556364 174.528 333.556364 174.528 333.556364 174.528 
C 333.556364 174.528 333.556364 174.528 333.556364 174.528 
C 333.556364 174.528 333.556364 174.528 333.556364 174.528 
C 333.556364 174.528 333.556364 174.528 333.556364 174.528 
C 333.556364 174.528 333.556364 174.528 333.556364 174.528 
C 333.556364 174.528 333.556364 174.528 333.556364 174.528 
C 333.556364 174.528 333.556364 174.528 333.556364 174.528 
C 333.556364 174.528 333.556364 174.528 333.556364 174.528 
C 333.556364 174.528 333.556364 174.528 333.556364 174.528 
z
" style="fill: #ffffff"/>
   </g>
   <g id="matplotlib.axis_3">
    <g id="xtick_4">
     <g id="line2d_9">
      <path d="M 333.556364 174.528 
L 414.72 174.528 
" clip-path="url(#pfe90e1e892)" style="fill: none; stroke: #b0b0b0; stroke-width: 0.8; stroke-linecap: square"/>
     </g>
     <g id="text_9">
      <!-- 0° -->
      <g transform="translate(423.03875 177.287375) scale(0.1 -0.1)">
       <defs>
        <path id="DejaVuSans-b0" d="M 1600 4347 
Q 1350 4347 1178 4173 
Q 1006 4000 1006 3750 
Q 1006 3503 1178 3333 
Q 1350 3163 1600 3163 
Q 1850 3163 2022 3333 
Q 2194 3503 2194 3750 
Q 2194 3997 2020 4172 
Q 1847 4347 1600 4347 
z
M 1600 4750 
Q 1800 4750 1984 4673 
Q 2169 4597 2303 4453 
Q 2447 4313 2519 4134 
Q 2591 3956 2591 3750 
Q 2591 3338 2302 3052 
Q 2013 2766 1594 2766 
Q 1172 2766 890 3047 
Q 609 3328 609 3750 
Q 609 4169 896 4459 
Q 1184 4750 1600 4750 
z
" transform="scale(0.015625)"/>
       </defs>
       <use xlink:href="#DejaVuSans-30"/>
       <use xlink:href="#DejaVuSans-b0" x="63.623047"/>
      </g>
     </g>
    </g>
    <g id="xtick_5">
     <g id="line2d_10">
      <path d="M 333.556364 174.528 
L 390.947721 117.136642 
" clip-path="url(#pfe90e1e892)" style="fill: none; stroke: #b0b0b0; stroke-width: 0.8; stroke-linecap: square"/>
     </g>
     <g id="text_10">
      <!-- 45° -->
      <g transform="translate(391.984716 109.996522) scale(0.1 -0.1)">
       <defs>
        <path id="DejaVuSans-35" d="M 691 4666 
L 3169 4666 
L 3169 4134 
L 1269 4134 
L 1269 2991 
Q 1406 3038 1543 3061 
Q 1681 3084 1819 3084 
Q 2600 3084 3056 2656 
Q 3513 2228 3513 1497 
Q 3513 744 3044 326 
Q 2575 -91 1722 -91 
Q 1428 -91 1123 -41 
Q 819 9 494 109 
L 494 744 
Q 775 591 1075 516 
Q 1375 441 1709 441 
Q 2250 441 2565 725 
Q 2881 1009 2881 1497 
Q 2881 1984 2565 2268 
Q 2250 2553 1709 2553 
Q 1456 2553 1204 2497 
Q 953 2441 691 2322 
L 691 4666 
z
" transform="scale(0.015625)"/>
       </defs>
       <use xlink:href="#DejaVuSans-34"/>
       <use xlink:href="#DejaVuSans-35" x="63.623047"/>
       <use xlink:href="#DejaVuSans-b0" x="127.246094"/>
      </g>
     </g>
    </g>
    <g id="xtick_6">
     <g id="line2d_11">
      <path d="M 333.556364 174.528 
L 333.556364 93.364364 
" clip-path="url(#pfe90e1e892)" style="fill: none; stroke: #b0b0b0; stroke-width: 0.8; stroke-linecap: square"/>
     </g>
     <g id="text_11">
      <!-- 90° -->
      <g transform="translate(324.693864 82.123739) scale(0.1 -0.1)">
       <defs>
        <path id="DejaVuSans-39" d="M 703 97 
L 703 672 
Q 941 559 1184 500 
Q 1428 441 1663 441 
Q 2288 441 2617 861 
Q 2947 1281 2994 2138 
Q 2813 1869 2534 1725 
Q 2256 1581 1919 1581 
Q 1219 1581 811 2004 
Q 403 2428 403 3163 
Q 403 3881 828 4315 
Q 1253 4750 1959 4750 
Q 2769 4750 3195 4129 
Q 3622 3509 3622 2328 
Q 3622 1225 3098 567 
Q 2575 -91 1691 -91 
Q 1453 -91 1209 -44 
Q 966 3 703 97 
z
M 1959 2075 
Q 2384 2075 2632 2365 
Q 2881 2656 2881 3163 
Q 2881 3666 2632 3958 
Q 2384 4250 1959 4250 
Q 1534 4250 1286 3958 
Q 1038 3666 1038 3163 
Q 1038 2656 1286 2365 
Q 1534 2075 1959 2075 
z
" transform="scale(0.015625)"/>
       </defs>
       <use xlink:href="#DejaVuSans-39"/>
       <use xlink:href="#DejaVuSans-30" x="63.623047"/>
       <use xlink:href="#DejaVuSans-b0" x="127.246094"/>
      </g>
     </g>
    </g>
    <g id="xtick_7">
     <g id="line2d_12">
      <path d="M 333.556364 174.528 
L 276.165006 117.136642 
" clip-path="url(#pfe90e1e892)" style="fill: none; stroke: #b0b0b0; stroke-width: 0.8; stroke-linecap: square"/>
     </g>
     <g id="text_12">
      <!-- 135° -->
      <g transform="translate(254.221761 109.996522) scale(0.1 -0.1)">
       <defs>
        <path id="DejaVuSans-31" d="M 794 531 
L 1825 531 
L 1825 4091 
L 703 3866 
L 703 4441 
L 1819 4666 
L 2450 4666 
L 2450 531 
L 3481 531 
L 3481 0 
L 794 0 
L 794 531 
z
" transform="scale(0.015625)"/>
        <path id="DejaVuSans-33" d="M 2597 2516 
Q 3050 2419 3304 2112 
Q 3559 1806 3559 1356 
Q 3559 666 3084 287 
Q 2609 -91 1734 -91 
Q 1441 -91 1130 -33 
Q 819 25 488 141 
L 488 750 
Q 750 597 1062 519 
Q 1375 441 1716 441 
Q 2309 441 2620 675 
Q 2931 909 2931 1356 
Q 2931 1769 2642 2001 
Q 2353 2234 1838 2234 
L 1294 2234 
L 1294 2753 
L 1863 2753 
Q 2328 2753 2575 2939 
Q 2822 3125 2822 3475 
Q 2822 3834 2567 4026 
Q 2313 4219 1838 4219 
Q 1578 4219 1281 4162 
Q 984 4106 628 3988 
L 628 4550 
Q 988 4650 1302 4700 
Q 1616 4750 1894 4750 
Q 2613 4750 3031 4423 
Q 3450 4097 3450 3541 
Q 3450 3153 3228 2886 
Q 3006 2619 2597 2516 
z
" transform="scale(0.015625)"/>
       </defs>
       <use xlink:href="#DejaVuSans-31"/>
       <use xlink:href="#DejaVuSans-33" x="63.623047"/>
       <use xlink:href="#DejaVuSans-35" x="127.246094"/>
       <use xlink:href="#DejaVuSans-b0" x="190.869141"/>
      </g>
     </g>
    </g>
    <g id="xtick_8">
     <g id="line2d_13">
      <path d="M 333.556364 174.528 
L 252.392727 174.528 
" clip-path="url(#pfe90e1e892)" style="fill: none; stroke: #b0b0b0; stroke-width: 0.8; stroke-linecap: square"/>
     </g>
     <g id="text_13">
      <!-- 180° -->
      <g transform="translate(226.348977 177.287375) scale(0.1 -0.1)">
       <defs>
        <path id="DejaVuSans-38" d="M 2034 2216 
Q 1584 2216 1326 1975 
Q 1069 1734 1069 1313 
Q 1069 891 1326 650 
Q 1584 409 2034 409 
Q 2484 409 2743 651 
Q 3003 894 3003 1313 
Q 3003 1734 2745 1975 
Q 2488 2216 2034 2216 
z
M 1403 2484 
Q 997 2584 770 2862 
Q 544 3141 544 3541 
Q 544 4100 942 4425 
Q 1341 4750 2034 4750 
Q 2731 4750 3128 4425 
Q 3525 4100 3525 3541 
Q 3525 3141 3298 2862 
Q 3072 2584 2669 2484 
Q 3125 2378 3379 2068 
Q 3634 1759 3634 1313 
Q 3634 634 3220 271 
Q 2806 -91 2034 -91 
Q 1263 -91 848 271 
Q 434 634 434 1313 
Q 434 1759 690 2068 
Q 947 2378 1403 2484 
z
M 1172 3481 
Q 1172 3119 1398 2916 
Q 1625 2713 2034 2713 
Q 2441 2713 2670 2916 
Q 2900 3119 2900 3481 
Q 2900 3844 2670 4047 
Q 2441 4250 2034 4250 
Q 1625 4250 1398 4047 
Q 1172 3844 1172 3481 
z
" transform="scale(0.015625)"/>
       </defs>
       <use xlink:href="#DejaVuSans-31"/>
       <use xlink:href="#DejaVuSans-38" x="63.623047"/>
       <use xlink:href="#DejaVuSans-30" x="127.246094"/>
       <use xlink:href="#DejaVuSans-b0" x="190.869141"/>
      </g>
     </g>
    </g>
    <g id="xtick_9">
     <g id="line2d_14">
      <path d="M 333.556364 174.528 
L 276.165006 231.919358 
" clip-path="url(#pfe90e1e892)" style="fill: none; stroke: #b0b0b0; stroke-width: 0.8; stroke-linecap: square"/>
     </g>
     <g id="text_14">
      <!-- 225° -->
      <g transform="translate(254.221761 244.578228) scale(0.1 -0.1)">
       <use xlink:href="#DejaVuSans-32"/>
       <use xlink:href="#DejaVuSans-32" x="63.623047"/>
       <use xlink:href="#DejaVuSans-35" x="127.246094"/>
       <use xlink:href="#DejaVuSans-b0" x="190.869141"/>
      </g>
     </g>
    </g>
    <g id="xtick_10">
     <g id="line2d_15">
      <path d="M 333.556364 174.528 
L 333.556364 255.691636 
" clip-path="url(#pfe90e1e892)" style="fill: none; stroke: #b0b0b0; stroke-width: 0.8; stroke-linecap: square"/>
     </g>
     <g id="text_15">
      <!-- 270° -->
      <g transform="translate(321.512614 272.451011) scale(0.1 -0.1)">
       <defs>
        <path id="DejaVuSans-37" d="M 525 4666 
L 3525 4666 
L 3525 4397 
L 1831 0 
L 1172 0 
L 2766 4134 
L 525 4134 
L 525 4666 
z
" transform="scale(0.015625)"/>
       </defs>
       <use xlink:href="#DejaVuSans-32"/>
       <use xlink:href="#DejaVuSans-37" x="63.623047"/>
       <use xlink:href="#DejaVuSans-30" x="127.246094"/>
       <use xlink:href="#DejaVuSans-b0" x="190.869141"/>
      </g>
     </g>
    </g>
    <g id="xtick_11">
     <g id="line2d_16">
      <path d="M 333.556364 174.528 
L 390.947721 231.919358 
" clip-path="url(#pfe90e1e892)" style="fill: none; stroke: #b0b0b0; stroke-width: 0.8; stroke-linecap: square"/>
     </g>
     <g id="text_16">
      <!-- 315° -->
      <g transform="translate(388.803466 244.578228) scale(0.1 -0.1)">
       <use xlink:href="#DejaVuSans-33"/>
       <use xlink:href="#DejaVuSans-31" x="63.623047"/>
       <use xlink:href="#DejaVuSans-35" x="127.246094"/>
       <use xlink:href="#DejaVuSans-b0" x="190.869141"/>
      </g>
     </g>
    </g>
   </g>
   <g id="matplotlib.axis_4">
    <g id="ytick_6">
     <g id="line2d_17">
      <path d="M 337.244889 174.528 
C 337.244889 174.043627 337.149478 173.563965 336.964116 173.116463 
C 336.778755 172.668961 336.507048 172.262322 336.164545 171.919819 
C 335.822041 171.577316 335.415403 171.305609 334.967901 171.120247 
C 334.520399 170.934886 334.040736 170.839475 333.556364 170.839475 
C 333.071991 170.839475 332.592328 170.934886 332.144826 171.120247 
C 331.697324 171.305609 331.290686 171.577316 330.948183 171.919819 
C 330.605679 172.262322 330.333972 172.668961 330.148611 173.116463 
C 329.96325 173.563965 329.867839 174.043627 329.867839 174.528 
C 329.867839 175.012373 329.96325 175.492035 330.148611 175.939537 
C 330.333972 176.387039 330.605679 176.793678 330.948183 177.136181 
C 331.290686 177.478684 331.697324 177.750391 332.144826 177.935753 
C 332.592328 178.121114 333.071991 178.216525 333.556364 178.216525 
C 334.040736 178.216525 334.520399 178.121114 334.967901 177.935753 
C 335.415403 177.750391 335.822041 177.478684 336.164545 177.136181 
C 336.507048 176.793678 336.778755 176.387039 336.964116 175.939537 
C 337.149478 175.492035 337.244889 175.012373 337.244889 174.528 
" clip-path="url(#pfe90e1e892)" style="fill: none; stroke: #b0b0b0; stroke-width: 0.8; stroke-linecap: square"/>
     </g>
     <g id="text_17">
      <!-- −1000 -->
      <g transform="translate(336.964116 171.036775) scale(0.1 -0.1)">
       <use xlink:href="#DejaVuSans-2212"/>
       <use xlink:href="#DejaVuSans-31" x="83.789062"/>
       <use xlink:href="#DejaVuSans-30" x="147.412109"/>
       <use xlink:href="#DejaVuSans-30" x="211.035156"/>
       <use xlink:href="#DejaVuSans-30" x="274.658203"/>
      </g>
     </g>
    </g>
    <g id="ytick_7">
     <g id="line2d_18">
      <path d="M 351.869439 174.528 
C 351.869439 172.123149 351.395736 169.741682 350.475439 167.519889 
C 349.555143 165.298097 348.20615 163.279187 346.505664 161.5787 
C 344.805177 159.878214 342.786267 158.529221 340.564474 157.608924 
C 338.342682 156.688628 335.961215 156.214924 333.556364 156.214924 
C 331.151513 156.214924 328.770046 156.688628 326.548253 157.608924 
C 324.32646 158.529221 322.30755 159.878214 320.607064 161.5787 
C 318.906577 163.279187 317.557585 165.298097 316.637288 167.519889 
C 315.716991 169.741682 315.243288 172.123149 315.243288 174.528 
C 315.243288 176.932851 315.716991 179.314318 316.637288 181.536111 
C 317.557585 183.757903 318.906577 185.776813 320.607064 187.4773 
C 322.30755 189.177786 324.32646 190.526779 326.548253 191.447076 
C 328.770046 192.367372 331.151513 192.841076 333.556364 192.841076 
C 335.961215 192.841076 338.342682 192.367372 340.564474 191.447076 
C 342.786267 190.526779 344.805177 189.177786 346.505664 187.4773 
C 348.20615 185.776813 349.555143 183.757903 350.475439 181.536111 
C 351.395736 179.314318 351.869439 176.932851 351.869439 174.528 
" clip-path="url(#pfe90e1e892)" style="fill: none; stroke: #b0b0b0; stroke-width: 0.8; stroke-linecap: square"/>
     </g>
     <g id="text_18">
      <!-- −800 -->
      <g transform="translate(350.475439 165.440202) scale(0.1 -0.1)">
       <use xlink:href="#DejaVuSans-2212"/>
       <use xlink:href="#DejaVuSans-38" x="83.789062"/>
       <use xlink:href="#DejaVuSans-30" x="147.412109"/>
       <use xlink:href="#DejaVuSans-30" x="211.035156"/>
      </g>
     </g>
    </g>
    <g id="ytick_8">
     <g id="line2d_19">
      <path d="M 366.49399 174.528 
C 366.49399 170.202671 365.641994 165.919399 363.986762 161.923316 
C 362.331531 157.927233 359.905252 154.296051 356.846783 151.237581 
C 353.788313 148.179111 350.157131 145.752833 346.161048 144.097601 
C 342.164964 142.442369 337.881693 141.590374 333.556364 141.590374 
C 329.231034 141.590374 324.947763 142.442369 320.95168 144.097601 
C 316.955596 145.752833 313.324415 148.179111 310.265945 151.237581 
C 307.207475 154.296051 304.781197 157.927233 303.125965 161.923316 
C 301.470733 165.919399 300.618737 170.202671 300.618737 174.528 
C 300.618737 178.853329 301.470733 183.136601 303.125965 187.132684 
C 304.781197 191.128767 307.207475 194.759949 310.265945 197.818419 
C 313.324415 200.876889 316.955596 203.303167 320.95168 204.958399 
C 324.947763 206.613631 329.231034 207.465626 333.556364 207.465626 
C 337.881693 207.465626 342.164964 206.613631 346.161048 204.958399 
C 350.157131 203.303167 353.788313 200.876889 356.846783 197.818419 
C 359.905252 194.759949 362.331531 191.128767 363.986762 187.132684 
C 365.641994 183.136601 366.49399 178.853329 366.49399 174.528 
" clip-path="url(#pfe90e1e892)" style="fill: none; stroke: #b0b0b0; stroke-width: 0.8; stroke-linecap: square"/>
     </g>
     <g id="text_19">
      <!-- −600 -->
      <g transform="translate(363.986762 159.843629) scale(0.1 -0.1)">
       <defs>
        <path id="DejaVuSans-36" d="M 2113 2584 
Q 1688 2584 1439 2293 
Q 1191 2003 1191 1497 
Q 1191 994 1439 701 
Q 1688 409 2113 409 
Q 2538 409 2786 701 
Q 3034 994 3034 1497 
Q 3034 2003 2786 2293 
Q 2538 2584 2113 2584 
z
M 3366 4563 
L 3366 3988 
Q 3128 4100 2886 4159 
Q 2644 4219 2406 4219 
Q 1781 4219 1451 3797 
Q 1122 3375 1075 2522 
Q 1259 2794 1537 2939 
Q 1816 3084 2150 3084 
Q 2853 3084 3261 2657 
Q 3669 2231 3669 1497 
Q 3669 778 3244 343 
Q 2819 -91 2113 -91 
Q 1303 -91 875 529 
Q 447 1150 447 2328 
Q 447 3434 972 4092 
Q 1497 4750 2381 4750 
Q 2619 4750 2861 4703 
Q 3103 4656 3366 4563 
z
" transform="scale(0.015625)"/>
       </defs>
       <use xlink:href="#DejaVuSans-2212"/>
       <use xlink:href="#DejaVuSans-36" x="83.789062"/>
       <use xlink:href="#DejaVuSans-30" x="147.412109"/>
       <use xlink:href="#DejaVuSans-30" x="211.035156"/>
      </g>
     </g>
    </g>
    <g id="ytick_9">
     <g id="line2d_20">
      <path d="M 381.118541 174.528 
C 381.118541 168.282192 379.888253 162.097117 377.498085 156.326743 
C 375.107918 150.556369 371.604355 145.312915 367.187901 140.896462 
C 362.771448 136.480009 357.527995 132.976445 351.757621 130.586278 
C 345.987247 128.196111 339.802171 126.965823 333.556364 126.965823 
C 327.310556 126.965823 321.125481 128.196111 315.355107 130.586278 
C 309.584732 132.976445 304.341279 136.480009 299.924826 140.896462 
C 295.508373 145.312915 292.004809 150.556369 289.614642 156.326743 
C 287.224475 162.097117 285.994187 168.282192 285.994187 174.528 
C 285.994187 180.773808 287.224475 186.958883 289.614642 192.729257 
C 292.004809 198.499631 295.508373 203.743085 299.924826 208.159538 
C 304.341279 212.575991 309.584732 216.079555 315.355107 218.469722 
C 321.125481 220.859889 327.310556 222.090177 333.556364 222.090177 
C 339.802171 222.090177 345.987247 220.859889 351.757621 218.469722 
C 357.527995 216.079555 362.771448 212.575991 367.187901 208.159538 
C 371.604355 203.743085 375.107918 198.499631 377.498085 192.729257 
C 379.888253 186.958883 381.118541 180.773808 381.118541 174.528 
" clip-path="url(#pfe90e1e892)" style="fill: none; stroke: #b0b0b0; stroke-width: 0.8; stroke-linecap: square"/>
     </g>
     <g id="text_20">
      <!-- −400 -->
      <g transform="translate(377.498085 154.247055) scale(0.1 -0.1)">
       <use xlink:href="#DejaVuSans-2212"/>
       <use xlink:href="#DejaVuSans-34" x="83.789062"/>
       <use xlink:href="#DejaVuSans-30" x="147.412109"/>
       <use xlink:href="#DejaVuSans-30" x="211.035156"/>
      </g>
     </g>
    </g>
    <g id="ytick_10">
     <g id="line2d_21">
      <path d="M 395.743091 174.528 
C 395.743091 166.361714 394.134511 158.274834 391.009408 150.73017 
C 387.884306 143.185505 383.303457 136.32978 377.52902 130.555343 
C 371.754584 124.780907 364.898859 120.200058 357.354194 117.074955 
C 349.809529 113.949853 341.72265 112.341272 333.556364 112.341272 
C 325.390077 112.341272 317.303198 113.949853 309.758533 117.074955 
C 302.213869 120.200058 295.358143 124.780907 289.583707 130.555343 
C 283.80927 136.32978 279.228421 143.185505 276.103319 150.73017 
C 272.978216 158.274834 271.369636 166.361714 271.369636 174.528 
C 271.369636 182.694286 272.978216 190.781166 276.103319 198.32583 
C 279.228421 205.870495 283.80927 212.72622 289.583707 218.500657 
C 295.358143 224.275093 302.213869 228.855942 309.758533 231.981045 
C 317.303198 235.106147 325.390077 236.714728 333.556364 236.714728 
C 341.72265 236.714728 349.809529 235.106147 357.354194 231.981045 
C 364.898859 228.855942 371.754584 224.275093 377.52902 218.500657 
C 383.303457 212.72622 387.884306 205.870495 391.009408 198.32583 
C 394.134511 190.781166 395.743091 182.694286 395.743091 174.528 
" clip-path="url(#pfe90e1e892)" style="fill: none; stroke: #b0b0b0; stroke-width: 0.8; stroke-linecap: square"/>
     </g>
     <g id="text_21">
      <!-- −200 -->
      <g transform="translate(391.009408 148.650482) scale(0.1 -0.1)">
       <use xlink:href="#DejaVuSans-2212"/>
       <use xlink:href="#DejaVuSans-32" x="83.789062"/>
       <use xlink:href="#DejaVuSans-30" x="147.412109"/>
       <use xlink:href="#DejaVuSans-30" x="211.035156"/>
      </g>
     </g>
    </g>
    <g id="ytick_11">
     <g id="line2d_22">
      <path d="M 410.367642 174.528 
C 410.367642 164.441235 408.380769 154.452552 404.520732 145.133596 
C 400.660694 135.814641 395.002559 127.346644 387.870139 120.214224 
C 380.73772 113.081805 372.269723 107.42367 362.950767 103.563632 
C 353.631812 99.703594 343.643128 97.716722 333.556364 97.716722 
C 323.469599 97.716722 313.480915 99.703594 304.16196 103.563632 
C 294.843005 107.42367 286.375008 113.081805 279.242588 120.214224 
C 272.110168 127.346644 266.452033 135.814641 262.591996 145.133596 
C 258.731958 154.452552 256.745085 164.441235 256.745085 174.528 
C 256.745085 184.614765 258.731958 194.603448 262.591996 203.922404 
C 266.452033 213.241359 272.110168 221.709356 279.242588 228.841776 
C 286.375008 235.974195 294.843005 241.63233 304.16196 245.492368 
C 313.480915 249.352406 323.469599 251.339278 333.556364 251.339278 
C 343.643128 251.339278 353.631812 249.352406 362.950767 245.492368 
C 372.269723 241.63233 380.73772 235.974195 387.870139 228.841776 
C 395.002559 221.709356 400.660694 213.241359 404.520732 203.922404 
C 408.380769 194.603448 410.367642 184.614765 410.367642 174.528 
" clip-path="url(#pfe90e1e892)" style="fill: none; stroke: #b0b0b0; stroke-width: 0.8; stroke-linecap: square"/>
     </g>
     <g id="text_22">
      <!-- 0 -->
      <g transform="translate(404.520732 143.053909) scale(0.1 -0.1)">
       <use xlink:href="#DejaVuSans-30"/>
      </g>
     </g>
    </g>
   </g>
   <g id="line2d_23">
    <path d="M 411.030744 174.528 
L 408.352037 154.487179 
L 400.508579 135.874499 
L 388.065829 120.02106 
L 371.926217 108.074205 
L 353.274295 100.951042 
L 333.556535 170.838744 
L 313.680152 100.332928 
L 295.154833 108.00511 
L 279.246362 120.21045 
L 267.038811 136.117225 
L 259.364055 154.641477 
" clip-path="url(#pfe90e1e892)" style="fill: none; stroke: #1f77b4; stroke-width: 1.5; stroke-linecap: square"/>
   </g>
   <g id="patch_10">
    <path d="M 414.72 174.528 
C 414.72 163.869689 412.620545 153.315017 408.541786 143.468021 
C 404.463027 133.621026 398.484285 124.673206 390.947721 117.136642 
C 383.411157 109.600078 374.463338 103.621337 364.616343 99.542578 
C 354.769347 95.463819 344.214675 93.364364 333.556364 93.364364 
C 322.898053 93.364364 312.34338 95.463819 302.496385 99.542578 
C 292.649389 103.621337 283.70157 109.600078 276.165006 117.136642 
C 268.628442 124.673206 262.6497 133.621026 258.570941 143.468021 
C 254.492182 153.315017 252.392727 163.869689 252.392727 174.528 
C 252.392727 185.186311 254.492182 195.740983 258.570941 205.587979 
C 262.6497 215.434974 268.628442 224.382794 276.165006 231.919358 
C 283.70157 239.455922 292.649389 245.434663 302.496385 249.513422 
C 312.34338 253.592181 322.898053 255.691636 333.556364 255.691636 
C 344.214675 255.691636 354.769347 253.592181 364.616343 249.513422 
C 374.463338 245.434663 383.411157 239.455922 390.947721 231.919358 
C 398.484285 224.382794 404.463027 215.434974 408.541786 205.587979 
C 412.620545 195.740983 414.72 185.186311 414.72 174.528 
" style="fill: none; stroke: #000000; stroke-width: 0.8; stroke-linejoin: miter; stroke-linecap: square"/>
   </g>
  </g>
 </g>
 <defs>
  <clipPath id="p8c79207824">
   <rect x="57.6" y="41.472" width="162.327273" height="266.112"/>
  </clipPath>
  <clipPath id="pfe90e1e892">
   <path d="M 414.72 174.528 
C 414.72 163.869689 412.620545 153.315017 408.541786 143.468021 
C 404.463027 133.621026 398.484285 124.673206 390.947721 117.136642 
C 383.411157 109.600078 374.463338 103.621337 364.616343 99.542578 
C 354.769347 95.463819 344.214675 93.364364 333.556364 93.364364 
C 322.898053 93.364364 312.34338 95.463819 302.496385 99.542578 
C 292.649389 103.621337 283.70157 109.600078 276.165006 117.136642 
C 268.628442 124.673206 262.6497 133.621026 258.570941 143.468021 
C 254.492182 153.315017 252.392727 163.869689 252.392727 174.528 
C 252.392727 185.186311 254.492182 195.740983 258.570941 205.587979 
C 262.6497 215.434974 268.628442 224.382794 276.165006 231.919358 
C 283.70157 239.455922 292.649389 245.434663 302.496385 249.513422 
C 312.34338 253.592181 322.898053 255.691636 333.556364 255.691636 
C 344.214675 255.691636 354.769347 253.592181 364.616343 249.513422 
C 374.463338 245.434663 383.411157 239.455922 390.947721 231.919358 
C 398.484285 224.382794 404.463027 215.434974 408.541786 205.587979 
C 412.620545 195.740983 414.72 185.186311 414.72 174.528 
M 333.556364 174.528 
C 333.556364 174.528 333.556364 174.528 333.556364 174.528 
C 333.556364 174.528 333.556364 174.528 333.556364 174.528 
C 333.556364 174.528 333.556364 174.528 333.556364 174.528 
C 333.556364 174.528 333.556364 174.528 333.556364 174.528 
C 333.556364 174.528 333.556364 174.528 333.556364 174.528 
C 333.556364 174.528 333.556364 174.528 333.556364 174.528 
C 333.556364 174.528 333.556364 174.528 333.556364 174.528 
C 333.556364 174.528 333.556364 174.528 333.556364 174.528 
C 333.556364 174.528 333.556364 174.528 333.556364 174.528 
C 333.556364 174.528 333.556364 174.528 333.556364 174.528 
C 333.556364 174.528 333.556364 174.528 333.556364 174.528 
C 333.556364 174.528 333.556364 174.528 333.556364 174.528 
C 333.556364 174.528 333.556364 174.528 333.556364 174.528 
C 333.556364 174.528 333.556364 174.528 333.556364 174.528 
C 333.556364 174.528 333.556364 174.528 333.556364 174.528 
C 333.556364 174.528 333.556364 174.528 333.556364 174.528 
z
"/>
  </clipPath>
 </defs>
</svg>
