<?xml version="1.0" encoding="utf-8" standalone="no"?>
<!DOCTYPE svg PUBLIC "-//W3C//DTD SVG 1.1//EN"
  "http://www.w3.org/Graphics/SVG/1.1/DTD/svg11.dtd">
<svg xmlns:xlink="http://www.w3.org/1999/xlink" width="460.8pt" height="345.6pt" viewBox="0 0 460.8 345.6" xmlns="http://www.w3.org/2000/svg" version="1.1">
 <metadata>
  <rdf:RDF xmlns:dc="http://purl.org/dc/elements/1.1/" xmlns:cc="http://creativecommons.org/ns#" xmlns:rdf="http://www.w3.org/1999/02/22-rdf-syntax-ns#">
   <cc:Work>
    <dc:type rdf:resource="http://purl.org/dc/dcmitype/StillImage"/>
    <dc:date>2023-05-12T14:16:12.724902</dc:date>
    <dc:format>image/svg+xml</dc:format>
    <dc:creator>
     <cc:Agent>
      <dc:title>Matplotlib v3.7.1, https://matplotlib.org/</dc:title>
     </cc:Agent>
    </dc:creator>
   </cc:Work>
  </rdf:RDF>
 </metadata>
 <defs>
  <style type="text/css">*{stroke-linejoin: round; stroke-linecap: butt}</style>
 </defs>
 <g id="figure_1">
  <g id="patch_1">
   <path d="M 0 345.6 
L 460.8 345.6 
L 460.8 0 
L 0 0 
z
" style="fill: #ffffff"/>
  </g>
  <g id="axes_1">
   <g id="patch_2">
    <path d="M 57.6 307.584 
L 219.927273 307.584 
L 219.927273 41.472 
L 57.6 41.472 
z
" style="fill: #ffffff"/>
   </g>
   <g id="patch_3">
    <path d="M 138.763636 251.826701 
C 159.263492 251.826701 178.926486 243.682022 193.422072 229.186436 
C 207.917659 214.690849 216.062338 195.027855 216.062338 174.528 
C 216.062338 154.028145 207.917659 134.365151 193.422072 119.869564 
C 178.926486 105.373978 159.263492 97.229299 138.763636 97.229299 
C 118.263781 97.229299 98.600787 105.373978 84.1052 119.869564 
C 69.609614 134.365151 61.464935 154.028145 61.464935 174.528 
C 61.464935 195.027855 69.609614 214.690849 84.1052 229.186436 
C 98.600787 243.682022 118.263781 251.826701 138.763636 251.826701 
z
" clip-path="url(#p2e2b1996f6)" style="fill: #ffcdd2; stroke: #ffcdd2; stroke-linejoin: miter"/>
   </g>
   <g id="patch_4">
    <path d="M 151.880992 182.726347 
C 154.055219 182.726347 156.140688 181.862518 157.678099 180.325107 
C 159.215509 178.787696 160.079339 176.702227 160.079339 174.528 
C 160.079339 172.353773 159.215509 170.268304 157.678099 168.730893 
C 156.140688 167.193482 154.055219 166.329653 151.880992 166.329653 
C 149.706765 166.329653 147.621296 167.193482 146.083885 168.730893 
C 144.546474 170.268304 143.682645 172.353773 143.682645 174.528 
C 143.682645 176.702227 144.546474 178.787696 146.083885 180.325107 
C 147.621296 181.862518 149.706765 182.726347 151.880992 182.726347 
z
" clip-path="url(#p2e2b1996f6)" style="stroke: #000000; stroke-linejoin: miter"/>
   </g>
   <g id="matplotlib.axis_1">
    <g id="xtick_1">
     <g id="line2d_1">
      <defs>
       <path id="maaca37cbf2" d="M 0 0 
L 0 3.5 
" style="stroke: #000000; stroke-width: 0.8"/>
      </defs>
      <g>
       <use xlink:href="#maaca37cbf2" x="91.915939" y="307.584" style="stroke: #000000; stroke-width: 0.8"/>
      </g>
     </g>
     <g id="text_1">
      <!-- −20 -->
      <g transform="translate(81.363595 322.182437) scale(0.1 -0.1)">
       <defs>
        <path id="DejaVuSans-2212" d="M 678 2272 
L 4684 2272 
L 4684 1741 
L 678 1741 
L 678 2272 
z
" transform="scale(0.015625)"/>
        <path id="DejaVuSans-32" d="M 1228 531 
L 3431 531 
L 3431 0 
L 469 0 
L 469 531 
Q 828 903 1448 1529 
Q 2069 2156 2228 2338 
Q 2531 2678 2651 2914 
Q 2772 3150 2772 3378 
Q 2772 3750 2511 3984 
Q 2250 4219 1831 4219 
Q 1534 4219 1204 4116 
Q 875 4013 500 3803 
L 500 4441 
Q 881 4594 1212 4672 
Q 1544 4750 1819 4750 
Q 2544 4750 2975 4387 
Q 3406 4025 3406 3419 
Q 3406 3131 3298 2873 
Q 3191 2616 2906 2266 
Q 2828 2175 2409 1742 
Q 1991 1309 1228 531 
z
" transform="scale(0.015625)"/>
        <path id="DejaVuSans-30" d="M 2034 4250 
Q 1547 4250 1301 3770 
Q 1056 3291 1056 2328 
Q 1056 1369 1301 889 
Q 1547 409 2034 409 
Q 2525 409 2770 889 
Q 3016 1369 3016 2328 
Q 3016 3291 2770 3770 
Q 2525 4250 2034 4250 
z
M 2034 4750 
Q 2819 4750 3233 4129 
Q 3647 3509 3647 2328 
Q 3647 1150 3233 529 
Q 2819 -91 2034 -91 
Q 1250 -91 836 529 
Q 422 1150 422 2328 
Q 422 3509 836 4129 
Q 1250 4750 2034 4750 
z
" transform="scale(0.015625)"/>
       </defs>
       <use xlink:href="#DejaVuSans-2212"/>
       <use xlink:href="#DejaVuSans-32" x="83.789062"/>
       <use xlink:href="#DejaVuSans-30" x="147.412109"/>
      </g>
     </g>
    </g>
    <g id="xtick_2">
     <g id="line2d_2">
      <g>
       <use xlink:href="#maaca37cbf2" x="138.763636" y="307.584" style="stroke: #000000; stroke-width: 0.8"/>
      </g>
     </g>
     <g id="text_2">
      <!-- 0 -->
      <g transform="translate(135.582386 322.182437) scale(0.1 -0.1)">
       <use xlink:href="#DejaVuSans-30"/>
      </g>
     </g>
    </g>
    <g id="xtick_3">
     <g id="line2d_3">
      <g>
       <use xlink:href="#maaca37cbf2" x="185.611334" y="307.584" style="stroke: #000000; stroke-width: 0.8"/>
      </g>
     </g>
     <g id="text_3">
      <!-- 20 -->
      <g transform="translate(179.248834 322.182437) scale(0.1 -0.1)">
       <use xlink:href="#DejaVuSans-32"/>
       <use xlink:href="#DejaVuSans-30" x="63.623047"/>
      </g>
     </g>
    </g>
   </g>
   <g id="matplotlib.axis_2">
    <g id="ytick_1">
     <g id="line2d_4">
      <defs>
       <path id="mdedc965d85" d="M 0 0 
L -3.5 0 
" style="stroke: #000000; stroke-width: 0.8"/>
      </defs>
      <g>
       <use xlink:href="#mdedc965d85" x="57.6" y="268.223396" style="stroke: #000000; stroke-width: 0.8"/>
      </g>
     </g>
     <g id="text_4">
      <!-- −40 -->
      <g transform="translate(29.495313 272.022614) scale(0.1 -0.1)">
       <defs>
        <path id="DejaVuSans-34" d="M 2419 4116 
L 825 1625 
L 2419 1625 
L 2419 4116 
z
M 2253 4666 
L 3047 4666 
L 3047 1625 
L 3713 1625 
L 3713 1100 
L 3047 1100 
L 3047 0 
L 2419 0 
L 2419 1100 
L 313 1100 
L 313 1709 
L 2253 4666 
z
" transform="scale(0.015625)"/>
       </defs>
       <use xlink:href="#DejaVuSans-2212"/>
       <use xlink:href="#DejaVuSans-34" x="83.789062"/>
       <use xlink:href="#DejaVuSans-30" x="147.412109"/>
      </g>
     </g>
    </g>
    <g id="ytick_2">
     <g id="line2d_5">
      <g>
       <use xlink:href="#mdedc965d85" x="57.6" y="221.375698" style="stroke: #000000; stroke-width: 0.8"/>
      </g>
     </g>
     <g id="text_5">
      <!-- −20 -->
      <g transform="translate(29.495313 225.174917) scale(0.1 -0.1)">
       <use xlink:href="#DejaVuSans-2212"/>
       <use xlink:href="#DejaVuSans-32" x="83.789062"/>
       <use xlink:href="#DejaVuSans-30" x="147.412109"/>
      </g>
     </g>
    </g>
    <g id="ytick_3">
     <g id="line2d_6">
      <g>
       <use xlink:href="#mdedc965d85" x="57.6" y="174.528" style="stroke: #000000; stroke-width: 0.8"/>
      </g>
     </g>
     <g id="text_6">
      <!-- 0 -->
      <g transform="translate(44.2375 178.327219) scale(0.1 -0.1)">
       <use xlink:href="#DejaVuSans-30"/>
      </g>
     </g>
    </g>
    <g id="ytick_4">
     <g id="line2d_7">
      <g>
       <use xlink:href="#mdedc965d85" x="57.6" y="127.680302" style="stroke: #000000; stroke-width: 0.8"/>
      </g>
     </g>
     <g id="text_7">
      <!-- 20 -->
      <g transform="translate(37.875 131.479521) scale(0.1 -0.1)">
       <use xlink:href="#DejaVuSans-32"/>
       <use xlink:href="#DejaVuSans-30" x="63.623047"/>
      </g>
     </g>
    </g>
    <g id="ytick_5">
     <g id="line2d_8">
      <g>
       <use xlink:href="#mdedc965d85" x="57.6" y="80.832604" style="stroke: #000000; stroke-width: 0.8"/>
      </g>
     </g>
     <g id="text_8">
      <!-- 40 -->
      <g transform="translate(37.875 84.631823) scale(0.1 -0.1)">
       <use xlink:href="#DejaVuSans-34"/>
       <use xlink:href="#DejaVuSans-30" x="63.623047"/>
      </g>
     </g>
    </g>
   </g>
   <g id="LineCollection_1">
    <path d="M 61.464935 174.528 
L 63.296339 173.067614 
" clip-path="url(#p2e2b1996f6)" style="fill: none; stroke: #4caf50; stroke-width: 3"/>
    <path d="M 63.296339 173.067614 
L 86.312962 177.416375 
" clip-path="url(#p2e2b1996f6)" style="fill: none; stroke: #4caf50; stroke-width: 3"/>
    <path d="M 86.312962 177.416375 
L 87.220611 172.612475 
" clip-path="url(#p2e2b1996f6)" style="fill: none; stroke: #4caf50; stroke-width: 3"/>
    <path d="M 87.220611 172.612475 
L 84.712548 157.671614 
" clip-path="url(#p2e2b1996f6)" style="fill: none; stroke: #4caf50; stroke-width: 3"/>
    <path d="M 84.712548 157.671614 
L 90.23746 146.416905 
" clip-path="url(#p2e2b1996f6)" style="fill: none; stroke: #4caf50; stroke-width: 3"/>
    <path d="M 90.23746 146.416905 
L 110.377582 146.889723 
" clip-path="url(#p2e2b1996f6)" style="fill: none; stroke: #4caf50; stroke-width: 3"/>
    <path d="M 110.377582 146.889723 
L 112.2834 148.648443 
" clip-path="url(#p2e2b1996f6)" style="fill: none; stroke: #4caf50; stroke-width: 3"/>
    <path d="M 112.2834 148.648443 
L 109.798731 154.440132 
" clip-path="url(#p2e2b1996f6)" style="fill: none; stroke: #4caf50; stroke-width: 3"/>
    <path d="M 109.798731 154.440132 
L 91.914218 168.928659 
" clip-path="url(#p2e2b1996f6)" style="fill: none; stroke: #4caf50; stroke-width: 3"/>
    <path d="M 91.914218 168.928659 
L 93.17974 171.455182 
" clip-path="url(#p2e2b1996f6)" style="fill: none; stroke: #4caf50; stroke-width: 3"/>
    <path d="M 93.17974 171.455182 
L 116.367931 171.705264 
" clip-path="url(#p2e2b1996f6)" style="fill: none; stroke: #4caf50; stroke-width: 3"/>
    <path d="M 116.367931 171.705264 
L 121.257195 173.413174 
" clip-path="url(#p2e2b1996f6)" style="fill: none; stroke: #4caf50; stroke-width: 3"/>
    <path d="M 121.257195 173.413174 
L 133.503507 185.873711 
" clip-path="url(#p2e2b1996f6)" style="fill: none; stroke: #4caf50; stroke-width: 3"/>
    <path d="M 133.503507 185.873711 
L 141.009425 193.744564 
" clip-path="url(#p2e2b1996f6)" style="fill: none; stroke: #4caf50; stroke-width: 3"/>
    <path d="M 141.009425 193.744564 
L 149.438631 207.566011 
" clip-path="url(#p2e2b1996f6)" style="fill: none; stroke: #4caf50; stroke-width: 3"/>
    <path d="M 149.438631 207.566011 
L 153.294733 212.996819 
" clip-path="url(#p2e2b1996f6)" style="fill: none; stroke: #4caf50; stroke-width: 3"/>
    <path d="M 153.294733 212.996819 
L 155.153413 221.149693 
" clip-path="url(#p2e2b1996f6)" style="fill: none; stroke: #4caf50; stroke-width: 3"/>
    <path d="M 155.153413 221.149693 
L 164.70325 224.294014 
" clip-path="url(#p2e2b1996f6)" style="fill: none; stroke: #4caf50; stroke-width: 3"/>
    <path d="M 164.70325 224.294014 
L 170.182794 213.698908 
" clip-path="url(#p2e2b1996f6)" style="fill: none; stroke: #4caf50; stroke-width: 3"/>
    <path d="M 170.182794 213.698908 
L 175.363461 206.593213 
" clip-path="url(#p2e2b1996f6)" style="fill: none; stroke: #4caf50; stroke-width: 3"/>
   </g>
   <g id="patch_5">
    <path d="M 57.6 307.584 
L 57.6 41.472 
" style="fill: none; stroke: #000000; stroke-width: 0.8; stroke-linejoin: miter; stroke-linecap: square"/>
   </g>
   <g id="patch_6">
    <path d="M 219.927273 307.584 
L 219.927273 41.472 
" style="fill: none; stroke: #000000; stroke-width: 0.8; stroke-linejoin: miter; stroke-linecap: square"/>
   </g>
   <g id="patch_7">
    <path d="M 57.6 307.584 
L 219.927273 307.584 
" style="fill: none; stroke: #000000; stroke-width: 0.8; stroke-linejoin: miter; stroke-linecap: square"/>
   </g>
   <g id="patch_8">
    <path d="M 57.6 41.472 
L 219.927273 41.472 
" style="fill: none; stroke: #000000; stroke-width: 0.8; stroke-linejoin: miter; stroke-linecap: square"/>
   </g>
  </g>
  <g id="axes_2">
   <g id="patch_9">
    <path d="M 414.72 174.528 
C 414.72 163.869689 412.620545 153.315017 408.541786 143.468021 
C 404.463027 133.621026 398.484285 124.673206 390.947721 117.136642 
C 383.411157 109.600078 374.463338 103.621337 364.616343 99.542578 
C 354.769347 95.463819 344.214675 93.364364 333.556364 93.364364 
C 322.898053 93.364364 312.34338 95.463819 302.496385 99.542578 
C 292.649389 103.621337 283.70157 109.600078 276.165006 117.136642 
C 268.628442 124.673206 262.6497 133.621026 258.570941 143.468021 
C 254.492182 153.315017 252.392727 163.869689 252.392727 174.528 
C 252.392727 185.186311 254.492182 195.740983 258.570941 205.587979 
C 262.6497 215.434974 268.628442 224.382794 276.165006 231.919358 
C 283.70157 239.455922 292.649389 245.434663 302.496385 249.513422 
C 312.34338 253.592181 322.898053 255.691636 333.556364 255.691636 
C 344.214675 255.691636 354.769347 253.592181 364.616343 249.513422 
C 374.463338 245.434663 383.411157 239.455922 390.947721 231.919358 
C 398.484285 224.382794 404.463027 215.434974 408.541786 205.587979 
C 412.620545 195.740983 414.72 185.186311 414.72 174.528 
M 333.556364 174.528 
C 333.556364 174.528 333.556364 174.528 333.556364 174.528 
C 333.556364 174.528 333.556364 174.528 333.556364 174.528 
C 333.556364 174.528 333.556364 174.528 333.556364 174.528 
C 333.556364 174.528 333.556364 174.528 333.556364 174.528 
C 333.556364 174.528 333.556364 174.528 333.556364 174.528 
C 333.556364 174.528 333.556364 174.528 333.556364 174.528 
C 333.556364 174.528 333.556364 174.528 333.556364 174.528 
C 333.556364 174.528 333.556364 174.528 333.556364 174.528 
C 333.556364 174.528 333.556364 174.528 333.556364 174.528 
C 333.556364 174.528 333.556364 174.528 333.556364 174.528 
C 333.556364 174.528 333.556364 174.528 333.556364 174.528 
C 333.556364 174.528 333.556364 174.528 333.556364 174.528 
C 333.556364 174.528 333.556364 174.528 333.556364 174.528 
C 333.556364 174.528 333.556364 174.528 333.556364 174.528 
C 333.556364 174.528 333.556364 174.528 333.556364 174.528 
C 333.556364 174.528 333.556364 174.528 333.556364 174.528 
z
" style="fill: #ffffff"/>
   </g>
   <g id="matplotlib.axis_3">
    <g id="xtick_4">
     <g id="line2d_9">
      <path d="M 333.556364 174.528 
L 414.72 174.528 
" clip-path="url(#p66de135e4f)" style="fill: none; stroke: #b0b0b0; stroke-width: 0.8; stroke-linecap: square"/>
     </g>
     <g id="text_9">
      <!-- 0° -->
      <g transform="translate(423.03875 177.287375) scale(0.1 -0.1)">
       <defs>
        <path id="DejaVuSans-b0" d="M 1600 4347 
Q 1350 4347 1178 4173 
Q 1006 4000 1006 3750 
Q 1006 3503 1178 3333 
Q 1350 3163 1600 3163 
Q 1850 3163 2022 3333 
Q 2194 3503 2194 3750 
Q 2194 3997 2020 4172 
Q 1847 4347 1600 4347 
z
M 1600 4750 
Q 1800 4750 1984 4673 
Q 2169 4597 2303 4453 
Q 2447 4313 2519 4134 
Q 2591 3956 2591 3750 
Q 2591 3338 2302 3052 
Q 2013 2766 1594 2766 
Q 1172 2766 890 3047 
Q 609 3328 609 3750 
Q 609 4169 896 4459 
Q 1184 4750 1600 4750 
z
" transform="scale(0.015625)"/>
       </defs>
       <use xlink:href="#DejaVuSans-30"/>
       <use xlink:href="#DejaVuSans-b0" x="63.623047"/>
      </g>
     </g>
    </g>
    <g id="xtick_5">
     <g id="line2d_10">
      <path d="M 333.556364 174.528 
L 390.947721 117.136642 
" clip-path="url(#p66de135e4f)" style="fill: none; stroke: #b0b0b0; stroke-width: 0.8; stroke-linecap: square"/>
     </g>
     <g id="text_10">
      <!-- 45° -->
      <g transform="translate(391.984716 109.996522) scale(0.1 -0.1)">
       <defs>
        <path id="DejaVuSans-35" d="M 691 4666 
L 3169 4666 
L 3169 4134 
L 1269 4134 
L 1269 2991 
Q 1406 3038 1543 3061 
Q 1681 3084 1819 3084 
Q 2600 3084 3056 2656 
Q 3513 2228 3513 1497 
Q 3513 744 3044 326 
Q 2575 -91 1722 -91 
Q 1428 -91 1123 -41 
Q 819 9 494 109 
L 494 744 
Q 775 591 1075 516 
Q 1375 441 1709 441 
Q 2250 441 2565 725 
Q 2881 1009 2881 1497 
Q 2881 1984 2565 2268 
Q 2250 2553 1709 2553 
Q 1456 2553 1204 2497 
Q 953 2441 691 2322 
L 691 4666 
z
" transform="scale(0.015625)"/>
       </defs>
       <use xlink:href="#DejaVuSans-34"/>
       <use xlink:href="#DejaVuSans-35" x="63.623047"/>
       <use xlink:href="#DejaVuSans-b0" x="127.246094"/>
      </g>
     </g>
    </g>
    <g id="xtick_6">
     <g id="line2d_11">
      <path d="M 333.556364 174.528 
L 333.556364 93.364364 
" clip-path="url(#p66de135e4f)" style="fill: none; stroke: #b0b0b0; stroke-width: 0.8; stroke-linecap: square"/>
     </g>
     <g id="text_11">
      <!-- 90° -->
      <g transform="translate(324.693864 82.123739) scale(0.1 -0.1)">
       <defs>
        <path id="DejaVuSans-39" d="M 703 97 
L 703 672 
Q 941 559 1184 500 
Q 1428 441 1663 441 
Q 2288 441 2617 861 
Q 2947 1281 2994 2138 
Q 2813 1869 2534 1725 
Q 2256 1581 1919 1581 
Q 1219 1581 811 2004 
Q 403 2428 403 3163 
Q 403 3881 828 4315 
Q 1253 4750 1959 4750 
Q 2769 4750 3195 4129 
Q 3622 3509 3622 2328 
Q 3622 1225 3098 567 
Q 2575 -91 1691 -91 
Q 1453 -91 1209 -44 
Q 966 3 703 97 
z
M 1959 2075 
Q 2384 2075 2632 2365 
Q 2881 2656 2881 3163 
Q 2881 3666 2632 3958 
Q 2384 4250 1959 4250 
Q 1534 4250 1286 3958 
Q 1038 3666 1038 3163 
Q 1038 2656 1286 2365 
Q 1534 2075 1959 2075 
z
" transform="scale(0.015625)"/>
       </defs>
       <use xlink:href="#DejaVuSans-39"/>
       <use xlink:href="#DejaVuSans-30" x="63.623047"/>
       <use xlink:href="#DejaVuSans-b0" x="127.246094"/>
      </g>
     </g>
    </g>
    <g id="xtick_7">
     <g id="line2d_12">
      <path d="M 333.556364 174.528 
L 276.165006 117.136642 
" clip-path="url(#p66de135e4f)" style="fill: none; stroke: #b0b0b0; stroke-width: 0.8; stroke-linecap: square"/>
     </g>
     <g id="text_12">
      <!-- 135° -->
      <g transform="translate(254.221761 109.996522) scale(0.1 -0.1)">
       <defs>
        <path id="DejaVuSans-31" d="M 794 531 
L 1825 531 
L 1825 4091 
L 703 3866 
L 703 4441 
L 1819 4666 
L 2450 4666 
L 2450 531 
L 3481 531 
L 3481 0 
L 794 0 
L 794 531 
z
" transform="scale(0.015625)"/>
        <path id="DejaVuSans-33" d="M 2597 2516 
Q 3050 2419 3304 2112 
Q 3559 1806 3559 1356 
Q 3559 666 3084 287 
Q 2609 -91 1734 -91 
Q 1441 -91 1130 -33 
Q 819 25 488 141 
L 488 750 
Q 750 597 1062 519 
Q 1375 441 1716 441 
Q 2309 441 2620 675 
Q 2931 909 2931 1356 
Q 2931 1769 2642 2001 
Q 2353 2234 1838 2234 
L 1294 2234 
L 1294 2753 
L 1863 2753 
Q 2328 2753 2575 2939 
Q 2822 3125 2822 3475 
Q 2822 3834 2567 4026 
Q 2313 4219 1838 4219 
Q 1578 4219 1281 4162 
Q 984 4106 628 3988 
L 628 4550 
Q 988 4650 1302 4700 
Q 1616 4750 1894 4750 
Q 2613 4750 3031 4423 
Q 3450 4097 3450 3541 
Q 3450 3153 3228 2886 
Q 3006 2619 2597 2516 
z
" transform="scale(0.015625)"/>
       </defs>
       <use xlink:href="#DejaVuSans-31"/>
       <use xlink:href="#DejaVuSans-33" x="63.623047"/>
       <use xlink:href="#DejaVuSans-35" x="127.246094"/>
       <use xlink:href="#DejaVuSans-b0" x="190.869141"/>
      </g>
     </g>
    </g>
    <g id="xtick_8">
     <g id="line2d_13">
      <path d="M 333.556364 174.528 
L 252.392727 174.528 
" clip-path="url(#p66de135e4f)" style="fill: none; stroke: #b0b0b0; stroke-width: 0.8; stroke-linecap: square"/>
     </g>
     <g id="text_13">
      <!-- 180° -->
      <g transform="translate(226.348977 177.287375) scale(0.1 -0.1)">
       <defs>
        <path id="DejaVuSans-38" d="M 2034 2216 
Q 1584 2216 1326 1975 
Q 1069 1734 1069 1313 
Q 1069 891 1326 650 
Q 1584 409 2034 409 
Q 2484 409 2743 651 
Q 3003 894 3003 1313 
Q 3003 1734 2745 1975 
Q 2488 2216 2034 2216 
z
M 1403 2484 
Q 997 2584 770 2862 
Q 544 3141 544 3541 
Q 544 4100 942 4425 
Q 1341 4750 2034 4750 
Q 2731 4750 3128 4425 
Q 3525 4100 3525 3541 
Q 3525 3141 3298 2862 
Q 3072 2584 2669 2484 
Q 3125 2378 3379 2068 
Q 3634 1759 3634 1313 
Q 3634 634 3220 271 
Q 2806 -91 2034 -91 
Q 1263 -91 848 271 
Q 434 634 434 1313 
Q 434 1759 690 2068 
Q 947 2378 1403 2484 
z
M 1172 3481 
Q 1172 3119 1398 2916 
Q 1625 2713 2034 2713 
Q 2441 2713 2670 2916 
Q 2900 3119 2900 3481 
Q 2900 3844 2670 4047 
Q 2441 4250 2034 4250 
Q 1625 4250 1398 4047 
Q 1172 3844 1172 3481 
z
" transform="scale(0.015625)"/>
       </defs>
       <use xlink:href="#DejaVuSans-31"/>
       <use xlink:href="#DejaVuSans-38" x="63.623047"/>
       <use xlink:href="#DejaVuSans-30" x="127.246094"/>
       <use xlink:href="#DejaVuSans-b0" x="190.869141"/>
      </g>
     </g>
    </g>
    <g id="xtick_9">
     <g id="line2d_14">
      <path d="M 333.556364 174.528 
L 276.165006 231.919358 
" clip-path="url(#p66de135e4f)" style="fill: none; stroke: #b0b0b0; stroke-width: 0.8; stroke-linecap: square"/>
     </g>
     <g id="text_14">
      <!-- 225° -->
      <g transform="translate(254.221761 244.578228) scale(0.1 -0.1)">
       <use xlink:href="#DejaVuSans-32"/>
       <use xlink:href="#DejaVuSans-32" x="63.623047"/>
       <use xlink:href="#DejaVuSans-35" x="127.246094"/>
       <use xlink:href="#DejaVuSans-b0" x="190.869141"/>
      </g>
     </g>
    </g>
    <g id="xtick_10">
     <g id="line2d_15">
      <path d="M 333.556364 174.528 
L 333.556364 255.691636 
" clip-path="url(#p66de135e4f)" style="fill: none; stroke: #b0b0b0; stroke-width: 0.8; stroke-linecap: square"/>
     </g>
     <g id="text_15">
      <!-- 270° -->
      <g transform="translate(321.512614 272.451011) scale(0.1 -0.1)">
       <defs>
        <path id="DejaVuSans-37" d="M 525 4666 
L 3525 4666 
L 3525 4397 
L 1831 0 
L 1172 0 
L 2766 4134 
L 525 4134 
L 525 4666 
z
" transform="scale(0.015625)"/>
       </defs>
       <use xlink:href="#DejaVuSans-32"/>
       <use xlink:href="#DejaVuSans-37" x="63.623047"/>
       <use xlink:href="#DejaVuSans-30" x="127.246094"/>
       <use xlink:href="#DejaVuSans-b0" x="190.869141"/>
      </g>
     </g>
    </g>
    <g id="xtick_11">
     <g id="line2d_16">
      <path d="M 333.556364 174.528 
L 390.947721 231.919358 
" clip-path="url(#p66de135e4f)" style="fill: none; stroke: #b0b0b0; stroke-width: 0.8; stroke-linecap: square"/>
     </g>
     <g id="text_16">
      <!-- 315° -->
      <g transform="translate(388.803466 244.578228) scale(0.1 -0.1)">
       <use xlink:href="#DejaVuSans-33"/>
       <use xlink:href="#DejaVuSans-31" x="63.623047"/>
       <use xlink:href="#DejaVuSans-35" x="127.246094"/>
       <use xlink:href="#DejaVuSans-b0" x="190.869141"/>
      </g>
     </g>
    </g>
   </g>
   <g id="matplotlib.axis_4">
    <g id="ytick_6">
     <g id="line2d_17">
      <path d="M 337.24489 174.528 
C 337.24489 174.043627 337.149479 173.563964 336.964118 173.116462 
C 336.778756 172.66896 336.507049 172.262321 336.164546 171.919818 
C 335.822042 171.577315 335.415404 171.305608 334.967902 171.120246 
C 334.520399 170.934885 334.040736 170.839474 333.556364 170.839474 
C 333.071991 170.839474 332.592328 170.934885 332.144826 171.120246 
C 331.697324 171.305608 331.290685 171.577315 330.948182 171.919818 
C 330.605678 172.262321 330.333971 172.66896 330.14861 173.116462 
C 329.963248 173.563964 329.867837 174.043627 329.867837 174.528 
C 329.867837 175.012373 329.963248 175.492036 330.14861 175.939538 
C 330.333971 176.38704 330.605678 176.793679 330.948182 177.136182 
C 331.290685 177.478685 331.697324 177.750392 332.144826 177.935754 
C 332.592328 178.121115 333.071991 178.216526 333.556364 178.216526 
C 334.040736 178.216526 334.520399 178.121115 334.967902 177.935754 
C 335.415404 177.750392 335.822042 177.478685 336.164546 177.136182 
C 336.507049 176.793679 336.778756 176.38704 336.964118 175.939538 
C 337.149479 175.492036 337.24489 175.012373 337.24489 174.528 
" clip-path="url(#p66de135e4f)" style="fill: none; stroke: #b0b0b0; stroke-width: 0.8; stroke-linecap: square"/>
     </g>
     <g id="text_17">
      <!-- −1000 -->
      <g transform="translate(336.964118 171.036775) scale(0.1 -0.1)">
       <use xlink:href="#DejaVuSans-2212"/>
       <use xlink:href="#DejaVuSans-31" x="83.789062"/>
       <use xlink:href="#DejaVuSans-30" x="147.412109"/>
       <use xlink:href="#DejaVuSans-30" x="211.035156"/>
       <use xlink:href="#DejaVuSans-30" x="274.658203"/>
      </g>
     </g>
    </g>
    <g id="ytick_7">
     <g id="line2d_18">
      <path d="M 351.843714 174.528 
C 351.843714 172.126527 351.370677 169.748406 350.451673 167.529734 
C 349.532669 165.311062 348.185571 163.294988 346.487473 161.59689 
C 344.789376 159.898793 342.773301 158.551695 340.55463 157.632691 
C 338.335958 156.713687 335.957837 156.240649 333.556364 156.240649 
C 331.154891 156.240649 328.776769 156.713687 326.558098 157.632691 
C 324.339426 158.551695 322.323352 159.898793 320.625254 161.59689 
C 318.927156 163.294988 317.580059 165.311062 316.661055 167.529734 
C 315.742051 169.748406 315.269013 172.126527 315.269013 174.528 
C 315.269013 176.929473 315.742051 179.307594 316.661055 181.526266 
C 317.580059 183.744938 318.927156 185.761012 320.625254 187.45911 
C 322.323352 189.157207 324.339426 190.504305 326.558098 191.423309 
C 328.776769 192.342313 331.154891 192.815351 333.556364 192.815351 
C 335.957837 192.815351 338.335958 192.342313 340.55463 191.423309 
C 342.773301 190.504305 344.789376 189.157207 346.487473 187.45911 
C 348.185571 185.761012 349.532669 183.744938 350.451673 181.526266 
C 351.370677 179.307594 351.843714 176.929473 351.843714 174.528 
" clip-path="url(#p66de135e4f)" style="fill: none; stroke: #b0b0b0; stroke-width: 0.8; stroke-linecap: square"/>
     </g>
     <g id="text_18">
      <!-- −800 -->
      <g transform="translate(350.451673 165.450046) scale(0.1 -0.1)">
       <use xlink:href="#DejaVuSans-2212"/>
       <use xlink:href="#DejaVuSans-38" x="83.789062"/>
       <use xlink:href="#DejaVuSans-30" x="147.412109"/>
       <use xlink:href="#DejaVuSans-30" x="211.035156"/>
      </g>
     </g>
    </g>
    <g id="ytick_8">
     <g id="line2d_19">
      <path d="M 366.442539 174.528 
C 366.442539 170.209427 365.591874 165.932847 363.939228 161.943006 
C 362.286581 157.953164 359.864093 154.327655 356.810401 151.273963 
C 353.756709 148.22027 350.131199 145.797782 346.141358 144.145136 
C 342.151517 142.49249 337.874937 141.641825 333.556364 141.641825 
C 329.237791 141.641825 324.96121 142.49249 320.971369 144.145136 
C 316.981528 145.797782 313.356018 148.22027 310.302326 151.273963 
C 307.248634 154.327655 304.826146 157.953164 303.1735 161.943006 
C 301.520853 165.932847 300.670189 170.209427 300.670189 174.528 
C 300.670189 178.846573 301.520853 183.123153 303.1735 187.112994 
C 304.826146 191.102836 307.248634 194.728345 310.302326 197.782037 
C 313.356018 200.83573 316.981528 203.258218 320.971369 204.910864 
C 324.96121 206.56351 329.237791 207.414175 333.556364 207.414175 
C 337.874937 207.414175 342.151517 206.56351 346.141358 204.910864 
C 350.131199 203.258218 353.756709 200.83573 356.810401 197.782037 
C 359.864093 194.728345 362.286581 191.102836 363.939228 187.112994 
C 365.591874 183.123153 366.442539 178.846573 366.442539 174.528 
" clip-path="url(#p66de135e4f)" style="fill: none; stroke: #b0b0b0; stroke-width: 0.8; stroke-linecap: square"/>
     </g>
     <g id="text_19">
      <!-- −600 -->
      <g transform="translate(363.939228 159.863318) scale(0.1 -0.1)">
       <defs>
        <path id="DejaVuSans-36" d="M 2113 2584 
Q 1688 2584 1439 2293 
Q 1191 2003 1191 1497 
Q 1191 994 1439 701 
Q 1688 409 2113 409 
Q 2538 409 2786 701 
Q 3034 994 3034 1497 
Q 3034 2003 2786 2293 
Q 2538 2584 2113 2584 
z
M 3366 4563 
L 3366 3988 
Q 3128 4100 2886 4159 
Q 2644 4219 2406 4219 
Q 1781 4219 1451 3797 
Q 1122 3375 1075 2522 
Q 1259 2794 1537 2939 
Q 1816 3084 2150 3084 
Q 2853 3084 3261 2657 
Q 3669 2231 3669 1497 
Q 3669 778 3244 343 
Q 2819 -91 2113 -91 
Q 1303 -91 875 529 
Q 447 1150 447 2328 
Q 447 3434 972 4092 
Q 1497 4750 2381 4750 
Q 2619 4750 2861 4703 
Q 3103 4656 3366 4563 
z
" transform="scale(0.015625)"/>
       </defs>
       <use xlink:href="#DejaVuSans-2212"/>
       <use xlink:href="#DejaVuSans-36" x="83.789062"/>
       <use xlink:href="#DejaVuSans-30" x="147.412109"/>
       <use xlink:href="#DejaVuSans-30" x="211.035156"/>
      </g>
     </g>
    </g>
    <g id="ytick_9">
     <g id="line2d_20">
      <path d="M 381.041363 174.528 
C 381.041363 168.292327 379.813072 162.117288 377.426783 156.356277 
C 375.040494 150.595267 371.542615 145.360321 367.133329 140.951035 
C 362.724042 136.541748 357.489097 133.04387 351.728086 130.657581 
C 345.967076 128.271292 339.792037 127.043 333.556364 127.043 
C 327.320691 127.043 321.145652 128.271292 315.384641 130.657581 
C 309.62363 133.04387 304.388685 136.541748 299.979398 140.951035 
C 295.570112 145.360321 292.072233 150.595267 289.685944 156.356277 
C 287.299656 162.117288 286.071364 168.292327 286.071364 174.528 
C 286.071364 180.763673 287.299656 186.938712 289.685944 192.699723 
C 292.072233 198.460733 295.570112 203.695679 299.979398 208.104965 
C 304.388685 212.514252 309.62363 216.01213 315.384641 218.398419 
C 321.145652 220.784708 327.320691 222.013 333.556364 222.013 
C 339.792037 222.013 345.967076 220.784708 351.728086 218.398419 
C 357.489097 216.01213 362.724042 212.514252 367.133329 208.104965 
C 371.542615 203.695679 375.040494 198.460733 377.426783 192.699723 
C 379.813072 186.938712 381.041363 180.763673 381.041363 174.528 
" clip-path="url(#p66de135e4f)" style="fill: none; stroke: #b0b0b0; stroke-width: 0.8; stroke-linecap: square"/>
     </g>
     <g id="text_20">
      <!-- −400 -->
      <g transform="translate(377.426783 154.27659) scale(0.1 -0.1)">
       <use xlink:href="#DejaVuSans-2212"/>
       <use xlink:href="#DejaVuSans-34" x="83.789062"/>
       <use xlink:href="#DejaVuSans-30" x="147.412109"/>
       <use xlink:href="#DejaVuSans-30" x="211.035156"/>
      </g>
     </g>
    </g>
    <g id="ytick_10">
     <g id="line2d_21">
      <path d="M 395.640188 174.528 
C 395.640188 166.375227 394.034269 158.301729 390.914338 150.769549 
C 387.794407 143.237369 383.221138 136.392988 377.456257 130.628107 
C 371.691375 124.863226 364.846995 120.289957 357.314814 117.170026 
C 349.782634 114.050095 341.709137 112.444176 333.556364 112.444176 
C 325.403591 112.444176 317.330093 114.050095 309.797913 117.170026 
C 302.265733 120.289957 295.421352 124.863226 289.656471 130.628107 
C 283.89159 136.392988 279.318321 143.237369 276.198389 150.769549 
C 273.078458 158.301729 271.47254 166.375227 271.47254 174.528 
C 271.47254 182.680773 273.078458 190.754271 276.198389 198.286451 
C 279.318321 205.818631 283.89159 212.663012 289.656471 218.427893 
C 295.421352 224.192774 302.265733 228.766043 309.797913 231.885974 
C 317.330093 235.005905 325.403591 236.611824 333.556364 236.611824 
C 341.709137 236.611824 349.782634 235.005905 357.314814 231.885974 
C 364.846995 228.766043 371.691375 224.192774 377.456257 218.427893 
C 383.221138 212.663012 387.794407 205.818631 390.914338 198.286451 
C 394.034269 190.754271 395.640188 182.680773 395.640188 174.528 
" clip-path="url(#p66de135e4f)" style="fill: none; stroke: #b0b0b0; stroke-width: 0.8; stroke-linecap: square"/>
     </g>
     <g id="text_21">
      <!-- −200 -->
      <g transform="translate(390.914338 148.689862) scale(0.1 -0.1)">
       <use xlink:href="#DejaVuSans-2212"/>
       <use xlink:href="#DejaVuSans-32" x="83.789062"/>
       <use xlink:href="#DejaVuSans-30" x="147.412109"/>
       <use xlink:href="#DejaVuSans-30" x="211.035156"/>
      </g>
     </g>
    </g>
    <g id="ytick_11">
     <g id="line2d_22">
      <path d="M 410.239012 174.528 
C 410.239012 164.458127 408.255467 154.486171 404.401893 145.182821 
C 400.548319 135.879471 394.89966 127.425655 387.779184 120.305179 
C 380.658709 113.184704 372.204892 107.536044 362.901543 103.682471 
C 353.598193 99.828897 343.626237 97.845352 333.556364 97.845352 
C 323.486491 97.845352 313.514534 99.828897 304.211185 103.682471 
C 294.907835 107.536044 286.454019 113.184704 279.333543 120.305179 
C 272.213067 127.425655 266.564408 135.879471 262.710834 145.182821 
C 258.857261 154.486171 256.873715 164.458127 256.873715 174.528 
C 256.873715 184.597873 258.857261 194.569829 262.710834 203.873179 
C 266.564408 213.176529 272.213067 221.630345 279.333543 228.750821 
C 286.454019 235.871296 294.907835 241.519956 304.211185 245.373529 
C 313.514534 249.227103 323.486491 251.210648 333.556364 251.210648 
C 343.626237 251.210648 353.598193 249.227103 362.901543 245.373529 
C 372.204892 241.519956 380.658709 235.871296 387.779184 228.750821 
C 394.89966 221.630345 400.548319 213.176529 404.401893 203.873179 
C 408.255467 194.569829 410.239012 184.597873 410.239012 174.528 
" clip-path="url(#p66de135e4f)" style="fill: none; stroke: #b0b0b0; stroke-width: 0.8; stroke-linecap: square"/>
     </g>
     <g id="text_22">
      <!-- 0 -->
      <g transform="translate(404.401893 143.103133) scale(0.1 -0.1)">
       <use xlink:href="#DejaVuSans-30"/>
      </g>
     </g>
    </g>
   </g>
   <g id="line2d_23">
    <path d="M 411.030744 174.528 
L 408.348824 154.488039 
L 400.495598 135.881993 
L 388.036293 120.050594 
L 371.874611 108.163582 
L 353.210069 101.190699 
L 333.556535 170.838744 
L 313.713437 100.457177 
L 295.219142 108.11651 
L 279.337311 120.301411 
L 267.150203 136.181548 
L 259.417794 154.655881 
" clip-path="url(#p66de135e4f)" style="fill: none; stroke: #1f77b4; stroke-width: 1.5; stroke-linecap: square"/>
   </g>
   <g id="patch_10">
    <path d="M 414.72 174.528 
C 414.72 163.869689 412.620545 153.315017 408.541786 143.468021 
C 404.463027 133.621026 398.484285 124.673206 390.947721 117.136642 
C 383.411157 109.600078 374.463338 103.621337 364.616343 99.542578 
C 354.769347 95.463819 344.214675 93.364364 333.556364 93.364364 
C 322.898053 93.364364 312.34338 95.463819 302.496385 99.542578 
C 292.649389 103.621337 283.70157 109.600078 276.165006 117.136642 
C 268.628442 124.673206 262.6497 133.621026 258.570941 143.468021 
C 254.492182 153.315017 252.392727 163.869689 252.392727 174.528 
C 252.392727 185.186311 254.492182 195.740983 258.570941 205.587979 
C 262.6497 215.434974 268.628442 224.382794 276.165006 231.919358 
C 283.70157 239.455922 292.649389 245.434663 302.496385 249.513422 
C 312.34338 253.592181 322.898053 255.691636 333.556364 255.691636 
C 344.214675 255.691636 354.769347 253.592181 364.616343 249.513422 
C 374.463338 245.434663 383.411157 239.455922 390.947721 231.919358 
C 398.484285 224.382794 404.463027 215.434974 408.541786 205.587979 
C 412.620545 195.740983 414.72 185.186311 414.72 174.528 
" style="fill: none; stroke: #000000; stroke-width: 0.8; stroke-linejoin: miter; stroke-linecap: square"/>
   </g>
  </g>
 </g>
 <defs>
  <clipPath id="p2e2b1996f6">
   <rect x="57.6" y="41.472" width="162.327273" height="266.112"/>
  </clipPath>
  <clipPath id="p66de135e4f">
   <path d="M 414.72 174.528 
C 414.72 163.869689 412.620545 153.315017 408.541786 143.468021 
C 404.463027 133.621026 398.484285 124.673206 390.947721 117.136642 
C 383.411157 109.600078 374.463338 103.621337 364.616343 99.542578 
C 354.769347 95.463819 344.214675 93.364364 333.556364 93.364364 
C 322.898053 93.364364 312.34338 95.463819 302.496385 99.542578 
C 292.649389 103.621337 283.70157 109.600078 276.165006 117.136642 
C 268.628442 124.673206 262.6497 133.621026 258.570941 143.468021 
C 254.492182 153.315017 252.392727 163.869689 252.392727 174.528 
C 252.392727 185.186311 254.492182 195.740983 258.570941 205.587979 
C 262.6497 215.434974 268.628442 224.382794 276.165006 231.919358 
C 283.70157 239.455922 292.649389 245.434663 302.496385 249.513422 
C 312.34338 253.592181 322.898053 255.691636 333.556364 255.691636 
C 344.214675 255.691636 354.769347 253.592181 364.616343 249.513422 
C 374.463338 245.434663 383.411157 239.455922 390.947721 231.919358 
C 398.484285 224.382794 404.463027 215.434974 408.541786 205.587979 
C 412.620545 195.740983 414.72 185.186311 414.72 174.528 
M 333.556364 174.528 
C 333.556364 174.528 333.556364 174.528 333.556364 174.528 
C 333.556364 174.528 333.556364 174.528 333.556364 174.528 
C 333.556364 174.528 333.556364 174.528 333.556364 174.528 
C 333.556364 174.528 333.556364 174.528 333.556364 174.528 
C 333.556364 174.528 333.556364 174.528 333.556364 174.528 
C 333.556364 174.528 333.556364 174.528 333.556364 174.528 
C 333.556364 174.528 333.556364 174.528 333.556364 174.528 
C 333.556364 174.528 333.556364 174.528 333.556364 174.528 
C 333.556364 174.528 333.556364 174.528 333.556364 174.528 
C 333.556364 174.528 333.556364 174.528 333.556364 174.528 
C 333.556364 174.528 333.556364 174.528 333.556364 174.528 
C 333.556364 174.528 333.556364 174.528 333.556364 174.528 
C 333.556364 174.528 333.556364 174.528 333.556364 174.528 
C 333.556364 174.528 333.556364 174.528 333.556364 174.528 
C 333.556364 174.528 333.556364 174.528 333.556364 174.528 
C 333.556364 174.528 333.556364 174.528 333.556364 174.528 
z
"/>
  </clipPath>
 </defs>
</svg>
