<?xml version="1.0" encoding="utf-8" standalone="no"?>
<!DOCTYPE svg PUBLIC "-//W3C//DTD SVG 1.1//EN"
  "http://www.w3.org/Graphics/SVG/1.1/DTD/svg11.dtd">
<svg xmlns:xlink="http://www.w3.org/1999/xlink" width="460.8pt" height="345.6pt" viewBox="0 0 460.8 345.6" xmlns="http://www.w3.org/2000/svg" version="1.1">
 <metadata>
  <rdf:RDF xmlns:dc="http://purl.org/dc/elements/1.1/" xmlns:cc="http://creativecommons.org/ns#" xmlns:rdf="http://www.w3.org/1999/02/22-rdf-syntax-ns#">
   <cc:Work>
    <dc:type rdf:resource="http://purl.org/dc/dcmitype/StillImage"/>
    <dc:date>2023-05-12T13:52:17.086448</dc:date>
    <dc:format>image/svg+xml</dc:format>
    <dc:creator>
     <cc:Agent>
      <dc:title>Matplotlib v3.7.1, https://matplotlib.org/</dc:title>
     </cc:Agent>
    </dc:creator>
   </cc:Work>
  </rdf:RDF>
 </metadata>
 <defs>
  <style type="text/css">*{stroke-linejoin: round; stroke-linecap: butt}</style>
 </defs>
 <g id="figure_1">
  <g id="patch_1">
   <path d="M 0 345.6 
L 460.8 345.6 
L 460.8 0 
L 0 0 
z
" style="fill: #ffffff"/>
  </g>
  <g id="axes_1">
   <g id="patch_2">
    <path d="M 57.6 307.584 
L 219.927273 307.584 
L 219.927273 41.472 
L 57.6 41.472 
z
" style="fill: #ffffff"/>
   </g>
   <g id="patch_3">
    <path d="M 138.763636 251.826701 
C 159.263492 251.826701 178.926486 243.682022 193.422072 229.186436 
C 207.917659 214.690849 216.062338 195.027855 216.062338 174.528 
C 216.062338 154.028145 207.917659 134.365151 193.422072 119.869564 
C 178.926486 105.373978 159.263492 97.229299 138.763636 97.229299 
C 118.263781 97.229299 98.600787 105.373978 84.1052 119.869564 
C 69.609614 134.365151 61.464935 154.028145 61.464935 174.528 
C 61.464935 195.027855 69.609614 214.690849 84.1052 229.186436 
C 98.600787 243.682022 118.263781 251.826701 138.763636 251.826701 
z
" clip-path="url(#pfe078b550e)" style="fill: #ffcdd2; stroke: #ffcdd2; stroke-linejoin: miter"/>
   </g>
   <g id="patch_4">
    <path d="M 151.880992 182.726347 
C 154.055219 182.726347 156.140688 181.862518 157.678099 180.325107 
C 159.215509 178.787696 160.079339 176.702227 160.079339 174.528 
C 160.079339 172.353773 159.215509 170.268304 157.678099 168.730893 
C 156.140688 167.193482 154.055219 166.329653 151.880992 166.329653 
C 149.706765 166.329653 147.621296 167.193482 146.083885 168.730893 
C 144.546474 170.268304 143.682645 172.353773 143.682645 174.528 
C 143.682645 176.702227 144.546474 178.787696 146.083885 180.325107 
C 147.621296 181.862518 149.706765 182.726347 151.880992 182.726347 
z
" clip-path="url(#pfe078b550e)" style="stroke: #000000; stroke-linejoin: miter"/>
   </g>
   <g id="matplotlib.axis_1">
    <g id="xtick_1">
     <g id="line2d_1">
      <defs>
       <path id="m0cbc39e8e1" d="M 0 0 
L 0 3.5 
" style="stroke: #000000; stroke-width: 0.8"/>
      </defs>
      <g>
       <use xlink:href="#m0cbc39e8e1" x="91.915939" y="307.584" style="stroke: #000000; stroke-width: 0.8"/>
      </g>
     </g>
     <g id="text_1">
      <!-- −20 -->
      <g transform="translate(81.363595 322.182437) scale(0.1 -0.1)">
       <defs>
        <path id="DejaVuSans-2212" d="M 678 2272 
L 4684 2272 
L 4684 1741 
L 678 1741 
L 678 2272 
z
" transform="scale(0.015625)"/>
        <path id="DejaVuSans-32" d="M 1228 531 
L 3431 531 
L 3431 0 
L 469 0 
L 469 531 
Q 828 903 1448 1529 
Q 2069 2156 2228 2338 
Q 2531 2678 2651 2914 
Q 2772 3150 2772 3378 
Q 2772 3750 2511 3984 
Q 2250 4219 1831 4219 
Q 1534 4219 1204 4116 
Q 875 4013 500 3803 
L 500 4441 
Q 881 4594 1212 4672 
Q 1544 4750 1819 4750 
Q 2544 4750 2975 4387 
Q 3406 4025 3406 3419 
Q 3406 3131 3298 2873 
Q 3191 2616 2906 2266 
Q 2828 2175 2409 1742 
Q 1991 1309 1228 531 
z
" transform="scale(0.015625)"/>
        <path id="DejaVuSans-30" d="M 2034 4250 
Q 1547 4250 1301 3770 
Q 1056 3291 1056 2328 
Q 1056 1369 1301 889 
Q 1547 409 2034 409 
Q 2525 409 2770 889 
Q 3016 1369 3016 2328 
Q 3016 3291 2770 3770 
Q 2525 4250 2034 4250 
z
M 2034 4750 
Q 2819 4750 3233 4129 
Q 3647 3509 3647 2328 
Q 3647 1150 3233 529 
Q 2819 -91 2034 -91 
Q 1250 -91 836 529 
Q 422 1150 422 2328 
Q 422 3509 836 4129 
Q 1250 4750 2034 4750 
z
" transform="scale(0.015625)"/>
       </defs>
       <use xlink:href="#DejaVuSans-2212"/>
       <use xlink:href="#DejaVuSans-32" x="83.789062"/>
       <use xlink:href="#DejaVuSans-30" x="147.412109"/>
      </g>
     </g>
    </g>
    <g id="xtick_2">
     <g id="line2d_2">
      <g>
       <use xlink:href="#m0cbc39e8e1" x="138.763636" y="307.584" style="stroke: #000000; stroke-width: 0.8"/>
      </g>
     </g>
     <g id="text_2">
      <!-- 0 -->
      <g transform="translate(135.582386 322.182437) scale(0.1 -0.1)">
       <use xlink:href="#DejaVuSans-30"/>
      </g>
     </g>
    </g>
    <g id="xtick_3">
     <g id="line2d_3">
      <g>
       <use xlink:href="#m0cbc39e8e1" x="185.611334" y="307.584" style="stroke: #000000; stroke-width: 0.8"/>
      </g>
     </g>
     <g id="text_3">
      <!-- 20 -->
      <g transform="translate(179.248834 322.182437) scale(0.1 -0.1)">
       <use xlink:href="#DejaVuSans-32"/>
       <use xlink:href="#DejaVuSans-30" x="63.623047"/>
      </g>
     </g>
    </g>
   </g>
   <g id="matplotlib.axis_2">
    <g id="ytick_1">
     <g id="line2d_4">
      <defs>
       <path id="m653156a1c8" d="M 0 0 
L -3.5 0 
" style="stroke: #000000; stroke-width: 0.8"/>
      </defs>
      <g>
       <use xlink:href="#m653156a1c8" x="57.6" y="268.223396" style="stroke: #000000; stroke-width: 0.8"/>
      </g>
     </g>
     <g id="text_4">
      <!-- −40 -->
      <g transform="translate(29.495313 272.022614) scale(0.1 -0.1)">
       <defs>
        <path id="DejaVuSans-34" d="M 2419 4116 
L 825 1625 
L 2419 1625 
L 2419 4116 
z
M 2253 4666 
L 3047 4666 
L 3047 1625 
L 3713 1625 
L 3713 1100 
L 3047 1100 
L 3047 0 
L 2419 0 
L 2419 1100 
L 313 1100 
L 313 1709 
L 2253 4666 
z
" transform="scale(0.015625)"/>
       </defs>
       <use xlink:href="#DejaVuSans-2212"/>
       <use xlink:href="#DejaVuSans-34" x="83.789062"/>
       <use xlink:href="#DejaVuSans-30" x="147.412109"/>
      </g>
     </g>
    </g>
    <g id="ytick_2">
     <g id="line2d_5">
      <g>
       <use xlink:href="#m653156a1c8" x="57.6" y="221.375698" style="stroke: #000000; stroke-width: 0.8"/>
      </g>
     </g>
     <g id="text_5">
      <!-- −20 -->
      <g transform="translate(29.495313 225.174917) scale(0.1 -0.1)">
       <use xlink:href="#DejaVuSans-2212"/>
       <use xlink:href="#DejaVuSans-32" x="83.789062"/>
       <use xlink:href="#DejaVuSans-30" x="147.412109"/>
      </g>
     </g>
    </g>
    <g id="ytick_3">
     <g id="line2d_6">
      <g>
       <use xlink:href="#m653156a1c8" x="57.6" y="174.528" style="stroke: #000000; stroke-width: 0.8"/>
      </g>
     </g>
     <g id="text_6">
      <!-- 0 -->
      <g transform="translate(44.2375 178.327219) scale(0.1 -0.1)">
       <use xlink:href="#DejaVuSans-30"/>
      </g>
     </g>
    </g>
    <g id="ytick_4">
     <g id="line2d_7">
      <g>
       <use xlink:href="#m653156a1c8" x="57.6" y="127.680302" style="stroke: #000000; stroke-width: 0.8"/>
      </g>
     </g>
     <g id="text_7">
      <!-- 20 -->
      <g transform="translate(37.875 131.479521) scale(0.1 -0.1)">
       <use xlink:href="#DejaVuSans-32"/>
       <use xlink:href="#DejaVuSans-30" x="63.623047"/>
      </g>
     </g>
    </g>
    <g id="ytick_5">
     <g id="line2d_8">
      <g>
       <use xlink:href="#m653156a1c8" x="57.6" y="80.832604" style="stroke: #000000; stroke-width: 0.8"/>
      </g>
     </g>
     <g id="text_8">
      <!-- 40 -->
      <g transform="translate(37.875 84.631823) scale(0.1 -0.1)">
       <use xlink:href="#DejaVuSans-34"/>
       <use xlink:href="#DejaVuSans-30" x="63.623047"/>
      </g>
     </g>
    </g>
   </g>
   <g id="LineCollection_1">
    <path d="M 61.464935 174.528 
L 63.79222 174.262458 
" clip-path="url(#pfe078b550e)" style="fill: none; stroke: #4caf50; stroke-width: 3"/>
    <path d="M 63.79222 174.262458 
L 66.447637 197.535306 
" clip-path="url(#pfe078b550e)" style="fill: none; stroke: #4caf50; stroke-width: 3"/>
    <path d="M 66.447637 197.535306 
L 75.568242 197.586011 
" clip-path="url(#pfe078b550e)" style="fill: none; stroke: #4caf50; stroke-width: 3"/>
    <path d="M 75.568242 197.586011 
L 87.728045 183.596824 
" clip-path="url(#pfe078b550e)" style="fill: none; stroke: #4caf50; stroke-width: 3"/>
    <path d="M 87.728045 183.596824 
L 88.090265 181.282614 
" clip-path="url(#pfe078b550e)" style="fill: none; stroke: #4caf50; stroke-width: 3"/>
    <path d="M 88.090265 181.282614 
L 88.982596 179.116855 
" clip-path="url(#pfe078b550e)" style="fill: none; stroke: #4caf50; stroke-width: 3"/>
    <path d="M 88.982596 179.116855 
L 91.324565 179.160975 
" clip-path="url(#pfe078b550e)" style="fill: none; stroke: #4caf50; stroke-width: 3"/>
    <path d="M 91.324565 179.160975 
L 98.983994 184.785611 
" clip-path="url(#pfe078b550e)" style="fill: none; stroke: #4caf50; stroke-width: 3"/>
    <path d="M 98.983994 184.785611 
L 118.428587 185.138379 
" clip-path="url(#pfe078b550e)" style="fill: none; stroke: #4caf50; stroke-width: 3"/>
    <path d="M 118.428587 185.138379 
L 121.391721 181.271603 
" clip-path="url(#pfe078b550e)" style="fill: none; stroke: #4caf50; stroke-width: 3"/>
    <path d="M 121.391721 181.271603 
L 131.359259 181.25802 
" clip-path="url(#pfe078b550e)" style="fill: none; stroke: #4caf50; stroke-width: 3"/>
    <path d="M 131.359259 181.25802 
L 132.262268 191.702683 
" clip-path="url(#pfe078b550e)" style="fill: none; stroke: #4caf50; stroke-width: 3"/>
    <path d="M 132.262268 191.702683 
L 139.595877 199.141033 
" clip-path="url(#pfe078b550e)" style="fill: none; stroke: #4caf50; stroke-width: 3"/>
    <path d="M 139.595877 199.141033 
L 139.189418 213.633085 
" clip-path="url(#pfe078b550e)" style="fill: none; stroke: #4caf50; stroke-width: 3"/>
    <path d="M 139.189418 213.633085 
L 130.792623 219.236463 
" clip-path="url(#pfe078b550e)" style="fill: none; stroke: #4caf50; stroke-width: 3"/>
    <path d="M 130.792623 219.236463 
L 117.234263 203.063252 
" clip-path="url(#pfe078b550e)" style="fill: none; stroke: #4caf50; stroke-width: 3"/>
    <path d="M 117.234263 203.063252 
L 106.787166 189.509915 
" clip-path="url(#pfe078b550e)" style="fill: none; stroke: #4caf50; stroke-width: 3"/>
    <path d="M 106.787166 189.509915 
L 103.702213 190.012342 
" clip-path="url(#pfe078b550e)" style="fill: none; stroke: #4caf50; stroke-width: 3"/>
    <path d="M 103.702213 190.012342 
L 97.897098 190.253522 
" clip-path="url(#pfe078b550e)" style="fill: none; stroke: #4caf50; stroke-width: 3"/>
    <path d="M 97.897098 190.253522 
L 95.48893 195.576084 
" clip-path="url(#pfe078b550e)" style="fill: none; stroke: #4caf50; stroke-width: 3"/>
   </g>
   <g id="patch_5">
    <path d="M 57.6 307.584 
L 57.6 41.472 
" style="fill: none; stroke: #000000; stroke-width: 0.8; stroke-linejoin: miter; stroke-linecap: square"/>
   </g>
   <g id="patch_6">
    <path d="M 219.927273 307.584 
L 219.927273 41.472 
" style="fill: none; stroke: #000000; stroke-width: 0.8; stroke-linejoin: miter; stroke-linecap: square"/>
   </g>
   <g id="patch_7">
    <path d="M 57.6 307.584 
L 219.927273 307.584 
" style="fill: none; stroke: #000000; stroke-width: 0.8; stroke-linejoin: miter; stroke-linecap: square"/>
   </g>
   <g id="patch_8">
    <path d="M 57.6 41.472 
L 219.927273 41.472 
" style="fill: none; stroke: #000000; stroke-width: 0.8; stroke-linejoin: miter; stroke-linecap: square"/>
   </g>
  </g>
  <g id="axes_2">
   <g id="patch_9">
    <path d="M 414.72 174.528 
C 414.72 163.869689 412.620545 153.315017 408.541786 143.468021 
C 404.463027 133.621026 398.484285 124.673206 390.947721 117.136642 
C 383.411157 109.600078 374.463338 103.621337 364.616343 99.542578 
C 354.769347 95.463819 344.214675 93.364364 333.556364 93.364364 
C 322.898053 93.364364 312.34338 95.463819 302.496385 99.542578 
C 292.649389 103.621337 283.70157 109.600078 276.165006 117.136642 
C 268.628442 124.673206 262.6497 133.621026 258.570941 143.468021 
C 254.492182 153.315017 252.392727 163.869689 252.392727 174.528 
C 252.392727 185.186311 254.492182 195.740983 258.570941 205.587979 
C 262.6497 215.434974 268.628442 224.382794 276.165006 231.919358 
C 283.70157 239.455922 292.649389 245.434663 302.496385 249.513422 
C 312.34338 253.592181 322.898053 255.691636 333.556364 255.691636 
C 344.214675 255.691636 354.769347 253.592181 364.616343 249.513422 
C 374.463338 245.434663 383.411157 239.455922 390.947721 231.919358 
C 398.484285 224.382794 404.463027 215.434974 408.541786 205.587979 
C 412.620545 195.740983 414.72 185.186311 414.72 174.528 
M 333.556364 174.528 
C 333.556364 174.528 333.556364 174.528 333.556364 174.528 
C 333.556364 174.528 333.556364 174.528 333.556364 174.528 
C 333.556364 174.528 333.556364 174.528 333.556364 174.528 
C 333.556364 174.528 333.556364 174.528 333.556364 174.528 
C 333.556364 174.528 333.556364 174.528 333.556364 174.528 
C 333.556364 174.528 333.556364 174.528 333.556364 174.528 
C 333.556364 174.528 333.556364 174.528 333.556364 174.528 
C 333.556364 174.528 333.556364 174.528 333.556364 174.528 
C 333.556364 174.528 333.556364 174.528 333.556364 174.528 
C 333.556364 174.528 333.556364 174.528 333.556364 174.528 
C 333.556364 174.528 333.556364 174.528 333.556364 174.528 
C 333.556364 174.528 333.556364 174.528 333.556364 174.528 
C 333.556364 174.528 333.556364 174.528 333.556364 174.528 
C 333.556364 174.528 333.556364 174.528 333.556364 174.528 
C 333.556364 174.528 333.556364 174.528 333.556364 174.528 
C 333.556364 174.528 333.556364 174.528 333.556364 174.528 
z
" style="fill: #ffffff"/>
   </g>
   <g id="matplotlib.axis_3">
    <g id="xtick_4">
     <g id="line2d_9">
      <path d="M 333.556364 174.528 
L 414.72 174.528 
" clip-path="url(#p816466df24)" style="fill: none; stroke: #b0b0b0; stroke-width: 0.8; stroke-linecap: square"/>
     </g>
     <g id="text_9">
      <!-- 0° -->
      <g transform="translate(423.03875 177.287375) scale(0.1 -0.1)">
       <defs>
        <path id="DejaVuSans-b0" d="M 1600 4347 
Q 1350 4347 1178 4173 
Q 1006 4000 1006 3750 
Q 1006 3503 1178 3333 
Q 1350 3163 1600 3163 
Q 1850 3163 2022 3333 
Q 2194 3503 2194 3750 
Q 2194 3997 2020 4172 
Q 1847 4347 1600 4347 
z
M 1600 4750 
Q 1800 4750 1984 4673 
Q 2169 4597 2303 4453 
Q 2447 4313 2519 4134 
Q 2591 3956 2591 3750 
Q 2591 3338 2302 3052 
Q 2013 2766 1594 2766 
Q 1172 2766 890 3047 
Q 609 3328 609 3750 
Q 609 4169 896 4459 
Q 1184 4750 1600 4750 
z
" transform="scale(0.015625)"/>
       </defs>
       <use xlink:href="#DejaVuSans-30"/>
       <use xlink:href="#DejaVuSans-b0" x="63.623047"/>
      </g>
     </g>
    </g>
    <g id="xtick_5">
     <g id="line2d_10">
      <path d="M 333.556364 174.528 
L 390.947721 117.136642 
" clip-path="url(#p816466df24)" style="fill: none; stroke: #b0b0b0; stroke-width: 0.8; stroke-linecap: square"/>
     </g>
     <g id="text_10">
      <!-- 45° -->
      <g transform="translate(391.984716 109.996522) scale(0.1 -0.1)">
       <defs>
        <path id="DejaVuSans-35" d="M 691 4666 
L 3169 4666 
L 3169 4134 
L 1269 4134 
L 1269 2991 
Q 1406 3038 1543 3061 
Q 1681 3084 1819 3084 
Q 2600 3084 3056 2656 
Q 3513 2228 3513 1497 
Q 3513 744 3044 326 
Q 2575 -91 1722 -91 
Q 1428 -91 1123 -41 
Q 819 9 494 109 
L 494 744 
Q 775 591 1075 516 
Q 1375 441 1709 441 
Q 2250 441 2565 725 
Q 2881 1009 2881 1497 
Q 2881 1984 2565 2268 
Q 2250 2553 1709 2553 
Q 1456 2553 1204 2497 
Q 953 2441 691 2322 
L 691 4666 
z
" transform="scale(0.015625)"/>
       </defs>
       <use xlink:href="#DejaVuSans-34"/>
       <use xlink:href="#DejaVuSans-35" x="63.623047"/>
       <use xlink:href="#DejaVuSans-b0" x="127.246094"/>
      </g>
     </g>
    </g>
    <g id="xtick_6">
     <g id="line2d_11">
      <path d="M 333.556364 174.528 
L 333.556364 93.364364 
" clip-path="url(#p816466df24)" style="fill: none; stroke: #b0b0b0; stroke-width: 0.8; stroke-linecap: square"/>
     </g>
     <g id="text_11">
      <!-- 90° -->
      <g transform="translate(324.693864 82.123739) scale(0.1 -0.1)">
       <defs>
        <path id="DejaVuSans-39" d="M 703 97 
L 703 672 
Q 941 559 1184 500 
Q 1428 441 1663 441 
Q 2288 441 2617 861 
Q 2947 1281 2994 2138 
Q 2813 1869 2534 1725 
Q 2256 1581 1919 1581 
Q 1219 1581 811 2004 
Q 403 2428 403 3163 
Q 403 3881 828 4315 
Q 1253 4750 1959 4750 
Q 2769 4750 3195 4129 
Q 3622 3509 3622 2328 
Q 3622 1225 3098 567 
Q 2575 -91 1691 -91 
Q 1453 -91 1209 -44 
Q 966 3 703 97 
z
M 1959 2075 
Q 2384 2075 2632 2365 
Q 2881 2656 2881 3163 
Q 2881 3666 2632 3958 
Q 2384 4250 1959 4250 
Q 1534 4250 1286 3958 
Q 1038 3666 1038 3163 
Q 1038 2656 1286 2365 
Q 1534 2075 1959 2075 
z
" transform="scale(0.015625)"/>
       </defs>
       <use xlink:href="#DejaVuSans-39"/>
       <use xlink:href="#DejaVuSans-30" x="63.623047"/>
       <use xlink:href="#DejaVuSans-b0" x="127.246094"/>
      </g>
     </g>
    </g>
    <g id="xtick_7">
     <g id="line2d_12">
      <path d="M 333.556364 174.528 
L 276.165006 117.136642 
" clip-path="url(#p816466df24)" style="fill: none; stroke: #b0b0b0; stroke-width: 0.8; stroke-linecap: square"/>
     </g>
     <g id="text_12">
      <!-- 135° -->
      <g transform="translate(254.221761 109.996522) scale(0.1 -0.1)">
       <defs>
        <path id="DejaVuSans-31" d="M 794 531 
L 1825 531 
L 1825 4091 
L 703 3866 
L 703 4441 
L 1819 4666 
L 2450 4666 
L 2450 531 
L 3481 531 
L 3481 0 
L 794 0 
L 794 531 
z
" transform="scale(0.015625)"/>
        <path id="DejaVuSans-33" d="M 2597 2516 
Q 3050 2419 3304 2112 
Q 3559 1806 3559 1356 
Q 3559 666 3084 287 
Q 2609 -91 1734 -91 
Q 1441 -91 1130 -33 
Q 819 25 488 141 
L 488 750 
Q 750 597 1062 519 
Q 1375 441 1716 441 
Q 2309 441 2620 675 
Q 2931 909 2931 1356 
Q 2931 1769 2642 2001 
Q 2353 2234 1838 2234 
L 1294 2234 
L 1294 2753 
L 1863 2753 
Q 2328 2753 2575 2939 
Q 2822 3125 2822 3475 
Q 2822 3834 2567 4026 
Q 2313 4219 1838 4219 
Q 1578 4219 1281 4162 
Q 984 4106 628 3988 
L 628 4550 
Q 988 4650 1302 4700 
Q 1616 4750 1894 4750 
Q 2613 4750 3031 4423 
Q 3450 4097 3450 3541 
Q 3450 3153 3228 2886 
Q 3006 2619 2597 2516 
z
" transform="scale(0.015625)"/>
       </defs>
       <use xlink:href="#DejaVuSans-31"/>
       <use xlink:href="#DejaVuSans-33" x="63.623047"/>
       <use xlink:href="#DejaVuSans-35" x="127.246094"/>
       <use xlink:href="#DejaVuSans-b0" x="190.869141"/>
      </g>
     </g>
    </g>
    <g id="xtick_8">
     <g id="line2d_13">
      <path d="M 333.556364 174.528 
L 252.392727 174.528 
" clip-path="url(#p816466df24)" style="fill: none; stroke: #b0b0b0; stroke-width: 0.8; stroke-linecap: square"/>
     </g>
     <g id="text_13">
      <!-- 180° -->
      <g transform="translate(226.348977 177.287375) scale(0.1 -0.1)">
       <defs>
        <path id="DejaVuSans-38" d="M 2034 2216 
Q 1584 2216 1326 1975 
Q 1069 1734 1069 1313 
Q 1069 891 1326 650 
Q 1584 409 2034 409 
Q 2484 409 2743 651 
Q 3003 894 3003 1313 
Q 3003 1734 2745 1975 
Q 2488 2216 2034 2216 
z
M 1403 2484 
Q 997 2584 770 2862 
Q 544 3141 544 3541 
Q 544 4100 942 4425 
Q 1341 4750 2034 4750 
Q 2731 4750 3128 4425 
Q 3525 4100 3525 3541 
Q 3525 3141 3298 2862 
Q 3072 2584 2669 2484 
Q 3125 2378 3379 2068 
Q 3634 1759 3634 1313 
Q 3634 634 3220 271 
Q 2806 -91 2034 -91 
Q 1263 -91 848 271 
Q 434 634 434 1313 
Q 434 1759 690 2068 
Q 947 2378 1403 2484 
z
M 1172 3481 
Q 1172 3119 1398 2916 
Q 1625 2713 2034 2713 
Q 2441 2713 2670 2916 
Q 2900 3119 2900 3481 
Q 2900 3844 2670 4047 
Q 2441 4250 2034 4250 
Q 1625 4250 1398 4047 
Q 1172 3844 1172 3481 
z
" transform="scale(0.015625)"/>
       </defs>
       <use xlink:href="#DejaVuSans-31"/>
       <use xlink:href="#DejaVuSans-38" x="63.623047"/>
       <use xlink:href="#DejaVuSans-30" x="127.246094"/>
       <use xlink:href="#DejaVuSans-b0" x="190.869141"/>
      </g>
     </g>
    </g>
    <g id="xtick_9">
     <g id="line2d_14">
      <path d="M 333.556364 174.528 
L 276.165006 231.919358 
" clip-path="url(#p816466df24)" style="fill: none; stroke: #b0b0b0; stroke-width: 0.8; stroke-linecap: square"/>
     </g>
     <g id="text_14">
      <!-- 225° -->
      <g transform="translate(254.221761 244.578228) scale(0.1 -0.1)">
       <use xlink:href="#DejaVuSans-32"/>
       <use xlink:href="#DejaVuSans-32" x="63.623047"/>
       <use xlink:href="#DejaVuSans-35" x="127.246094"/>
       <use xlink:href="#DejaVuSans-b0" x="190.869141"/>
      </g>
     </g>
    </g>
    <g id="xtick_10">
     <g id="line2d_15">
      <path d="M 333.556364 174.528 
L 333.556364 255.691636 
" clip-path="url(#p816466df24)" style="fill: none; stroke: #b0b0b0; stroke-width: 0.8; stroke-linecap: square"/>
     </g>
     <g id="text_15">
      <!-- 270° -->
      <g transform="translate(321.512614 272.451011) scale(0.1 -0.1)">
       <defs>
        <path id="DejaVuSans-37" d="M 525 4666 
L 3525 4666 
L 3525 4397 
L 1831 0 
L 1172 0 
L 2766 4134 
L 525 4134 
L 525 4666 
z
" transform="scale(0.015625)"/>
       </defs>
       <use xlink:href="#DejaVuSans-32"/>
       <use xlink:href="#DejaVuSans-37" x="63.623047"/>
       <use xlink:href="#DejaVuSans-30" x="127.246094"/>
       <use xlink:href="#DejaVuSans-b0" x="190.869141"/>
      </g>
     </g>
    </g>
    <g id="xtick_11">
     <g id="line2d_16">
      <path d="M 333.556364 174.528 
L 390.947721 231.919358 
" clip-path="url(#p816466df24)" style="fill: none; stroke: #b0b0b0; stroke-width: 0.8; stroke-linecap: square"/>
     </g>
     <g id="text_16">
      <!-- 315° -->
      <g transform="translate(388.803466 244.578228) scale(0.1 -0.1)">
       <use xlink:href="#DejaVuSans-33"/>
       <use xlink:href="#DejaVuSans-31" x="63.623047"/>
       <use xlink:href="#DejaVuSans-35" x="127.246094"/>
       <use xlink:href="#DejaVuSans-b0" x="190.869141"/>
      </g>
     </g>
    </g>
   </g>
   <g id="matplotlib.axis_4">
    <g id="ytick_6">
     <g id="line2d_17">
      <path d="M 337.24489 174.528 
C 337.24489 174.043627 337.149479 173.563964 336.964117 173.116462 
C 336.778756 172.66896 336.507049 172.262321 336.164545 171.919818 
C 335.822042 171.577315 335.415404 171.305608 334.967901 171.120246 
C 334.520399 170.934885 334.040736 170.839474 333.556364 170.839474 
C 333.071991 170.839474 332.592328 170.934885 332.144826 171.120246 
C 331.697324 171.305608 331.290685 171.577315 330.948182 171.919818 
C 330.605678 172.262321 330.333971 172.66896 330.14861 173.116462 
C 329.963248 173.563964 329.867837 174.043627 329.867837 174.528 
C 329.867837 175.012373 329.963248 175.492036 330.14861 175.939538 
C 330.333971 176.38704 330.605678 176.793679 330.948182 177.136182 
C 331.290685 177.478685 331.697324 177.750392 332.144826 177.935754 
C 332.592328 178.121115 333.071991 178.216526 333.556364 178.216526 
C 334.040736 178.216526 334.520399 178.121115 334.967901 177.935754 
C 335.415404 177.750392 335.822042 177.478685 336.164545 177.136182 
C 336.507049 176.793679 336.778756 176.38704 336.964117 175.939538 
C 337.149479 175.492036 337.24489 175.012373 337.24489 174.528 
" clip-path="url(#p816466df24)" style="fill: none; stroke: #b0b0b0; stroke-width: 0.8; stroke-linecap: square"/>
     </g>
     <g id="text_17">
      <!-- −1000 -->
      <g transform="translate(336.964117 171.036775) scale(0.1 -0.1)">
       <use xlink:href="#DejaVuSans-2212"/>
       <use xlink:href="#DejaVuSans-31" x="83.789062"/>
       <use xlink:href="#DejaVuSans-30" x="147.412109"/>
       <use xlink:href="#DejaVuSans-30" x="211.035156"/>
       <use xlink:href="#DejaVuSans-30" x="274.658203"/>
      </g>
     </g>
    </g>
    <g id="ytick_7">
     <g id="line2d_18">
      <path d="M 351.845835 174.528 
C 351.845835 172.126249 351.372742 169.747851 350.453632 167.528922 
C 349.534521 165.309994 348.187267 163.293686 346.488973 161.595391 
C 344.790678 159.897096 342.77437 158.549842 340.555441 157.630732 
C 338.336512 156.711622 335.958115 156.238529 333.556364 156.238529 
C 331.154612 156.238529 328.776215 156.711622 326.557286 157.630732 
C 324.338357 158.549842 322.322049 159.897096 320.623755 161.595391 
C 318.92546 163.293686 317.578206 165.309994 316.659096 167.528922 
C 315.739985 169.747851 315.266893 172.126249 315.266893 174.528 
C 315.266893 176.929751 315.739985 179.308149 316.659096 181.527078 
C 317.578206 183.746006 318.92546 185.762314 320.623755 187.460609 
C 322.322049 189.158904 324.338357 190.506158 326.557286 191.425268 
C 328.776215 192.344378 331.154612 192.817471 333.556364 192.817471 
C 335.958115 192.817471 338.336512 192.344378 340.555441 191.425268 
C 342.77437 190.506158 344.790678 189.158904 346.488973 187.460609 
C 348.187267 185.762314 349.534521 183.746006 350.453632 181.527078 
C 351.372742 179.308149 351.845835 176.929751 351.845835 174.528 
" clip-path="url(#p816466df24)" style="fill: none; stroke: #b0b0b0; stroke-width: 0.8; stroke-linecap: square"/>
     </g>
     <g id="text_18">
      <!-- −800 -->
      <g transform="translate(350.453632 165.449235) scale(0.1 -0.1)">
       <use xlink:href="#DejaVuSans-2212"/>
       <use xlink:href="#DejaVuSans-38" x="83.789062"/>
       <use xlink:href="#DejaVuSans-30" x="147.412109"/>
       <use xlink:href="#DejaVuSans-30" x="211.035156"/>
      </g>
     </g>
    </g>
    <g id="ytick_8">
     <g id="line2d_19">
      <path d="M 366.44678 174.528 
C 366.44678 170.20887 365.596005 165.931738 363.943146 161.941383 
C 362.290286 157.951027 359.867486 154.32505 356.8134 151.270964 
C 353.759314 148.216878 350.133337 145.794077 346.142981 144.141218 
C 342.152625 142.488358 337.875493 141.637584 333.556364 141.637584 
C 329.237234 141.637584 324.960102 142.488358 320.969746 144.141218 
C 316.979391 145.794077 313.353413 148.216878 310.299327 151.270964 
C 307.245241 154.32505 304.822441 157.951027 303.169582 161.941383 
C 301.516722 165.931738 300.665948 170.20887 300.665948 174.528 
C 300.665948 178.84713 301.516722 183.124262 303.169582 187.114617 
C 304.822441 191.104973 307.245241 194.73095 310.299327 197.785036 
C 313.353413 200.839122 316.979391 203.261923 320.969746 204.914782 
C 324.960102 206.567642 329.237234 207.418416 333.556364 207.418416 
C 337.875493 207.418416 342.152625 206.567642 346.142981 204.914782 
C 350.133337 203.261923 353.759314 200.839122 356.8134 197.785036 
C 359.867486 194.73095 362.290286 191.104973 363.943146 187.114617 
C 365.596005 183.124262 366.44678 178.84713 366.44678 174.528 
" clip-path="url(#p816466df24)" style="fill: none; stroke: #b0b0b0; stroke-width: 0.8; stroke-linecap: square"/>
     </g>
     <g id="text_19">
      <!-- −600 -->
      <g transform="translate(363.943146 159.861695) scale(0.1 -0.1)">
       <defs>
        <path id="DejaVuSans-36" d="M 2113 2584 
Q 1688 2584 1439 2293 
Q 1191 2003 1191 1497 
Q 1191 994 1439 701 
Q 1688 409 2113 409 
Q 2538 409 2786 701 
Q 3034 994 3034 1497 
Q 3034 2003 2786 2293 
Q 2538 2584 2113 2584 
z
M 3366 4563 
L 3366 3988 
Q 3128 4100 2886 4159 
Q 2644 4219 2406 4219 
Q 1781 4219 1451 3797 
Q 1122 3375 1075 2522 
Q 1259 2794 1537 2939 
Q 1816 3084 2150 3084 
Q 2853 3084 3261 2657 
Q 3669 2231 3669 1497 
Q 3669 778 3244 343 
Q 2819 -91 2113 -91 
Q 1303 -91 875 529 
Q 447 1150 447 2328 
Q 447 3434 972 4092 
Q 1497 4750 2381 4750 
Q 2619 4750 2861 4703 
Q 3103 4656 3366 4563 
z
" transform="scale(0.015625)"/>
       </defs>
       <use xlink:href="#DejaVuSans-2212"/>
       <use xlink:href="#DejaVuSans-36" x="83.789062"/>
       <use xlink:href="#DejaVuSans-30" x="147.412109"/>
       <use xlink:href="#DejaVuSans-30" x="211.035156"/>
      </g>
     </g>
    </g>
    <g id="ytick_9">
     <g id="line2d_20">
      <path d="M 381.047724 174.528 
C 381.047724 168.291492 379.819268 162.115625 377.43266 156.353843 
C 375.046051 150.592061 371.547704 145.356414 367.137827 140.946537 
C 362.72795 136.536659 357.492303 133.038312 351.730521 130.651704 
C 345.968738 128.265095 339.792872 127.036639 333.556364 127.036639 
C 327.319855 127.036639 321.143989 128.265095 315.382207 130.651704 
C 309.620424 133.038312 304.384778 136.536659 299.9749 140.946537 
C 295.565023 145.356414 292.066676 150.592061 289.680067 156.353843 
C 287.293459 162.115625 286.065003 168.291492 286.065003 174.528 
C 286.065003 180.764508 287.293459 186.940375 289.680067 192.702157 
C 292.066676 198.463939 295.565023 203.699586 299.9749 208.109463 
C 304.384778 212.519341 309.620424 216.017688 315.382207 218.404296 
C 321.143989 220.790905 327.319855 222.019361 333.556364 222.019361 
C 339.792872 222.019361 345.968738 220.790905 351.730521 218.404296 
C 357.492303 216.017688 362.72795 212.519341 367.137827 208.109463 
C 371.547704 203.699586 375.046051 198.463939 377.43266 192.702157 
C 379.819268 186.940375 381.047724 180.764508 381.047724 174.528 
" clip-path="url(#p816466df24)" style="fill: none; stroke: #b0b0b0; stroke-width: 0.8; stroke-linecap: square"/>
     </g>
     <g id="text_20">
      <!-- −400 -->
      <g transform="translate(377.43266 154.274156) scale(0.1 -0.1)">
       <use xlink:href="#DejaVuSans-2212"/>
       <use xlink:href="#DejaVuSans-34" x="83.789062"/>
       <use xlink:href="#DejaVuSans-30" x="147.412109"/>
       <use xlink:href="#DejaVuSans-30" x="211.035156"/>
      </g>
     </g>
    </g>
    <g id="ytick_10">
     <g id="line2d_21">
      <path d="M 395.648669 174.528 
C 395.648669 166.374113 394.042531 158.299513 390.922174 150.766303 
C 387.801817 143.233094 383.227923 136.387778 377.462254 130.62211 
C 371.696585 124.856441 364.85127 120.282547 357.31806 117.16219 
C 349.784851 114.041832 341.710251 112.435694 333.556364 112.435694 
C 325.402477 112.435694 317.327876 114.041832 309.794667 117.16219 
C 302.261458 120.282547 295.416142 124.856441 289.650473 130.62211 
C 283.884804 136.387778 279.310911 143.233094 276.190553 150.766303 
C 273.070196 158.299513 271.464058 166.374113 271.464058 174.528 
C 271.464058 182.681887 273.070196 190.756487 276.190553 198.289697 
C 279.310911 205.822906 283.884804 212.668222 289.650473 218.43389 
C 295.416142 224.199559 302.261458 228.773453 309.794667 231.89381 
C 317.327876 235.014168 325.402477 236.620306 333.556364 236.620306 
C 341.710251 236.620306 349.784851 235.014168 357.31806 231.89381 
C 364.85127 228.773453 371.696585 224.199559 377.462254 218.43389 
C 383.227923 212.668222 387.801817 205.822906 390.922174 198.289697 
C 394.042531 190.756487 395.648669 182.681887 395.648669 174.528 
" clip-path="url(#p816466df24)" style="fill: none; stroke: #b0b0b0; stroke-width: 0.8; stroke-linecap: square"/>
     </g>
     <g id="text_21">
      <!-- −200 -->
      <g transform="translate(390.922174 148.686616) scale(0.1 -0.1)">
       <use xlink:href="#DejaVuSans-2212"/>
       <use xlink:href="#DejaVuSans-32" x="83.789062"/>
       <use xlink:href="#DejaVuSans-30" x="147.412109"/>
       <use xlink:href="#DejaVuSans-30" x="211.035156"/>
      </g>
     </g>
    </g>
    <g id="ytick_11">
     <g id="line2d_22">
      <path d="M 410.249614 174.528 
C 410.249614 164.456735 408.265795 154.4834 404.411688 145.178764 
C 400.557582 135.874128 394.908141 127.419142 387.786681 120.297682 
C 380.665221 113.176222 372.210236 107.526782 362.9056 103.672675 
C 353.600964 99.818569 343.627629 97.834749 333.556364 97.834749 
C 323.485098 97.834749 313.511763 99.818569 304.207127 103.672675 
C 294.902491 107.526782 286.447506 113.176222 279.326046 120.297682 
C 272.204586 127.419142 266.555146 135.874128 262.701039 145.178764 
C 258.846933 154.4834 256.863113 164.456735 256.863113 174.528 
C 256.863113 184.599265 258.846933 194.5726 262.701039 203.877236 
C 266.555146 213.181872 272.204586 221.636858 279.326046 228.758318 
C 286.447506 235.879778 294.902491 241.529218 304.207127 245.383325 
C 313.511763 249.237431 323.485098 251.221251 333.556364 251.221251 
C 343.627629 251.221251 353.600964 249.237431 362.9056 245.383325 
C 372.210236 241.529218 380.665221 235.879778 387.786681 228.758318 
C 394.908141 221.636858 400.557582 213.181872 404.411688 203.877236 
C 408.265795 194.5726 410.249614 184.599265 410.249614 174.528 
" clip-path="url(#p816466df24)" style="fill: none; stroke: #b0b0b0; stroke-width: 0.8; stroke-linecap: square"/>
     </g>
     <g id="text_22">
      <!-- 0 -->
      <g transform="translate(404.411688 143.099076) scale(0.1 -0.1)">
       <use xlink:href="#DejaVuSans-30"/>
      </g>
     </g>
    </g>
   </g>
   <g id="line2d_23">
    <path d="M 411.030744 174.528 
L 408.351085 154.487434 
L 400.504465 135.876874 
L 388.055752 120.031136 
L 371.908025 108.105711 
L 353.253361 101.029154 
L 333.556535 170.838744 
L 313.710694 100.446936 
L 295.213841 108.107328 
L 279.329815 120.293914 
L 267.141021 136.176247 
L 259.478058 154.672034 
" clip-path="url(#p816466df24)" style="fill: none; stroke: #1f77b4; stroke-width: 1.5; stroke-linecap: square"/>
   </g>
   <g id="patch_10">
    <path d="M 414.72 174.528 
C 414.72 163.869689 412.620545 153.315017 408.541786 143.468021 
C 404.463027 133.621026 398.484285 124.673206 390.947721 117.136642 
C 383.411157 109.600078 374.463338 103.621337 364.616343 99.542578 
C 354.769347 95.463819 344.214675 93.364364 333.556364 93.364364 
C 322.898053 93.364364 312.34338 95.463819 302.496385 99.542578 
C 292.649389 103.621337 283.70157 109.600078 276.165006 117.136642 
C 268.628442 124.673206 262.6497 133.621026 258.570941 143.468021 
C 254.492182 153.315017 252.392727 163.869689 252.392727 174.528 
C 252.392727 185.186311 254.492182 195.740983 258.570941 205.587979 
C 262.6497 215.434974 268.628442 224.382794 276.165006 231.919358 
C 283.70157 239.455922 292.649389 245.434663 302.496385 249.513422 
C 312.34338 253.592181 322.898053 255.691636 333.556364 255.691636 
C 344.214675 255.691636 354.769347 253.592181 364.616343 249.513422 
C 374.463338 245.434663 383.411157 239.455922 390.947721 231.919358 
C 398.484285 224.382794 404.463027 215.434974 408.541786 205.587979 
C 412.620545 195.740983 414.72 185.186311 414.72 174.528 
" style="fill: none; stroke: #000000; stroke-width: 0.8; stroke-linejoin: miter; stroke-linecap: square"/>
   </g>
  </g>
 </g>
 <defs>
  <clipPath id="pfe078b550e">
   <rect x="57.6" y="41.472" width="162.327273" height="266.112"/>
  </clipPath>
  <clipPath id="p816466df24">
   <path d="M 414.72 174.528 
C 414.72 163.869689 412.620545 153.315017 408.541786 143.468021 
C 404.463027 133.621026 398.484285 124.673206 390.947721 117.136642 
C 383.411157 109.600078 374.463338 103.621337 364.616343 99.542578 
C 354.769347 95.463819 344.214675 93.364364 333.556364 93.364364 
C 322.898053 93.364364 312.34338 95.463819 302.496385 99.542578 
C 292.649389 103.621337 283.70157 109.600078 276.165006 117.136642 
C 268.628442 124.673206 262.6497 133.621026 258.570941 143.468021 
C 254.492182 153.315017 252.392727 163.869689 252.392727 174.528 
C 252.392727 185.186311 254.492182 195.740983 258.570941 205.587979 
C 262.6497 215.434974 268.628442 224.382794 276.165006 231.919358 
C 283.70157 239.455922 292.649389 245.434663 302.496385 249.513422 
C 312.34338 253.592181 322.898053 255.691636 333.556364 255.691636 
C 344.214675 255.691636 354.769347 253.592181 364.616343 249.513422 
C 374.463338 245.434663 383.411157 239.455922 390.947721 231.919358 
C 398.484285 224.382794 404.463027 215.434974 408.541786 205.587979 
C 412.620545 195.740983 414.72 185.186311 414.72 174.528 
M 333.556364 174.528 
C 333.556364 174.528 333.556364 174.528 333.556364 174.528 
C 333.556364 174.528 333.556364 174.528 333.556364 174.528 
C 333.556364 174.528 333.556364 174.528 333.556364 174.528 
C 333.556364 174.528 333.556364 174.528 333.556364 174.528 
C 333.556364 174.528 333.556364 174.528 333.556364 174.528 
C 333.556364 174.528 333.556364 174.528 333.556364 174.528 
C 333.556364 174.528 333.556364 174.528 333.556364 174.528 
C 333.556364 174.528 333.556364 174.528 333.556364 174.528 
C 333.556364 174.528 333.556364 174.528 333.556364 174.528 
C 333.556364 174.528 333.556364 174.528 333.556364 174.528 
C 333.556364 174.528 333.556364 174.528 333.556364 174.528 
C 333.556364 174.528 333.556364 174.528 333.556364 174.528 
C 333.556364 174.528 333.556364 174.528 333.556364 174.528 
C 333.556364 174.528 333.556364 174.528 333.556364 174.528 
C 333.556364 174.528 333.556364 174.528 333.556364 174.528 
C 333.556364 174.528 333.556364 174.528 333.556364 174.528 
z
"/>
  </clipPath>
 </defs>
</svg>
