<?xml version="1.0" encoding="utf-8" standalone="no"?>
<!DOCTYPE svg PUBLIC "-//W3C//DTD SVG 1.1//EN"
  "http://www.w3.org/Graphics/SVG/1.1/DTD/svg11.dtd">
<svg xmlns:xlink="http://www.w3.org/1999/xlink" width="460.8pt" height="345.6pt" viewBox="0 0 460.8 345.6" xmlns="http://www.w3.org/2000/svg" version="1.1">
 <metadata>
  <rdf:RDF xmlns:dc="http://purl.org/dc/elements/1.1/" xmlns:cc="http://creativecommons.org/ns#" xmlns:rdf="http://www.w3.org/1999/02/22-rdf-syntax-ns#">
   <cc:Work>
    <dc:type rdf:resource="http://purl.org/dc/dcmitype/StillImage"/>
    <dc:date>2023-05-13T02:12:14.822847</dc:date>
    <dc:format>image/svg+xml</dc:format>
    <dc:creator>
     <cc:Agent>
      <dc:title>Matplotlib v3.7.1, https://matplotlib.org/</dc:title>
     </cc:Agent>
    </dc:creator>
   </cc:Work>
  </rdf:RDF>
 </metadata>
 <defs>
  <style type="text/css">*{stroke-linejoin: round; stroke-linecap: butt}</style>
 </defs>
 <g id="figure_1">
  <g id="patch_1">
   <path d="M 0 345.6 
L 460.8 345.6 
L 460.8 0 
L 0 0 
z
" style="fill: #ffffff"/>
  </g>
  <g id="axes_1">
   <g id="patch_2">
    <path d="M 57.6 307.584 
L 219.927273 307.584 
L 219.927273 41.472 
L 57.6 41.472 
z
" style="fill: #ffffff"/>
   </g>
   <g id="patch_3">
    <path d="M 138.763636 251.826701 
C 159.263492 251.826701 178.926486 243.682022 193.422072 229.186436 
C 207.917659 214.690849 216.062338 195.027855 216.062338 174.528 
C 216.062338 154.028145 207.917659 134.365151 193.422072 119.869564 
C 178.926486 105.373978 159.263492 97.229299 138.763636 97.229299 
C 118.263781 97.229299 98.600787 105.373978 84.1052 119.869564 
C 69.609614 134.365151 61.464935 154.028145 61.464935 174.528 
C 61.464935 195.027855 69.609614 214.690849 84.1052 229.186436 
C 98.600787 243.682022 118.263781 251.826701 138.763636 251.826701 
z
" clip-path="url(#p4255594a65)" style="fill: #ffcdd2; stroke: #ffcdd2; stroke-linejoin: miter"/>
   </g>
   <g id="patch_4">
    <path d="M 151.880992 182.726347 
C 154.055219 182.726347 156.140688 181.862518 157.678099 180.325107 
C 159.215509 178.787696 160.079339 176.702227 160.079339 174.528 
C 160.079339 172.353773 159.215509 170.268304 157.678099 168.730893 
C 156.140688 167.193482 154.055219 166.329653 151.880992 166.329653 
C 149.706765 166.329653 147.621296 167.193482 146.083885 168.730893 
C 144.546474 170.268304 143.682645 172.353773 143.682645 174.528 
C 143.682645 176.702227 144.546474 178.787696 146.083885 180.325107 
C 147.621296 181.862518 149.706765 182.726347 151.880992 182.726347 
z
" clip-path="url(#p4255594a65)" style="stroke: #000000; stroke-linejoin: miter"/>
   </g>
   <g id="matplotlib.axis_1">
    <g id="xtick_1">
     <g id="line2d_1">
      <defs>
       <path id="m19aef5f7a0" d="M 0 0 
L 0 3.5 
" style="stroke: #000000; stroke-width: 0.8"/>
      </defs>
      <g>
       <use xlink:href="#m19aef5f7a0" x="91.915939" y="307.584" style="stroke: #000000; stroke-width: 0.8"/>
      </g>
     </g>
     <g id="text_1">
      <!-- −20 -->
      <g transform="translate(81.363595 322.182437) scale(0.1 -0.1)">
       <defs>
        <path id="DejaVuSans-2212" d="M 678 2272 
L 4684 2272 
L 4684 1741 
L 678 1741 
L 678 2272 
z
" transform="scale(0.015625)"/>
        <path id="DejaVuSans-32" d="M 1228 531 
L 3431 531 
L 3431 0 
L 469 0 
L 469 531 
Q 828 903 1448 1529 
Q 2069 2156 2228 2338 
Q 2531 2678 2651 2914 
Q 2772 3150 2772 3378 
Q 2772 3750 2511 3984 
Q 2250 4219 1831 4219 
Q 1534 4219 1204 4116 
Q 875 4013 500 3803 
L 500 4441 
Q 881 4594 1212 4672 
Q 1544 4750 1819 4750 
Q 2544 4750 2975 4387 
Q 3406 4025 3406 3419 
Q 3406 3131 3298 2873 
Q 3191 2616 2906 2266 
Q 2828 2175 2409 1742 
Q 1991 1309 1228 531 
z
" transform="scale(0.015625)"/>
        <path id="DejaVuSans-30" d="M 2034 4250 
Q 1547 4250 1301 3770 
Q 1056 3291 1056 2328 
Q 1056 1369 1301 889 
Q 1547 409 2034 409 
Q 2525 409 2770 889 
Q 3016 1369 3016 2328 
Q 3016 3291 2770 3770 
Q 2525 4250 2034 4250 
z
M 2034 4750 
Q 2819 4750 3233 4129 
Q 3647 3509 3647 2328 
Q 3647 1150 3233 529 
Q 2819 -91 2034 -91 
Q 1250 -91 836 529 
Q 422 1150 422 2328 
Q 422 3509 836 4129 
Q 1250 4750 2034 4750 
z
" transform="scale(0.015625)"/>
       </defs>
       <use xlink:href="#DejaVuSans-2212"/>
       <use xlink:href="#DejaVuSans-32" x="83.789062"/>
       <use xlink:href="#DejaVuSans-30" x="147.412109"/>
      </g>
     </g>
    </g>
    <g id="xtick_2">
     <g id="line2d_2">
      <g>
       <use xlink:href="#m19aef5f7a0" x="138.763636" y="307.584" style="stroke: #000000; stroke-width: 0.8"/>
      </g>
     </g>
     <g id="text_2">
      <!-- 0 -->
      <g transform="translate(135.582386 322.182437) scale(0.1 -0.1)">
       <use xlink:href="#DejaVuSans-30"/>
      </g>
     </g>
    </g>
    <g id="xtick_3">
     <g id="line2d_3">
      <g>
       <use xlink:href="#m19aef5f7a0" x="185.611334" y="307.584" style="stroke: #000000; stroke-width: 0.8"/>
      </g>
     </g>
     <g id="text_3">
      <!-- 20 -->
      <g transform="translate(179.248834 322.182437) scale(0.1 -0.1)">
       <use xlink:href="#DejaVuSans-32"/>
       <use xlink:href="#DejaVuSans-30" x="63.623047"/>
      </g>
     </g>
    </g>
   </g>
   <g id="matplotlib.axis_2">
    <g id="ytick_1">
     <g id="line2d_4">
      <defs>
       <path id="mec4053d96a" d="M 0 0 
L -3.5 0 
" style="stroke: #000000; stroke-width: 0.8"/>
      </defs>
      <g>
       <use xlink:href="#mec4053d96a" x="57.6" y="268.223396" style="stroke: #000000; stroke-width: 0.8"/>
      </g>
     </g>
     <g id="text_4">
      <!-- −40 -->
      <g transform="translate(29.495313 272.022614) scale(0.1 -0.1)">
       <defs>
        <path id="DejaVuSans-34" d="M 2419 4116 
L 825 1625 
L 2419 1625 
L 2419 4116 
z
M 2253 4666 
L 3047 4666 
L 3047 1625 
L 3713 1625 
L 3713 1100 
L 3047 1100 
L 3047 0 
L 2419 0 
L 2419 1100 
L 313 1100 
L 313 1709 
L 2253 4666 
z
" transform="scale(0.015625)"/>
       </defs>
       <use xlink:href="#DejaVuSans-2212"/>
       <use xlink:href="#DejaVuSans-34" x="83.789062"/>
       <use xlink:href="#DejaVuSans-30" x="147.412109"/>
      </g>
     </g>
    </g>
    <g id="ytick_2">
     <g id="line2d_5">
      <g>
       <use xlink:href="#mec4053d96a" x="57.6" y="221.375698" style="stroke: #000000; stroke-width: 0.8"/>
      </g>
     </g>
     <g id="text_5">
      <!-- −20 -->
      <g transform="translate(29.495313 225.174917) scale(0.1 -0.1)">
       <use xlink:href="#DejaVuSans-2212"/>
       <use xlink:href="#DejaVuSans-32" x="83.789062"/>
       <use xlink:href="#DejaVuSans-30" x="147.412109"/>
      </g>
     </g>
    </g>
    <g id="ytick_3">
     <g id="line2d_6">
      <g>
       <use xlink:href="#mec4053d96a" x="57.6" y="174.528" style="stroke: #000000; stroke-width: 0.8"/>
      </g>
     </g>
     <g id="text_6">
      <!-- 0 -->
      <g transform="translate(44.2375 178.327219) scale(0.1 -0.1)">
       <use xlink:href="#DejaVuSans-30"/>
      </g>
     </g>
    </g>
    <g id="ytick_4">
     <g id="line2d_7">
      <g>
       <use xlink:href="#mec4053d96a" x="57.6" y="127.680302" style="stroke: #000000; stroke-width: 0.8"/>
      </g>
     </g>
     <g id="text_7">
      <!-- 20 -->
      <g transform="translate(37.875 131.479521) scale(0.1 -0.1)">
       <use xlink:href="#DejaVuSans-32"/>
       <use xlink:href="#DejaVuSans-30" x="63.623047"/>
      </g>
     </g>
    </g>
    <g id="ytick_5">
     <g id="line2d_8">
      <g>
       <use xlink:href="#mec4053d96a" x="57.6" y="80.832604" style="stroke: #000000; stroke-width: 0.8"/>
      </g>
     </g>
     <g id="text_8">
      <!-- 40 -->
      <g transform="translate(37.875 84.631823) scale(0.1 -0.1)">
       <use xlink:href="#DejaVuSans-34"/>
       <use xlink:href="#DejaVuSans-30" x="63.623047"/>
      </g>
     </g>
    </g>
   </g>
   <g id="LineCollection_1">
    <path d="M 61.464935 174.528 
L 62.476095 176.640894 
" clip-path="url(#p4255594a65)" style="fill: none; stroke: #4caf50; stroke-width: 3"/>
    <path d="M 62.476095 176.640894 
L 80.069307 186.275565 
" clip-path="url(#p4255594a65)" style="fill: none; stroke: #4caf50; stroke-width: 3"/>
    <path d="M 80.069307 186.275565 
L 78.944199 188.330047 
" clip-path="url(#p4255594a65)" style="fill: none; stroke: #4caf50; stroke-width: 3"/>
    <path d="M 78.944199 188.330047 
L 80.998682 189.455155 
" clip-path="url(#p4255594a65)" style="fill: none; stroke: #4caf50; stroke-width: 3"/>
    <path d="M 80.998682 189.455155 
L 85.553875 181.137228 
" clip-path="url(#p4255594a65)" style="fill: none; stroke: #4caf50; stroke-width: 3"/>
    <path d="M 85.553875 181.137228 
L 87.126499 179.40125 
" clip-path="url(#p4255594a65)" style="fill: none; stroke: #4caf50; stroke-width: 3"/>
    <path d="M 87.126499 179.40125 
L 95.949468 187.393984 
" clip-path="url(#p4255594a65)" style="fill: none; stroke: #4caf50; stroke-width: 3"/>
    <path d="M 95.949468 187.393984 
L 97.522092 185.658006 
" clip-path="url(#p4255594a65)" style="fill: none; stroke: #4caf50; stroke-width: 3"/>
    <path d="M 97.522092 185.658006 
L 103.264835 177.523146 
" clip-path="url(#p4255594a65)" style="fill: none; stroke: #4caf50; stroke-width: 3"/>
    <path d="M 103.264835 177.523146 
L 125.962095 183.312024 
" clip-path="url(#p4255594a65)" style="fill: none; stroke: #4caf50; stroke-width: 3"/>
    <path d="M 125.962095 183.312024 
L 126.540982 181.042298 
" clip-path="url(#p4255594a65)" style="fill: none; stroke: #4caf50; stroke-width: 3"/>
    <path d="M 126.540982 181.042298 
L 129.864328 181.889909 
" clip-path="url(#p4255594a65)" style="fill: none; stroke: #4caf50; stroke-width: 3"/>
    <path d="M 129.864328 181.889909 
L 128.901905 188.802084 
" clip-path="url(#p4255594a65)" style="fill: none; stroke: #4caf50; stroke-width: 3"/>
    <path d="M 128.901905 188.802084 
L 138.017013 193.100821 
" clip-path="url(#p4255594a65)" style="fill: none; stroke: #4caf50; stroke-width: 3"/>
    <path d="M 138.017013 193.100821 
L 135.915051 204.481529 
" clip-path="url(#p4255594a65)" style="fill: none; stroke: #4caf50; stroke-width: 3"/>
    <path d="M 135.915051 204.481529 
L 148.026814 206.718512 
" clip-path="url(#p4255594a65)" style="fill: none; stroke: #4caf50; stroke-width: 3"/>
    <path d="M 148.026814 206.718512 
L 154.280436 197.160028 
" clip-path="url(#p4255594a65)" style="fill: none; stroke: #4caf50; stroke-width: 3"/>
    <path d="M 154.280436 197.160028 
L 174.110007 207.347362 
" clip-path="url(#p4255594a65)" style="fill: none; stroke: #4caf50; stroke-width: 3"/>
    <path d="M 174.110007 207.347362 
L 184.662475 213.039404 
" clip-path="url(#p4255594a65)" style="fill: none; stroke: #4caf50; stroke-width: 3"/>
    <path d="M 184.662475 213.039404 
L 204.699564 213.233782 
" clip-path="url(#p4255594a65)" style="fill: none; stroke: #4caf50; stroke-width: 3"/>
   </g>
   <g id="patch_5">
    <path d="M 57.6 307.584 
L 57.6 41.472 
" style="fill: none; stroke: #000000; stroke-width: 0.8; stroke-linejoin: miter; stroke-linecap: square"/>
   </g>
   <g id="patch_6">
    <path d="M 219.927273 307.584 
L 219.927273 41.472 
" style="fill: none; stroke: #000000; stroke-width: 0.8; stroke-linejoin: miter; stroke-linecap: square"/>
   </g>
   <g id="patch_7">
    <path d="M 57.6 307.584 
L 219.927273 307.584 
" style="fill: none; stroke: #000000; stroke-width: 0.8; stroke-linejoin: miter; stroke-linecap: square"/>
   </g>
   <g id="patch_8">
    <path d="M 57.6 41.472 
L 219.927273 41.472 
" style="fill: none; stroke: #000000; stroke-width: 0.8; stroke-linejoin: miter; stroke-linecap: square"/>
   </g>
  </g>
  <g id="axes_2">
   <g id="patch_9">
    <path d="M 414.72 174.528 
C 414.72 163.869689 412.620545 153.315017 408.541786 143.468021 
C 404.463027 133.621026 398.484285 124.673206 390.947721 117.136642 
C 383.411157 109.600078 374.463338 103.621337 364.616343 99.542578 
C 354.769347 95.463819 344.214675 93.364364 333.556364 93.364364 
C 322.898053 93.364364 312.34338 95.463819 302.496385 99.542578 
C 292.649389 103.621337 283.70157 109.600078 276.165006 117.136642 
C 268.628442 124.673206 262.6497 133.621026 258.570941 143.468021 
C 254.492182 153.315017 252.392727 163.869689 252.392727 174.528 
C 252.392727 185.186311 254.492182 195.740983 258.570941 205.587979 
C 262.6497 215.434974 268.628442 224.382794 276.165006 231.919358 
C 283.70157 239.455922 292.649389 245.434663 302.496385 249.513422 
C 312.34338 253.592181 322.898053 255.691636 333.556364 255.691636 
C 344.214675 255.691636 354.769347 253.592181 364.616343 249.513422 
C 374.463338 245.434663 383.411157 239.455922 390.947721 231.919358 
C 398.484285 224.382794 404.463027 215.434974 408.541786 205.587979 
C 412.620545 195.740983 414.72 185.186311 414.72 174.528 
M 333.556364 174.528 
C 333.556364 174.528 333.556364 174.528 333.556364 174.528 
C 333.556364 174.528 333.556364 174.528 333.556364 174.528 
C 333.556364 174.528 333.556364 174.528 333.556364 174.528 
C 333.556364 174.528 333.556364 174.528 333.556364 174.528 
C 333.556364 174.528 333.556364 174.528 333.556364 174.528 
C 333.556364 174.528 333.556364 174.528 333.556364 174.528 
C 333.556364 174.528 333.556364 174.528 333.556364 174.528 
C 333.556364 174.528 333.556364 174.528 333.556364 174.528 
C 333.556364 174.528 333.556364 174.528 333.556364 174.528 
C 333.556364 174.528 333.556364 174.528 333.556364 174.528 
C 333.556364 174.528 333.556364 174.528 333.556364 174.528 
C 333.556364 174.528 333.556364 174.528 333.556364 174.528 
C 333.556364 174.528 333.556364 174.528 333.556364 174.528 
C 333.556364 174.528 333.556364 174.528 333.556364 174.528 
C 333.556364 174.528 333.556364 174.528 333.556364 174.528 
C 333.556364 174.528 333.556364 174.528 333.556364 174.528 
z
" style="fill: #ffffff"/>
   </g>
   <g id="matplotlib.axis_3">
    <g id="xtick_4">
     <g id="line2d_9">
      <path d="M 333.556364 174.528 
L 414.72 174.528 
" clip-path="url(#pb73fcbe202)" style="fill: none; stroke: #b0b0b0; stroke-width: 0.8; stroke-linecap: square"/>
     </g>
     <g id="text_9">
      <!-- 0° -->
      <g transform="translate(423.03875 177.287375) scale(0.1 -0.1)">
       <defs>
        <path id="DejaVuSans-b0" d="M 1600 4347 
Q 1350 4347 1178 4173 
Q 1006 4000 1006 3750 
Q 1006 3503 1178 3333 
Q 1350 3163 1600 3163 
Q 1850 3163 2022 3333 
Q 2194 3503 2194 3750 
Q 2194 3997 2020 4172 
Q 1847 4347 1600 4347 
z
M 1600 4750 
Q 1800 4750 1984 4673 
Q 2169 4597 2303 4453 
Q 2447 4313 2519 4134 
Q 2591 3956 2591 3750 
Q 2591 3338 2302 3052 
Q 2013 2766 1594 2766 
Q 1172 2766 890 3047 
Q 609 3328 609 3750 
Q 609 4169 896 4459 
Q 1184 4750 1600 4750 
z
" transform="scale(0.015625)"/>
       </defs>
       <use xlink:href="#DejaVuSans-30"/>
       <use xlink:href="#DejaVuSans-b0" x="63.623047"/>
      </g>
     </g>
    </g>
    <g id="xtick_5">
     <g id="line2d_10">
      <path d="M 333.556364 174.528 
L 390.947721 117.136642 
" clip-path="url(#pb73fcbe202)" style="fill: none; stroke: #b0b0b0; stroke-width: 0.8; stroke-linecap: square"/>
     </g>
     <g id="text_10">
      <!-- 45° -->
      <g transform="translate(391.984716 109.996522) scale(0.1 -0.1)">
       <defs>
        <path id="DejaVuSans-35" d="M 691 4666 
L 3169 4666 
L 3169 4134 
L 1269 4134 
L 1269 2991 
Q 1406 3038 1543 3061 
Q 1681 3084 1819 3084 
Q 2600 3084 3056 2656 
Q 3513 2228 3513 1497 
Q 3513 744 3044 326 
Q 2575 -91 1722 -91 
Q 1428 -91 1123 -41 
Q 819 9 494 109 
L 494 744 
Q 775 591 1075 516 
Q 1375 441 1709 441 
Q 2250 441 2565 725 
Q 2881 1009 2881 1497 
Q 2881 1984 2565 2268 
Q 2250 2553 1709 2553 
Q 1456 2553 1204 2497 
Q 953 2441 691 2322 
L 691 4666 
z
" transform="scale(0.015625)"/>
       </defs>
       <use xlink:href="#DejaVuSans-34"/>
       <use xlink:href="#DejaVuSans-35" x="63.623047"/>
       <use xlink:href="#DejaVuSans-b0" x="127.246094"/>
      </g>
     </g>
    </g>
    <g id="xtick_6">
     <g id="line2d_11">
      <path d="M 333.556364 174.528 
L 333.556364 93.364364 
" clip-path="url(#pb73fcbe202)" style="fill: none; stroke: #b0b0b0; stroke-width: 0.8; stroke-linecap: square"/>
     </g>
     <g id="text_11">
      <!-- 90° -->
      <g transform="translate(324.693864 82.123739) scale(0.1 -0.1)">
       <defs>
        <path id="DejaVuSans-39" d="M 703 97 
L 703 672 
Q 941 559 1184 500 
Q 1428 441 1663 441 
Q 2288 441 2617 861 
Q 2947 1281 2994 2138 
Q 2813 1869 2534 1725 
Q 2256 1581 1919 1581 
Q 1219 1581 811 2004 
Q 403 2428 403 3163 
Q 403 3881 828 4315 
Q 1253 4750 1959 4750 
Q 2769 4750 3195 4129 
Q 3622 3509 3622 2328 
Q 3622 1225 3098 567 
Q 2575 -91 1691 -91 
Q 1453 -91 1209 -44 
Q 966 3 703 97 
z
M 1959 2075 
Q 2384 2075 2632 2365 
Q 2881 2656 2881 3163 
Q 2881 3666 2632 3958 
Q 2384 4250 1959 4250 
Q 1534 4250 1286 3958 
Q 1038 3666 1038 3163 
Q 1038 2656 1286 2365 
Q 1534 2075 1959 2075 
z
" transform="scale(0.015625)"/>
       </defs>
       <use xlink:href="#DejaVuSans-39"/>
       <use xlink:href="#DejaVuSans-30" x="63.623047"/>
       <use xlink:href="#DejaVuSans-b0" x="127.246094"/>
      </g>
     </g>
    </g>
    <g id="xtick_7">
     <g id="line2d_12">
      <path d="M 333.556364 174.528 
L 276.165006 117.136642 
" clip-path="url(#pb73fcbe202)" style="fill: none; stroke: #b0b0b0; stroke-width: 0.8; stroke-linecap: square"/>
     </g>
     <g id="text_12">
      <!-- 135° -->
      <g transform="translate(254.221761 109.996522) scale(0.1 -0.1)">
       <defs>
        <path id="DejaVuSans-31" d="M 794 531 
L 1825 531 
L 1825 4091 
L 703 3866 
L 703 4441 
L 1819 4666 
L 2450 4666 
L 2450 531 
L 3481 531 
L 3481 0 
L 794 0 
L 794 531 
z
" transform="scale(0.015625)"/>
        <path id="DejaVuSans-33" d="M 2597 2516 
Q 3050 2419 3304 2112 
Q 3559 1806 3559 1356 
Q 3559 666 3084 287 
Q 2609 -91 1734 -91 
Q 1441 -91 1130 -33 
Q 819 25 488 141 
L 488 750 
Q 750 597 1062 519 
Q 1375 441 1716 441 
Q 2309 441 2620 675 
Q 2931 909 2931 1356 
Q 2931 1769 2642 2001 
Q 2353 2234 1838 2234 
L 1294 2234 
L 1294 2753 
L 1863 2753 
Q 2328 2753 2575 2939 
Q 2822 3125 2822 3475 
Q 2822 3834 2567 4026 
Q 2313 4219 1838 4219 
Q 1578 4219 1281 4162 
Q 984 4106 628 3988 
L 628 4550 
Q 988 4650 1302 4700 
Q 1616 4750 1894 4750 
Q 2613 4750 3031 4423 
Q 3450 4097 3450 3541 
Q 3450 3153 3228 2886 
Q 3006 2619 2597 2516 
z
" transform="scale(0.015625)"/>
       </defs>
       <use xlink:href="#DejaVuSans-31"/>
       <use xlink:href="#DejaVuSans-33" x="63.623047"/>
       <use xlink:href="#DejaVuSans-35" x="127.246094"/>
       <use xlink:href="#DejaVuSans-b0" x="190.869141"/>
      </g>
     </g>
    </g>
    <g id="xtick_8">
     <g id="line2d_13">
      <path d="M 333.556364 174.528 
L 252.392727 174.528 
" clip-path="url(#pb73fcbe202)" style="fill: none; stroke: #b0b0b0; stroke-width: 0.8; stroke-linecap: square"/>
     </g>
     <g id="text_13">
      <!-- 180° -->
      <g transform="translate(226.348977 177.287375) scale(0.1 -0.1)">
       <defs>
        <path id="DejaVuSans-38" d="M 2034 2216 
Q 1584 2216 1326 1975 
Q 1069 1734 1069 1313 
Q 1069 891 1326 650 
Q 1584 409 2034 409 
Q 2484 409 2743 651 
Q 3003 894 3003 1313 
Q 3003 1734 2745 1975 
Q 2488 2216 2034 2216 
z
M 1403 2484 
Q 997 2584 770 2862 
Q 544 3141 544 3541 
Q 544 4100 942 4425 
Q 1341 4750 2034 4750 
Q 2731 4750 3128 4425 
Q 3525 4100 3525 3541 
Q 3525 3141 3298 2862 
Q 3072 2584 2669 2484 
Q 3125 2378 3379 2068 
Q 3634 1759 3634 1313 
Q 3634 634 3220 271 
Q 2806 -91 2034 -91 
Q 1263 -91 848 271 
Q 434 634 434 1313 
Q 434 1759 690 2068 
Q 947 2378 1403 2484 
z
M 1172 3481 
Q 1172 3119 1398 2916 
Q 1625 2713 2034 2713 
Q 2441 2713 2670 2916 
Q 2900 3119 2900 3481 
Q 2900 3844 2670 4047 
Q 2441 4250 2034 4250 
Q 1625 4250 1398 4047 
Q 1172 3844 1172 3481 
z
" transform="scale(0.015625)"/>
       </defs>
       <use xlink:href="#DejaVuSans-31"/>
       <use xlink:href="#DejaVuSans-38" x="63.623047"/>
       <use xlink:href="#DejaVuSans-30" x="127.246094"/>
       <use xlink:href="#DejaVuSans-b0" x="190.869141"/>
      </g>
     </g>
    </g>
    <g id="xtick_9">
     <g id="line2d_14">
      <path d="M 333.556364 174.528 
L 276.165006 231.919358 
" clip-path="url(#pb73fcbe202)" style="fill: none; stroke: #b0b0b0; stroke-width: 0.8; stroke-linecap: square"/>
     </g>
     <g id="text_14">
      <!-- 225° -->
      <g transform="translate(254.221761 244.578228) scale(0.1 -0.1)">
       <use xlink:href="#DejaVuSans-32"/>
       <use xlink:href="#DejaVuSans-32" x="63.623047"/>
       <use xlink:href="#DejaVuSans-35" x="127.246094"/>
       <use xlink:href="#DejaVuSans-b0" x="190.869141"/>
      </g>
     </g>
    </g>
    <g id="xtick_10">
     <g id="line2d_15">
      <path d="M 333.556364 174.528 
L 333.556364 255.691636 
" clip-path="url(#pb73fcbe202)" style="fill: none; stroke: #b0b0b0; stroke-width: 0.8; stroke-linecap: square"/>
     </g>
     <g id="text_15">
      <!-- 270° -->
      <g transform="translate(321.512614 272.451011) scale(0.1 -0.1)">
       <defs>
        <path id="DejaVuSans-37" d="M 525 4666 
L 3525 4666 
L 3525 4397 
L 1831 0 
L 1172 0 
L 2766 4134 
L 525 4134 
L 525 4666 
z
" transform="scale(0.015625)"/>
       </defs>
       <use xlink:href="#DejaVuSans-32"/>
       <use xlink:href="#DejaVuSans-37" x="63.623047"/>
       <use xlink:href="#DejaVuSans-30" x="127.246094"/>
       <use xlink:href="#DejaVuSans-b0" x="190.869141"/>
      </g>
     </g>
    </g>
    <g id="xtick_11">
     <g id="line2d_16">
      <path d="M 333.556364 174.528 
L 390.947721 231.919358 
" clip-path="url(#pb73fcbe202)" style="fill: none; stroke: #b0b0b0; stroke-width: 0.8; stroke-linecap: square"/>
     </g>
     <g id="text_16">
      <!-- 315° -->
      <g transform="translate(388.803466 244.578228) scale(0.1 -0.1)">
       <use xlink:href="#DejaVuSans-33"/>
       <use xlink:href="#DejaVuSans-31" x="63.623047"/>
       <use xlink:href="#DejaVuSans-35" x="127.246094"/>
       <use xlink:href="#DejaVuSans-b0" x="190.869141"/>
      </g>
     </g>
    </g>
   </g>
   <g id="matplotlib.axis_4">
    <g id="ytick_6">
     <g id="line2d_17">
      <path d="M 337.244891 174.528 
C 337.244891 174.043627 337.14948 173.563964 336.964118 173.116462 
C 336.778757 172.66896 336.507049 172.262321 336.164546 171.919818 
C 335.822043 171.577314 335.415404 171.305607 334.967902 171.120245 
C 334.5204 170.934884 334.040737 170.839473 333.556364 170.839473 
C 333.071991 170.839473 332.592328 170.934884 332.144825 171.120245 
C 331.697323 171.305607 331.290685 171.577314 330.948181 171.919818 
C 330.605678 172.262321 330.333971 172.66896 330.148609 173.116462 
C 329.963248 173.563964 329.867837 174.043627 329.867837 174.528 
C 329.867837 175.012373 329.963248 175.492036 330.148609 175.939538 
C 330.333971 176.38704 330.605678 176.793679 330.948181 177.136182 
C 331.290685 177.478686 331.697323 177.750393 332.144825 177.935755 
C 332.592328 178.121116 333.071991 178.216527 333.556364 178.216527 
C 334.040737 178.216527 334.5204 178.121116 334.967902 177.935755 
C 335.415404 177.750393 335.822043 177.478686 336.164546 177.136182 
C 336.507049 176.793679 336.778757 176.38704 336.964118 175.939538 
C 337.14948 175.492036 337.244891 175.012373 337.244891 174.528 
" clip-path="url(#pb73fcbe202)" style="fill: none; stroke: #b0b0b0; stroke-width: 0.8; stroke-linecap: square"/>
     </g>
     <g id="text_17">
      <!-- −1000 -->
      <g transform="translate(336.964118 171.036774) scale(0.1 -0.1)">
       <use xlink:href="#DejaVuSans-2212"/>
       <use xlink:href="#DejaVuSans-31" x="83.789062"/>
       <use xlink:href="#DejaVuSans-30" x="147.412109"/>
       <use xlink:href="#DejaVuSans-30" x="211.035156"/>
       <use xlink:href="#DejaVuSans-30" x="274.658203"/>
      </g>
     </g>
    </g>
    <g id="ytick_7">
     <g id="line2d_18">
      <path d="M 351.829698 174.528 
C 351.829698 172.128368 351.357023 169.752069 350.438723 167.535098 
C 349.520424 165.318127 348.174358 163.303598 346.477562 161.606802 
C 344.780766 159.910005 342.766237 158.56394 340.549266 157.645641 
C 338.332295 156.727341 335.955996 156.254666 333.556364 156.254666 
C 331.156731 156.254666 328.780433 156.727341 326.563461 157.645641 
C 324.34649 158.56394 322.331961 159.910005 320.635165 161.606802 
C 318.938369 163.303598 317.592304 165.318127 316.674004 167.535098 
C 315.755705 169.752069 315.283029 172.128368 315.283029 174.528 
C 315.283029 176.927632 315.755705 179.303931 316.674004 181.520902 
C 317.592304 183.737873 318.938369 185.752402 320.635165 187.449198 
C 322.331961 189.145995 324.34649 190.49206 326.563461 191.410359 
C 328.780433 192.328659 331.156731 192.801334 333.556364 192.801334 
C 335.955996 192.801334 338.332295 192.328659 340.549266 191.410359 
C 342.766237 190.49206 344.780766 189.145995 346.477562 187.449198 
C 348.174358 185.752402 349.520424 183.737873 350.438723 181.520902 
C 351.357023 179.303931 351.829698 176.927632 351.829698 174.528 
" clip-path="url(#pb73fcbe202)" style="fill: none; stroke: #b0b0b0; stroke-width: 0.8; stroke-linecap: square"/>
     </g>
     <g id="text_18">
      <!-- −800 -->
      <g transform="translate(350.438723 165.45541) scale(0.1 -0.1)">
       <use xlink:href="#DejaVuSans-2212"/>
       <use xlink:href="#DejaVuSans-38" x="83.789062"/>
       <use xlink:href="#DejaVuSans-30" x="147.412109"/>
       <use xlink:href="#DejaVuSans-30" x="211.035156"/>
      </g>
     </g>
    </g>
    <g id="ytick_8">
     <g id="line2d_19">
      <path d="M 366.414505 174.528 
C 366.414505 170.213108 365.564565 165.940174 363.913328 161.953734 
C 362.26209 157.967294 359.841667 154.344875 356.790578 151.293785 
C 353.739489 148.242696 350.11707 145.822273 346.13063 144.171036 
C 342.14419 142.519798 337.871255 141.669859 333.556364 141.669859 
C 329.241472 141.669859 324.968537 142.519798 320.982097 144.171036 
C 316.995657 145.822273 313.373238 148.242696 310.322149 151.293785 
C 307.27106 154.344875 304.850637 157.967294 303.199399 161.953734 
C 301.548162 165.940174 300.698222 170.213108 300.698222 174.528 
C 300.698222 178.842892 301.548162 183.115826 303.199399 187.102266 
C 304.850637 191.088706 307.27106 194.711125 310.322149 197.762215 
C 313.373238 200.813304 316.995657 203.233727 320.982097 204.884964 
C 324.968537 206.536202 329.241472 207.386141 333.556364 207.386141 
C 337.871255 207.386141 342.14419 206.536202 346.13063 204.884964 
C 350.11707 203.233727 353.739489 200.813304 356.790578 197.762215 
C 359.841667 194.711125 362.26209 191.088706 363.913328 187.102266 
C 365.564565 183.115826 366.414505 178.842892 366.414505 174.528 
" clip-path="url(#pb73fcbe202)" style="fill: none; stroke: #b0b0b0; stroke-width: 0.8; stroke-linecap: square"/>
     </g>
     <g id="text_19">
      <!-- −600 -->
      <g transform="translate(363.913328 159.874046) scale(0.1 -0.1)">
       <defs>
        <path id="DejaVuSans-36" d="M 2113 2584 
Q 1688 2584 1439 2293 
Q 1191 2003 1191 1497 
Q 1191 994 1439 701 
Q 1688 409 2113 409 
Q 2538 409 2786 701 
Q 3034 994 3034 1497 
Q 3034 2003 2786 2293 
Q 2538 2584 2113 2584 
z
M 3366 4563 
L 3366 3988 
Q 3128 4100 2886 4159 
Q 2644 4219 2406 4219 
Q 1781 4219 1451 3797 
Q 1122 3375 1075 2522 
Q 1259 2794 1537 2939 
Q 1816 3084 2150 3084 
Q 2853 3084 3261 2657 
Q 3669 2231 3669 1497 
Q 3669 778 3244 343 
Q 2819 -91 2113 -91 
Q 1303 -91 875 529 
Q 447 1150 447 2328 
Q 447 3434 972 4092 
Q 1497 4750 2381 4750 
Q 2619 4750 2861 4703 
Q 3103 4656 3366 4563 
z
" transform="scale(0.015625)"/>
       </defs>
       <use xlink:href="#DejaVuSans-2212"/>
       <use xlink:href="#DejaVuSans-36" x="83.789062"/>
       <use xlink:href="#DejaVuSans-30" x="147.412109"/>
       <use xlink:href="#DejaVuSans-30" x="211.035156"/>
      </g>
     </g>
    </g>
    <g id="ytick_9">
     <g id="line2d_20">
      <path d="M 380.999312 174.528 
C 380.999312 168.297849 379.772108 162.128279 377.387933 156.37237 
C 375.003757 150.616461 371.508976 145.386151 367.103594 140.980769 
C 362.698212 136.575387 357.467903 133.080606 351.711994 130.696431 
C 345.956085 128.312255 339.786515 127.085051 333.556364 127.085051 
C 327.326213 127.085051 321.156642 128.312255 315.400733 130.696431 
C 309.644824 133.080606 304.414515 136.575387 300.009133 140.980769 
C 295.603751 145.386151 292.10897 150.616461 289.724794 156.37237 
C 287.340619 162.128279 286.113415 168.297849 286.113415 174.528 
C 286.113415 180.758151 287.340619 186.927721 289.724794 192.68363 
C 292.10897 198.439539 295.603751 203.669849 300.009133 208.075231 
C 304.414515 212.480613 309.644824 215.975394 315.400733 218.359569 
C 321.156642 220.743745 327.326213 221.970949 333.556364 221.970949 
C 339.786515 221.970949 345.956085 220.743745 351.711994 218.359569 
C 357.467903 215.975394 362.698212 212.480613 367.103594 208.075231 
C 371.508976 203.669849 375.003757 198.439539 377.387933 192.68363 
C 379.772108 186.927721 380.999312 180.758151 380.999312 174.528 
" clip-path="url(#pb73fcbe202)" style="fill: none; stroke: #b0b0b0; stroke-width: 0.8; stroke-linecap: square"/>
     </g>
     <g id="text_20">
      <!-- −400 -->
      <g transform="translate(377.387933 154.292682) scale(0.1 -0.1)">
       <use xlink:href="#DejaVuSans-2212"/>
       <use xlink:href="#DejaVuSans-34" x="83.789062"/>
       <use xlink:href="#DejaVuSans-30" x="147.412109"/>
       <use xlink:href="#DejaVuSans-30" x="211.035156"/>
      </g>
     </g>
    </g>
    <g id="ytick_10">
     <g id="line2d_21">
      <path d="M 395.584119 174.528 
C 395.584119 166.38259 393.979651 158.316383 390.862538 150.791006 
C 387.745424 143.265628 383.176285 136.427428 377.41661 130.667753 
C 371.656936 124.908078 364.818736 120.33894 357.293358 117.221826 
C 349.76798 114.104712 341.701774 112.500244 333.556364 112.500244 
C 325.410953 112.500244 317.344747 114.104712 309.819369 117.221826 
C 302.293991 120.33894 295.455792 124.908078 289.696117 130.667753 
C 283.936442 136.427428 279.367303 143.265628 276.25019 150.791006 
C 273.133076 158.316383 271.528608 166.38259 271.528608 174.528 
C 271.528608 182.67341 273.133076 190.739617 276.25019 198.264994 
C 279.367303 205.790372 283.936442 212.628572 289.696117 218.388247 
C 295.455792 224.147922 302.293991 228.71706 309.819369 231.834174 
C 317.344747 234.951288 325.410953 236.555756 333.556364 236.555756 
C 341.701774 236.555756 349.76798 234.951288 357.293358 231.834174 
C 364.818736 228.71706 371.656936 224.147922 377.41661 218.388247 
C 383.176285 212.628572 387.745424 205.790372 390.862538 198.264994 
C 393.979651 190.739617 395.584119 182.67341 395.584119 174.528 
" clip-path="url(#pb73fcbe202)" style="fill: none; stroke: #b0b0b0; stroke-width: 0.8; stroke-linecap: square"/>
     </g>
     <g id="text_21">
      <!-- −200 -->
      <g transform="translate(390.862538 148.711318) scale(0.1 -0.1)">
       <use xlink:href="#DejaVuSans-2212"/>
       <use xlink:href="#DejaVuSans-32" x="83.789062"/>
       <use xlink:href="#DejaVuSans-30" x="147.412109"/>
       <use xlink:href="#DejaVuSans-30" x="211.035156"/>
      </g>
     </g>
    </g>
    <g id="ytick_11">
     <g id="line2d_22">
      <path d="M 410.168927 174.528 
C 410.168927 164.46733 408.187194 154.504488 404.337142 145.209641 
C 400.487091 135.914795 394.843594 127.468705 387.729626 120.354737 
C 380.615659 113.24077 372.169569 107.597273 362.874722 103.747221 
C 353.579875 99.89717 343.617033 97.915437 333.556364 97.915437 
C 323.495694 97.915437 313.532852 99.89717 304.238005 103.747221 
C 294.943158 107.597273 286.497069 113.24077 279.383101 120.354737 
C 272.269133 127.468705 266.625636 135.914795 262.775585 145.209641 
C 258.925533 154.504488 256.943801 164.46733 256.943801 174.528 
C 256.943801 184.58867 258.925533 194.551512 262.775585 203.846359 
C 266.625636 213.141205 272.269133 221.587295 279.383101 228.701263 
C 286.497069 235.81523 294.943158 241.458727 304.238005 245.308779 
C 313.532852 249.15883 323.495694 251.140563 333.556364 251.140563 
C 343.617033 251.140563 353.579875 249.15883 362.874722 245.308779 
C 372.169569 241.458727 380.615659 235.81523 387.729626 228.701263 
C 394.843594 221.587295 400.487091 213.141205 404.337142 203.846359 
C 408.187194 194.551512 410.168927 184.58867 410.168927 174.528 
" clip-path="url(#pb73fcbe202)" style="fill: none; stroke: #b0b0b0; stroke-width: 0.8; stroke-linecap: square"/>
     </g>
     <g id="text_22">
      <!-- 0 -->
      <g transform="translate(404.337142 143.129954) scale(0.1 -0.1)">
       <use xlink:href="#DejaVuSans-30"/>
      </g>
     </g>
    </g>
   </g>
   <g id="line2d_23">
    <path d="M 411.030744 174.528 
L 408.348763 154.488056 
L 400.495656 135.88196 
L 388.037422 120.049466 
L 371.878613 108.156651 
L 353.218227 101.160256 
L 333.556535 170.838744 
L 313.731573 100.524875 
L 295.254181 108.177208 
L 279.386865 120.350973 
L 267.210896 136.216596 
L 259.555995 154.692925 
" clip-path="url(#pb73fcbe202)" style="fill: none; stroke: #1f77b4; stroke-width: 1.5; stroke-linecap: square"/>
   </g>
   <g id="patch_10">
    <path d="M 414.72 174.528 
C 414.72 163.869689 412.620545 153.315017 408.541786 143.468021 
C 404.463027 133.621026 398.484285 124.673206 390.947721 117.136642 
C 383.411157 109.600078 374.463338 103.621337 364.616343 99.542578 
C 354.769347 95.463819 344.214675 93.364364 333.556364 93.364364 
C 322.898053 93.364364 312.34338 95.463819 302.496385 99.542578 
C 292.649389 103.621337 283.70157 109.600078 276.165006 117.136642 
C 268.628442 124.673206 262.6497 133.621026 258.570941 143.468021 
C 254.492182 153.315017 252.392727 163.869689 252.392727 174.528 
C 252.392727 185.186311 254.492182 195.740983 258.570941 205.587979 
C 262.6497 215.434974 268.628442 224.382794 276.165006 231.919358 
C 283.70157 239.455922 292.649389 245.434663 302.496385 249.513422 
C 312.34338 253.592181 322.898053 255.691636 333.556364 255.691636 
C 344.214675 255.691636 354.769347 253.592181 364.616343 249.513422 
C 374.463338 245.434663 383.411157 239.455922 390.947721 231.919358 
C 398.484285 224.382794 404.463027 215.434974 408.541786 205.587979 
C 412.620545 195.740983 414.72 185.186311 414.72 174.528 
" style="fill: none; stroke: #000000; stroke-width: 0.8; stroke-linejoin: miter; stroke-linecap: square"/>
   </g>
  </g>
 </g>
 <defs>
  <clipPath id="p4255594a65">
   <rect x="57.6" y="41.472" width="162.327273" height="266.112"/>
  </clipPath>
  <clipPath id="pb73fcbe202">
   <path d="M 414.72 174.528 
C 414.72 163.869689 412.620545 153.315017 408.541786 143.468021 
C 404.463027 133.621026 398.484285 124.673206 390.947721 117.136642 
C 383.411157 109.600078 374.463338 103.621337 364.616343 99.542578 
C 354.769347 95.463819 344.214675 93.364364 333.556364 93.364364 
C 322.898053 93.364364 312.34338 95.463819 302.496385 99.542578 
C 292.649389 103.621337 283.70157 109.600078 276.165006 117.136642 
C 268.628442 124.673206 262.6497 133.621026 258.570941 143.468021 
C 254.492182 153.315017 252.392727 163.869689 252.392727 174.528 
C 252.392727 185.186311 254.492182 195.740983 258.570941 205.587979 
C 262.6497 215.434974 268.628442 224.382794 276.165006 231.919358 
C 283.70157 239.455922 292.649389 245.434663 302.496385 249.513422 
C 312.34338 253.592181 322.898053 255.691636 333.556364 255.691636 
C 344.214675 255.691636 354.769347 253.592181 364.616343 249.513422 
C 374.463338 245.434663 383.411157 239.455922 390.947721 231.919358 
C 398.484285 224.382794 404.463027 215.434974 408.541786 205.587979 
C 412.620545 195.740983 414.72 185.186311 414.72 174.528 
M 333.556364 174.528 
C 333.556364 174.528 333.556364 174.528 333.556364 174.528 
C 333.556364 174.528 333.556364 174.528 333.556364 174.528 
C 333.556364 174.528 333.556364 174.528 333.556364 174.528 
C 333.556364 174.528 333.556364 174.528 333.556364 174.528 
C 333.556364 174.528 333.556364 174.528 333.556364 174.528 
C 333.556364 174.528 333.556364 174.528 333.556364 174.528 
C 333.556364 174.528 333.556364 174.528 333.556364 174.528 
C 333.556364 174.528 333.556364 174.528 333.556364 174.528 
C 333.556364 174.528 333.556364 174.528 333.556364 174.528 
C 333.556364 174.528 333.556364 174.528 333.556364 174.528 
C 333.556364 174.528 333.556364 174.528 333.556364 174.528 
C 333.556364 174.528 333.556364 174.528 333.556364 174.528 
C 333.556364 174.528 333.556364 174.528 333.556364 174.528 
C 333.556364 174.528 333.556364 174.528 333.556364 174.528 
C 333.556364 174.528 333.556364 174.528 333.556364 174.528 
C 333.556364 174.528 333.556364 174.528 333.556364 174.528 
z
"/>
  </clipPath>
 </defs>
</svg>
